<svg xmlns="http://www.w3.org/2000/svg" xmlns:xlink="http://www.w3.org/1999/xlink" version="1.1" x="0px" y="0px" viewBox="0 0 503.997 391.73125" style="enable-background:new 0 0 503.997 313.385;" xml:space="preserve"><path d="M427.625,49.385c-34.838,0-73.241,25.582-110.379,50.321c-24.776,16.505-48.178,32.094-67.663,37.842  c-13.272,3.916-28.72,5.709-45.468,6.5c-18.687-11.544-33.901-45.773-47.348-76.045C140.559,31.513,126.56,0,106.393,0  C70.068,0,62.007,80.895,61.771,150.186c-19.142,4.697-34.951,17.109-45.858,36.091c-18.692,32.533-21.125,81.37-6.196,124.418  c0.558,1.61,2.075,2.689,3.779,2.689h486.501c2.209,0,4-1.791,4-4C503.997,199.659,503.997,49.385,427.625,49.385z M438.763,58.812  c-24.931-1.602-47.887,14.834-69.6,49.663c-7.938,12.732-15.616,31.575-24.507,53.393c-21.841,53.596-49.022,120.296-92.658,120.296  c-44.714,0-68.631-39.643-87.848-71.496c-6.413-10.631-11.952-19.811-17.566-26.223c-13.176-15.044-28.643-25.646-44.93-31.197  c7.492-0.417,15.141-0.635,22.858-0.732c22.496,10.223,36.67,29.245,50.358,49.514c1.017,1.507,2.028,3.013,3.035,4.513  c18.646,27.781,36.258,54.021,74.094,54.021c38.423,0,57.859-45.809,78.437-94.307c1.328-3.128,2.662-6.273,4.009-9.425  c14.846-34.729,31.395-70.32,55.949-90.715c12.871-5.397,25.384-8.732,37.232-8.732C431.515,57.385,435.224,57.867,438.763,58.812z   M157.412,152.545c12.2,4.105,21.998,17.118,32.359,30.905c15.222,20.256,32.476,43.214,62.227,43.214  c30.08,0,48.42-40.907,66.157-80.468c11.913-26.571,23.166-51.669,36.449-61.164c4.839-2.961,9.667-5.801,14.469-8.455  c-17.279,21.308-30.177,49.488-41.985,77.11c-1.35,3.158-2.687,6.31-4.017,9.445c-19.514,45.99-37.946,89.431-71.073,89.431  c-33.57,0-49.271-23.394-67.452-50.48c-1.011-1.506-2.026-3.018-3.047-4.53c-11.63-17.222-23.633-33.61-40.733-45.105  c4.945,0.014,9.888,0.048,14.804,0.084C156.186,152.537,156.797,152.541,157.412,152.545z M321.682,106.364  c3.575-2.382,7.163-4.77,10.756-7.143c-7.488,12.274-14.421,27.729-21.583,43.703c-16.695,37.236-33.958,75.74-58.857,75.74  c-25.756,0-41.046-20.345-55.832-40.021c-7.404-9.853-14.547-19.328-22.777-26.02c5.424,0.006,10.78-0.023,16.046-0.113  c5.461,9.559,28.432,46.217,59.483,46.217c36.076,0,57.39-72.495,60.623-84.31C313.546,111.783,317.595,109.086,321.682,106.364z   M247.584,169.898c27.555,0,35.999-31.921,37.731-40.244c4.557-2.67,9.202-5.542,13.921-8.55  c-8.245,25.95-26.992,69.624-50.318,69.624c-23.462,0-42.776-26.536-50.266-38.453c4.053-0.137,8.04-0.327,11.959-0.577  C213.868,157.448,223.679,169.898,247.584,169.898z M251.848,145.222c7.501-2.213,15.431-5.727,23.7-10.107  c-3.429,10.484-11.418,26.783-27.963,26.783c-15.833,0-23.95-6.28-27.789-10.918C231.297,149.886,242.075,148.105,251.848,145.222z   M106.393,8c14.968,0,29.251,32.154,43.063,63.249c12.593,28.349,25.55,57.51,42.223,73.214c-11.61,0.244-23.705,0.161-36.05,0.069  c-29.276-0.214-59.489-0.435-85.85,4.057C70.254,60.446,83.863,8,106.393,8z M55.517,263.255h21.422v42.13H55.517V263.255z   M55.517,205.385h21.422v49.87H55.517V205.385z M106.362,255.255H84.939v-32.429h21.422V255.255z M106.362,283.704H84.939v-20.449  h21.422V283.704z M84.939,291.704h21.422v13.681H84.939V291.704z M114.362,263.255h21.423v42.13h-21.423V263.255z M143.785,291.704  h21.422v13.681h-21.422V291.704z M173.207,278.736c6.706,9.444,13.581,18.565,20.705,26.648h-20.705V278.736z M165.207,283.704  h-21.422v-20.449h18.674c0.913,1.335,1.83,2.672,2.748,4.008V283.704z M143.785,255.255v-18.871  c4.464,6.159,8.852,12.511,13.205,18.871H143.785z M135.785,255.255h-21.423v-53.319c7.462,6.821,14.556,14.956,21.423,23.774  V255.255z M106.362,214.826H84.939v-30.911c7.526,2.32,14.635,6.244,21.422,11.351V214.826z M76.939,197.385H55.517V184.4  c3.982-1.767,8.574-2.863,13.853-2.863c2.571,0,5.092,0.196,7.57,0.561V197.385z M47.517,214.826H31.363  c1.811-5.378,4.097-10.35,6.885-14.758c2.258-3.569,5.302-7.426,9.269-10.693V214.826z M29.084,222.826h18.433v32.429H26.493  C25.895,243.867,26.748,232.816,29.084,222.826z M47.517,263.255v20.449H30.946c-1.777-6.777-3.042-13.642-3.799-20.449H47.517z   M47.517,291.704v13.681h-8.93c-2.008-4.455-3.77-9.031-5.287-13.681H47.517z M465.338,275.911c4.615-0.71,9.128-2.118,13.318-4.189  c0.116,11.815,0.129,23.215,0.131,33.663h-13.448V275.911z M457.338,305.385h-18.334v-28.936h18.334V305.385z M431.003,305.385  H411.99v-28.936h19.014V305.385z M403.99,305.385h-19.014v-28.936h19.014V305.385z M376.976,305.385h-19.014v-28.936h19.014V305.385  z M349.962,305.385h-22.87v-28.936h22.87V305.385z M319.092,305.385h-11.813c4.12-5.38,8.048-11.268,11.813-17.564V305.385z   M495.997,305.385h-9.211c-0.002-12.51-0.02-26.378-0.211-40.715c-0.02-1.49-0.866-2.846-2.196-3.518  c-1.331-0.673-2.923-0.548-4.134,0.319c-6.274,4.5-13.972,6.978-21.675,6.978H329.638c1.314-2.628,2.611-5.294,3.891-8H458.57  c6.479,0,12.857-2.197,17.958-6.188l8.124-6.351c0.999-0.781,1.568-1.989,1.535-3.256c-1.256-47.975-4.938-83.829-11.256-109.614  c-8.725-35.608-23.166-53.663-42.922-53.663c-35.343,0-56.977,55.237-79.88,113.719c-16.194,41.35-32.935,84.072-55.112,110.288  h-92.246c-13.306-13.867-25.914-32.305-38.116-50.167c-27.432-40.157-55.798-81.681-97.286-81.681  c-15.574,0-28.674,7.695-37.882,22.255c-16.941,26.784-17.404,71.973-1.621,109.593H16.369  C3.177,265.108,5.645,220.207,22.85,190.263c10.303-17.932,25.367-29.313,43.568-32.926c26.16-3.361,53.18,8.437,74.148,32.379  c5.149,5.879,10.518,14.778,16.735,25.083c19.188,31.806,45.466,75.364,94.698,75.364c49.014,0,77.321-69.463,100.066-125.276  c8.389-20.585,16.312-40.027,23.888-52.18c26.811-43.007,53.92-55.384,85.252-38.924c11.576,13.768,20.103,36.271,25.762,67.807  C495.769,190.643,495.992,253.761,495.997,305.385z M478.137,242.85l-6.536,5.11c-1.885,1.474-4.011,2.606-6.263,3.367v-45.942h11.2  C477.501,220.236,477.889,233.497,478.137,242.85z M411.99,113.506h19.014v31.79H411.99V113.506z M457.338,217.193h-18.334v-11.809  h18.334V217.193z M411.99,205.385h19.014v28.319H411.99V205.385z M411.99,172.402l19.014-0.704v25.687H411.99V172.402z   M457.338,176.919h-18.334v-23.623h18.334V176.919z M439.003,197.385v-12.466h18.334v12.466H439.003z M457.338,145.296h-18.334  v-17.047h18.334V145.296z M431.003,153.296v10.397l-19.014,0.704v-11.101H431.003z M403.99,176.919h-19.014v-23.623h19.014V176.919z   M384.976,184.919h19.014v12.466h-19.014V184.919z M403.99,205.385v11.809h-19.014v-11.809H403.99z M376.976,233.704h-19.014  v-28.319h19.014V233.704z M357.962,241.704h19.014v10.745h-19.014V241.704z M384.976,225.193h19.014v27.256h-19.014V225.193z   M411.99,241.704h19.014v10.745H411.99V241.704z M439.003,225.193h18.334v27.256h-18.334V225.193z M465.338,197.385v-67.321  c5.821,20.211,8.917,45.017,10.633,67.321H465.338z M457.338,120.249h-18.334V90.552c7.464,2.581,13.479,9.307,18.334,18.658  V120.249z M431.003,105.506H411.99v-7.731c5.947-5.114,12.244-8.099,19.014-8.369V105.506z M403.99,145.296h-19.014v-7.736  c6.065-12.422,12.335-23.227,19.014-31.437V145.296z M376.976,197.385h-17.151c5.735-14.643,11.389-29.06,17.151-42.356V197.385z   M349.962,252.449h-12.74c4.398-9.748,8.616-19.877,12.74-30.121V252.449z"/><text x="0" y="328.385" fill="#000000" font-size="5px" font-weight="bold" font-family="'Helvetica Neue', Helvetica, Arial-Unicode, Arial, Sans-serif">Created by Amethyst Studio</text><text x="0" y="333.385" fill="#000000" font-size="5px" font-weight="bold" font-family="'Helvetica Neue', Helvetica, Arial-Unicode, Arial, Sans-serif">from the Noun Project</text></svg>