<svg xmlns="http://www.w3.org/2000/svg" xmlns:xlink="http://www.w3.org/1999/xlink" version="1.1" x="0px" y="0px" viewBox="0 0 66 82.5" enable-background="new 0 0 66 66" xml:space="preserve"><g><polygon points="33,1 27.1,9.7 38.9,9.7  "/><path d="M33.7,24.5v-1.7h4.2V11.2h-9.8v11.5h4.2v1.7H33.7z M31.1,20.6v-4.1c0-1,0.8-1.9,1.9-1.9h0c1,0,1.9,0.8,1.9,1.9v4.1H31.1z"/><polygon points="13,35.4 23.8,35.4 18.4,26.7  "/><polygon points="42.2,35.4 53,35.4 47.6,26.7  "/><path d="M40.4,44.9h-2.5v-2.2h-3.6v2.2h-2.5v-2.2h-3.6v2.2h-2.5v-2.2h-1.5V65h17.7V42.6h-1.5V44.9z M37,63H29v-6.8c0-2.2,1.8-4,4-4   h0c2.2,0,4,1.8,4,4V63z"/><path d="M43.4,65h8.4V36.9h-8.4V65z M46.1,43.1c0-0.8,0.7-1.5,1.5-1.5s1.5,0.7,1.5,1.5v3.7h-3V43.1z M46.1,52.4   c0-0.8,0.7-1.5,1.5-1.5s1.5,0.7,1.5,1.5v3.7h-3V52.4z"/><path d="M63.4,49.3v2.2h-2.1v-2.2h-4v2.2h-2.1v-2.2h-1.9V65H65V49.3H63.4z M60.7,65h-3v-3.7c0-0.8,0.7-1.5,1.5-1.5h0   c0.8,0,1.5,0.7,1.5,1.5V65z"/><path d="M10.8,51.5H8.7v-2.2h-4v2.2H2.6v-2.2H1V65h11.7V49.3h-1.9V51.5z M8.3,65h-3v-3.7c0-0.8,0.7-1.5,1.5-1.5h0   c0.8,0,1.5,0.7,1.5,1.5V65z"/><path d="M14.2,65h8.4V36.9h-8.4V65z M16.9,43.1c0-0.8,0.7-1.5,1.5-1.5s1.5,0.7,1.5,1.5v3.7h-3V43.1z M16.9,52.4   c0-0.8,0.7-1.5,1.5-1.5s1.5,0.7,1.5,1.5v3.7h-3V52.4z"/><path d="M40.4,25.5h-3.1v-1.7h-2.5v1.7h-3.4v-1.7h-2.5v1.7h-3.1v-1.7h-1.5v6.2h1.5v11.7h1v2.2h0.5v-2.2h5.6v2.2h0.5v-2.2h5.6v2.2   h0.5v-2.2h1V29.9h1.5v-6.2h-1.5V25.5z M36.7,38.5h-7.3v-4.9c0-2,1.6-3.7,3.7-3.7h0c2,0,3.7,1.6,3.7,3.7V38.5z"/></g><text x="0" y="81" fill="#000000" font-size="5px" font-weight="bold" font-family="'Helvetica Neue', Helvetica, Arial-Unicode, Arial, Sans-serif">Created by Vectors Market</text><text x="0" y="86" fill="#000000" font-size="5px" font-weight="bold" font-family="'Helvetica Neue', Helvetica, Arial-Unicode, Arial, Sans-serif">from the Noun Project</text></svg>