<svg xmlns="http://www.w3.org/2000/svg" xmlns:xlink="http://www.w3.org/1999/xlink" version="1.1" x="0px" y="0px" viewBox="0 0 32 40" style="enable-background:new 0 0 32 32;" xml:space="preserve"><g><path d="M10.28,14.12l3.8,7.73h-3.33l-3.88-4.46c-0.25-0.28-0.68-0.31-0.96-0.07c-0.28,0.25-0.31,0.68-0.07,0.96l4.08,4.68   l0.05,3.04c0.01,0.37,0.31,0.67,0.68,0.67c0,0,0.01,0,0.01,0c0.38-0.01,0.68-0.32,0.67-0.69l-0.04-2.77h3.47l1.6,3.26   c0.12,0.24,0.36,0.38,0.61,0.38c0.1,0,0.2-0.02,0.3-0.07c0.34-0.17,0.48-0.58,0.31-0.92l-1.3-2.65h4.35l1.87,3.25   c0.13,0.22,0.36,0.34,0.59,0.34c0.11,0,0.23-0.03,0.34-0.09c0.33-0.19,0.44-0.61,0.25-0.93l-2.06-3.6   c-0.12-0.21-0.35-0.34-0.59-0.34H15.6l-4.08-8.3l2.42-1.12c0.01,0,0.02,0.01,0.04,0.01c0.06,0,0.12-0.01,0.18-0.02   c0.15-0.04,0.26-0.13,0.35-0.24l3.93-1.82c0.01,0,0.02-0.01,0.03-0.02c0.01,0,0.02-0.01,0.04-0.02c0.34-0.16,0.49-0.57,0.32-0.91   c-2.13-4.49-7.56-6.43-12.1-4.33C4.51,6.11,2.84,7.92,2.01,10.2c-0.82,2.25-0.7,4.68,0.33,6.85c0.12,0.25,0.36,0.39,0.62,0.39   c0.1,0,0.19-0.02,0.29-0.06L10.28,14.12z M17.27,9.39l-2.92,1.35c-0.85-2.13-2.64-4.09-3.72-5.13C13.3,5.62,15.86,7.01,17.27,9.39z    M7.3,6.32c0.5-0.23,1.02-0.4,1.55-0.52C8.86,5.82,8.87,5.84,8.9,5.86c0.03,0.03,3.15,2.68,4.21,5.44l-5.42,2.51   c-1.48-2.59-1.51-6.78-1.51-6.83c0-0.01,0-0.01,0-0.02C6.53,6.72,6.9,6.51,7.3,6.32z M3.3,10.67C3.65,9.7,4.18,8.83,4.87,8.09   c0.1,1.51,0.45,4.24,1.59,6.3l-3.14,1.45C2.7,14.17,2.69,12.36,3.3,10.67z"/><path d="M30.2,27.84c-1.27-0.59-2.77-0.55-4,0.1c-0.86,0.46-1.91,0.48-2.79,0.07l-0.47-0.22c-1.21-0.56-2.59-0.56-3.8,0l-0.62,0.29   c-0.82,0.38-1.76,0.39-2.59,0.03l-0.9-0.4c-1.15-0.51-2.48-0.51-3.63,0l-0.93,0.41c-0.82,0.36-1.75,0.35-2.56-0.01l-0.83-0.37   c-1.15-0.52-2.47-0.53-3.63-0.04c-0.35,0.15-0.51,0.55-0.36,0.9c0.15,0.35,0.55,0.51,0.9,0.36c0.81-0.35,1.73-0.34,2.53,0.03   l0.83,0.37c0.59,0.27,1.22,0.4,1.86,0.4c0.62,0,1.24-0.13,1.81-0.38l0.93-0.41c0.8-0.35,1.72-0.35,2.53,0l0.9,0.4   c1.19,0.52,2.54,0.51,3.72-0.04l0.62-0.29c0.84-0.39,1.81-0.39,2.65,0l0.47,0.22c1.27,0.59,2.76,0.55,4-0.1   c0.86-0.46,1.9-0.48,2.79-0.07c0.34,0.16,0.75,0.01,0.91-0.33C30.69,28.41,30.54,28,30.2,27.84z"/></g><text x="0" y="47" fill="#000000" font-size="5px" font-weight="bold" font-family="'Helvetica Neue', Helvetica, Arial-Unicode, Arial, Sans-serif">Created by yashish</text><text x="0" y="52" fill="#000000" font-size="5px" font-weight="bold" font-family="'Helvetica Neue', Helvetica, Arial-Unicode, Arial, Sans-serif">from the Noun Project</text></svg>