<svg xmlns="http://www.w3.org/2000/svg" data-name="Layer 55" viewBox="0 0 100 125" x="0px" y="0px"><path d="M86.67,22.26a1,1,0,0,0-1.34,0l-4.28,3.87A15.14,15.14,0,0,0,78,30V28.5a15.36,15.36,0,0,0-5-11.37l-4.28-3.87a1,1,0,0,0-1.34,0l-4.28,3.87A15.14,15.14,0,0,0,60,21V19.5A15.36,15.36,0,0,0,55,8.13L50.67,4.26a1,1,0,0,0-1.34,0L45.05,8.13A15.36,15.36,0,0,0,40,19.5V21a15.14,15.14,0,0,0-3-3.82l-4.28-3.87a1,1,0,0,0-1.34,0l-4.28,3.87A15.36,15.36,0,0,0,22,28.5V30A15.14,15.14,0,0,0,19,26.13l-4.28-3.87a1,1,0,0,0-1.34,0L9.05,26.13A15.36,15.36,0,0,0,4,37.5V95a1,1,0,0,0,1,1H95a1,1,0,0,0,1-1V37.5a15.36,15.36,0,0,0-5-11.37ZM17.18,94H10.82V79.54a3.18,3.18,0,1,1,6.36,0ZM22,94H19.18V79.54a5.18,5.18,0,1,0-10.36,0V94H6V70.71H22ZM11.28,68.71V60.6A4.92,4.92,0,0,1,12.9,57L14,56l1.1,1a4.92,4.92,0,0,1,1.62,3.65v8.11Zm10.72,0H18.72V60.6a6.93,6.93,0,0,0-2.28-5.13l-1.77-1.6a1,1,0,0,0-1.34,0l-1.77,1.6A6.93,6.93,0,0,0,9.28,60.6v8.11H6V50.41H22ZM11.28,48.41V40.3a4.92,4.92,0,0,1,1.62-3.65l1.1-1,1.1,1a4.92,4.92,0,0,1,1.62,3.65v8.11Zm10.72,0H18.72V40.3a7,7,0,0,0-2.28-5.14l-1.77-1.6a1,1,0,0,0-1.34,0l-1.77,1.6A7,7,0,0,0,9.28,40.3v8.11H6V37.5a13.37,13.37,0,0,1,4.39-9.89L14,24.35l3.61,3.26A13.37,13.37,0,0,1,22,37.5ZM35.18,94H28.82V79.54a3.18,3.18,0,0,1,6.36,0ZM40,94H37.18V79.54a5.18,5.18,0,0,0-10.36,0V94H24V63.71H40ZM29.28,61.71V53.6a5,5,0,0,1,1.62-3.66L32,49l1.1,1a5,5,0,0,1,1.62,3.66v8.11Zm10.72,0H36.72V53.6a6.93,6.93,0,0,0-2.28-5.14l-1.77-1.6a1,1,0,0,0-1.34,0l-1.77,1.6a6.93,6.93,0,0,0-2.28,5.14v8.11H24V43.4H40ZM29.28,41.4V33.29a4.92,4.92,0,0,1,1.62-3.65l1.1-1,1.1,1a4.92,4.92,0,0,1,1.62,3.65V41.4ZM40,41.4H36.72V33.29a7,7,0,0,0-2.28-5.14l-1.77-1.6a1,1,0,0,0-1.34,0l-1.77,1.6a7,7,0,0,0-2.28,5.14V41.4H24V28.5a13.37,13.37,0,0,1,4.39-9.89L32,15.35l3.61,3.26A13.37,13.37,0,0,1,40,28.5ZM53.18,94H46.82V79.54a3.18,3.18,0,1,1,6.36,0ZM58,94H55.18V79.54a5.18,5.18,0,0,0-10.36,0V94H42V70.71H58ZM47.28,68.71V60.6A4.92,4.92,0,0,1,48.9,57L50,56l1.1,1a4.92,4.92,0,0,1,1.62,3.65v8.11Zm10.72,0H54.72V60.6a6.93,6.93,0,0,0-2.28-5.13l-1.77-1.6a1,1,0,0,0-1.34,0l-1.77,1.6a6.93,6.93,0,0,0-2.28,5.13v8.11H42V50.41H58ZM47.28,48.41V40.3a4.92,4.92,0,0,1,1.62-3.65l1.1-1,1.1,1a4.92,4.92,0,0,1,1.62,3.65v8.11Zm10.72,0H54.72V40.3a7,7,0,0,0-2.28-5.14l-1.77-1.6a1,1,0,0,0-1.34,0l-1.77,1.6a7,7,0,0,0-2.28,5.14v8.11H42V30.11H58ZM47.28,28.11V20a5,5,0,0,1,1.62-3.66l1.1-1,1.1,1A5,5,0,0,1,52.72,20v8.11Zm10.72,0H54.72V20a6.93,6.93,0,0,0-2.28-5.14l-1.77-1.6a1,1,0,0,0-1.34,0l-1.77,1.6A6.93,6.93,0,0,0,45.28,20v8.11H42V19.5a13.37,13.37,0,0,1,4.39-9.89L50,6.35l3.61,3.26A13.37,13.37,0,0,1,58,19.5ZM71.18,94H64.82V79.54a3.18,3.18,0,0,1,6.36,0ZM76,94H73.18V79.54a5.18,5.18,0,0,0-10.36,0V94H60V63.71H76ZM65.28,61.71V53.6a5,5,0,0,1,1.62-3.66L68,49l1.1,1a5,5,0,0,1,1.62,3.66v8.11Zm10.72,0H72.72V53.6a6.93,6.93,0,0,0-2.28-5.14l-1.77-1.6a1,1,0,0,0-1.34,0l-1.77,1.6a6.93,6.93,0,0,0-2.28,5.14v8.11H60V43.4H76ZM65.28,41.4V33.29a4.92,4.92,0,0,1,1.62-3.65l1.1-1,1.1,1a4.92,4.92,0,0,1,1.62,3.65V41.4ZM76,37.5v3.9H72.72V33.29a7,7,0,0,0-2.28-5.14l-1.77-1.6a1,1,0,0,0-1.34,0l-1.77,1.6a7,7,0,0,0-2.28,5.14V41.4H60V28.5a13.37,13.37,0,0,1,4.39-9.89L68,15.35l3.61,3.26A13.37,13.37,0,0,1,76,28.5ZM89.18,94H82.82V79.54a3.18,3.18,0,0,1,6.36,0ZM94,94H91.18V79.54a5.18,5.18,0,0,0-10.36,0V94H78V70.71H94ZM83.28,68.71V60.6A4.92,4.92,0,0,1,84.9,57L86,56l1.1,1a4.92,4.92,0,0,1,1.62,3.65v8.11Zm10.72,0H90.72V60.6a6.93,6.93,0,0,0-2.28-5.13l-1.77-1.6a1,1,0,0,0-1.34,0l-1.77,1.6a6.93,6.93,0,0,0-2.28,5.13v8.11H78V50.41H94ZM83.28,48.41V40.3a4.92,4.92,0,0,1,1.62-3.65l1.1-1,1.1,1a4.92,4.92,0,0,1,1.62,3.65v8.11Zm10.72,0H90.72V40.3a7,7,0,0,0-2.28-5.14l-1.77-1.6a1,1,0,0,0-1.34,0l-1.77,1.6a7,7,0,0,0-2.28,5.14v8.11H78V37.5a13.37,13.37,0,0,1,4.39-9.89L86,24.35l3.61,3.26A13.37,13.37,0,0,1,94,37.5Z"/><text x="0" y="115" fill="#000000" font-size="5px" font-weight="bold" font-family="'Helvetica Neue', Helvetica, Arial-Unicode, Arial, Sans-serif">Created by Lars Meiertoberens</text><text x="0" y="120" fill="#000000" font-size="5px" font-weight="bold" font-family="'Helvetica Neue', Helvetica, Arial-Unicode, Arial, Sans-serif">from the Noun Project</text></svg>