<svg xmlns="http://www.w3.org/2000/svg" viewBox="0 0 100 125" x="0px" y="0px"><defs><style>.cls-1{stroke-width:0px;}</style></defs><path class="cls-1" d="m88.02,66.89c-.27-.07-.54.1-.6.37-.48,1.98-3.09,2.02-3.2,2.02h-3.39v-7.75h2.19c.28,0,.5-.22.5-.5s-.22-.5-.5-.5h-5.5v-7.03h1.79c.28,0,.5-.22.5-.5s-.22-.5-.5-.5h-4.27v-6.47h1.75c.28,0,.5-.22.5-.5s-.22-.5-.5-.5h-4.65v-6.2h1.4c.28,0,.5-.22.5-.5s-.22-.5-.5-.5h-3.6v-5.35h1.69c.28,0,.5-.22.5-.5s-.22-.5-.5-.5h-3.65v-4.76h1.96c.28,0,.5-.22.5-.5s-.22-.5-.5-.5h-4.01s.02-.07.02-.11v-4.5h1.77c.28,0,.5-.22.5-.5s-.22-.5-.5-.5h-3.86v-4.2h3.06c1.02,0,3.06-.58,3.51-2.8.05-.27-.12-.53-.39-.59-.27-.06-.53.12-.59.39-.39,1.96-2.44,1.99-2.53,2h-1.3v-2.9h-1.76v2.9h-2.76v-2.9h-1.76v2.9h-2.9v-2.9h-1.76v2.9h-1.09l-3.16-7.03c-.16-.36-.75-.36-.91,0l-3.16,7.03h-1.09v-2.9h-1.76v2.9h-2.9v-2.9h-1.76v2.9h-2.76v-2.9h-1.76v2.9h-1.3c-.09,0-2.14-.04-2.53-2-.05-.27-.31-.45-.59-.39-.27.05-.45.32-.39.59.44,2.21,2.49,2.8,3.51,2.8h3.06v4.2h-3.86c-.28,0-.5.22-.5.5s.22.5.5.5h1.77v4.5s.01.08.02.11h-4.01c-.28,0-.5.22-.5.5s.22.5.5.5h1.96v4.76h-3.65c-.28,0-.5.22-.5.5s.22.5.5.5h1.69v5.35h-3.6c-.28,0-.5.22-.5.5s.22.5.5.5h1.4v6.2h-4.65c-.28,0-.5.22-.5.5s.22.5.5.5h1.75v6.47h-4.27c-.28,0-.5.22-.5.5s.22.5.5.5h1.79v7.03h-5.5c-.28,0-.5.22-.5.5s.22.5.5.5h2.19v7.75h-3.39s-2.71-.02-3.2-2.02c-.07-.27-.33-.43-.6-.37-.27.07-.43.34-.37.6.67,2.75,4.03,2.78,4.17,2.78h.32v20.22h-2.04v1.89h71.87v-1.89h-2.04v-20.22h.32c.14,0,3.5-.03,4.17-2.78.07-.27-.1-.54-.37-.6Zm-8.19,2.38h-12.33l-6.54-3.74c-.08-.04-.16-.07-.25-.07h-4.88l-1.7-3.94h25.7v7.75Zm-26.29,21.22h-7.08v-7.56c0-1.95,1.59-3.54,3.54-3.54s3.54,1.59,3.54,3.54v7.56Zm-3.54-12.1c-2.5,0-4.54,2.04-4.54,4.54v7.56h-4.12v-16.42h17.32v16.42h-4.12v-7.56c0-2.5-2.04-4.54-4.54-4.54Zm-10.76-4.32v16.42h-8.01v-16.42h8.01Zm21.53,0h8.01v16.42h-8.01v-16.42Zm-32.9-1l11.57-6.61h21.15l6.57,3.76s.01,0,.02.01l4.97,2.84H27.86Zm22.14-18.57l4.74,10.96h-9.47l4.74-10.96Zm24.04-2.01h-15.58l-1.71-3.98c-.08-.18-.26-.3-.46-.3h-2.79v-2.19h20.55v6.47Zm-5.09-14.67h-11.99l-1.01-2.14c-.08-.17-.26-.29-.45-.29h-2.34v-2.92h15.79v5.35Zm-3.97-12.11h-8.38l-.74-1.51c-.08-.17-.26-.28-.45-.28h-3.13v-2.82h12.68v4.5s.01.08.02.11Zm-14.98-16.42l2.52,5.6h-5.04l2.52-5.6Zm-12.86,6.6h25.73v4.2h-10.59v-1.56h-4.55v1.56h-10.59v-4.2Zm-2.09,9.7v-4.5h12.68v2.82h-3.13c-.19,0-.37.11-.45.28l-.74,1.51h-8.38s.02-.07.02-.11Zm-2.03,1.11h10.7c.19,0,.37-.11.45-.28l.74-1.51h2.82s4.55,0,4.55,0h0s2.82,0,2.82,0l.74,1.51c.08.17.26.28.45.28h10.7v4.76h-13.83v-3.92h-6.31v3.92h-13.83v-4.76Zm-1.96,5.76h15.79v2.92h-2.34c-.19,0-.37.11-.45.29l-1.01,2.14h-11.99v-5.35Zm-2.19,6.35h14.51c.19,0,.37-.11.45-.29l1.01-2.14h2.02s6.31,0,6.31,0h0s2.02,0,2.02,0l1.01,2.14c.08.17.26.29.45.29h14.51v6.2h-17.65v-5.6h-6.98v5.6h-17.65v-6.2Zm-2.9,7.2h20.55v2.19h-2.79c-.2,0-.38.12-.46.3l-1.71,3.98h-15.58v-6.47Zm-2.48,7.47h18.39c.2,0,.38-.12.46-.3l1.71-3.98h2.46s6.98.01,6.98.01h0s2.46-.01,2.46-.01l1.71,3.98c.08.18.26.3.46.3h18.39v7.03h-22.69s-.08.01-.13.03l-3.24-7.5c-.16-.37-.76-.37-.92,0l-3.24,7.5s-.08-.03-.13-.03h-22.69v-7.03Zm-3.31,8.03h25.7l-1.7,3.94h-4.87c-.09,0-.17.02-.25.07l-6.54,3.74h-12.33v-7.75Zm-3.07,8.75h13.66l-5.02,2.87c-.2.11-.29.34-.24.56.06.22.26.37.48.37h3.13v16.42h-12.01v-20.22Zm65.8,20.22h-12.01v-16.42h3.13c.23,0,.42-.15.48-.37.06-.22-.04-.45-.24-.56l-5.02-2.87h13.65v20.22Z"/><text x="0" y="115" fill="#000000" font-size="5px" font-weight="bold" font-family="'Helvetica Neue', Helvetica, Arial-Unicode, Arial, Sans-serif">Created by Kalaakarini</text><text x="0" y="120" fill="#000000" font-size="5px" font-weight="bold" font-family="'Helvetica Neue', Helvetica, Arial-Unicode, Arial, Sans-serif">from the Noun Project</text></svg>