<svg xmlns="http://www.w3.org/2000/svg" xmlns:xlink="http://www.w3.org/1999/xlink" version="1.1" x="0px" y="0px" viewBox="0 0 64 80" style="enable-background:new 0 0 64 64;" xml:space="preserve"><path d="M29,16h9c0.6,0,1-0.4,1-1s-0.4-1-1-1c-1.7,0-3-1.3-3-3c0-0.6-0.4-1-1-1h-1c-0.6,0-1,0.4-1,1c0,1.7-1.3,3-3,3  c-0.6,0-1,0.4-1,1S28.4,16,29,16z"/><path d="M27.5,28h9c0.3,0,0.5-0.2,0.5-0.5v-1c0-0.3-0.2-0.5-0.5-0.5h-1c-1.4,0-2.5-1.1-2.5-2.5c0-0.3-0.2-0.5-0.5-0.5h-1  c-0.3,0-0.5,0.2-0.5,0.5c0,1.4-1.1,2.5-2.5,2.5h-1c-0.3,0-0.5,0.2-0.5,0.5v1C27,27.8,27.2,28,27.5,28z"/><polygon points="23,40.4 22.6,40 20,40 20,50 23,50 "/><polygon points="22,32.4 21.6,32 19,32 19,38 22,38 "/><polygon points="17,30 20.8,30 20.1,25.5 19.6,25 17,25 "/><polygon points="15,19 14.4,19 13.9,19.5 13.2,23 15,23 "/><polygon points="16.6,32 15.4,32 15,32.4 15,38 17,38 17,32.4 "/><polygon points="14,40.4 14,50 18,50 18,40.4 17.6,40 14.4,40 "/><polygon points="17,23 18.8,23 18.1,19.5 17.6,19 17,19 "/><path d="M15.2,13.8L15,17h2l-0.2-3.2c0.7-0.4,0.9-1.4,0.4-2.1c-0.1-0.2-0.3-0.4-0.6-0.5L16.2,3h-0.5l-0.4,8.2c-0.7,0.4-1,1.3-0.7,2  C14.8,13.4,15,13.6,15.2,13.8L15.2,13.8z"/><polygon points="11.2,30 15,30 15,25 12.4,25 11.9,25.5 "/><polygon points="10,32.4 10,38 13,38 13,32 10.4,32 "/><polygon points="9,40.4 9,50 12,50 12,40 9.4,40 "/><polygon points="8,52.4 8,62 11,62 11,52 8.4,52 "/><polygon points="13.4,52 13,52.4 13,62 19,62 19,52.4 18.6,52 "/><polygon points="49,23 50.8,23 50.1,19.5 49.6,19 49,19 "/><polygon points="52.1,25.5 51.6,25 49,25 49,30 52.8,30 "/><polygon points="54,32.4 53.6,32 51,32 51,38 54,38 "/><polygon points="48.6,32 47.4,32 47,32.4 47,38 49,38 49,32.4 "/><polygon points="46,40.4 46,50 50,50 50,40.4 49.6,40 46.4,40 "/><path d="M47.2,13.8L47,17h2l-0.2-3.2c0.7-0.4,0.9-1.4,0.4-2.1c-0.1-0.2-0.3-0.4-0.6-0.5L48.2,3h-0.5l-0.4,8.2c-0.7,0.4-1,1.3-0.7,2  C46.8,13.4,47,13.6,47.2,13.8L47.2,13.8z"/><polygon points="47,19 46.4,19 45.9,19.5 45.2,23 47,23 "/><polygon points="47,25 44.4,25 43.9,25.5 43.2,30 47,30 "/><polygon points="45,32 42.4,32 42,32.4 42,38 45,38 "/><polygon points="41,40.4 41,50 44,50 44,40 41.4,40 "/><polygon points="40,52.4 40,54 24,54 24,52.4 23.6,52 21,52 21,62 24,62 24,56 26,56 26,62 31,56 33,56 38,62 38,56 40,56 40,62   43,62 43,52 40.4,52 "/><polygon points="45.4,52 45,52.4 45,62 51,62 51,52.4 50.6,52 "/><polygon points="53,52 53,62 56,62 56,52.4 55.6,52 "/><polygon points="55,40.4 54.6,40 52,40 52,50 55,50 "/><path d="M61.5,17h-1c-1.4,0-2.5-1.1-2.5-2.5c0-0.3-0.2-0.5-0.5-0.5h-1c-0.3,0-0.5,0.2-0.5,0.5c0,1.4-1.1,2.5-2.5,2.5h-1  c-0.3,0-0.5,0.2-0.5,0.5v1c0,0.3,0.2,0.5,0.5,0.5h9c0.3,0,0.5-0.2,0.5-0.5v-1C62,17.2,61.8,17,61.5,17z"/><path d="M12,18.5v-1c0-0.3-0.2-0.5-0.5-0.5h-1C9.1,17,8,15.9,8,14.5C8,14.2,7.8,14,7.5,14h-1C6.2,14,6,14.2,6,14.5  C6,15.9,4.9,17,3.5,17h-1C2.2,17,2,17.2,2,17.5v1C2,18.8,2.2,19,2.5,19h9C11.8,19,12,18.8,12,18.5z"/><text x="0" y="79" fill="#000000" font-size="5px" font-weight="bold" font-family="'Helvetica Neue', Helvetica, Arial-Unicode, Arial, Sans-serif">Created by WiStudio</text><text x="0" y="84" fill="#000000" font-size="5px" font-weight="bold" font-family="'Helvetica Neue', Helvetica, Arial-Unicode, Arial, Sans-serif">from the Noun Project</text></svg>