<svg xmlns="http://www.w3.org/2000/svg" data-name="Слой 1" viewBox="0 0 100 125" x="0px" y="0px"><title>maldivs</title><g><path d="M71.46728,56.71561a1.112,1.112,0,0,0,.60763-1.05873c0.12369-.8063.33337-1.62647,0.52849-2.43531a3.76067,3.76067,0,0,1,.51444-1.89c0.17848-.20305-0.21369-0.7141-0.61359-0.81732-0.35806-.09242-0.37027.22633-0.43977,0.43755-0.10359.31481-.16972,0.64177-0.26719,0.95882a3.43013,3.43013,0,0,1-.77312,1.50862,3.07633,3.07633,0,0,0-.56567,1.02305,0.58775,0.58775,0,0,1-.59828.46406,0.66158,0.66158,0,0,1-.47589-0.69818,6.11446,6.11446,0,0,0-.101-1.17075,10.269,10.269,0,0,0-.41713-2.12,1.59077,1.59077,0,0,1,.04588-0.97662c0.04977-.21626.45507-0.28859,0.237-0.60269a0.88283,0.88283,0,0,1-.52926-0.38718c0.47008,0.21585.6659,0.02258,0.81149-.38883,0.22094-.62428.53627-1.21445,0.78372-1.83027,0.18919-.47081.08494-0.64984-0.41656-0.57024a8.486,8.486,0,0,1-2.34219.06584c0.7969-.078,1.59338-0.20986,2.39085-0.21619a1.40346,1.40346,0,0,0,1.27513-.68,4.64675,4.64675,0,0,1,2.65861-2.06533c1.28418-.3378,2.57335-0.735,3.8486.06812a0.81339,0.81339,0,0,0,1.09128-.22529,0.28378,0.28378,0,0,0-.05394-0.095c-0.38677-.21364-0.74143.19911-1.133,0.05408-0.35315-.1308-0.47061-0.64677-0.967-0.5536a0.38954,0.38954,0,0,1-.36787-0.3448c-0.16771-.4107-0.44761-0.30822-0.74293-0.19026-0.44325.177-.86043,0.67384-1.3718,0.11182a0.31435,0.31435,0,0,0-.244.06451,1.12254,1.12254,0,0,1-1.30274.31217,0.51462,0.51462,0,0,0-.41581.30543c-0.14026.15786-.26418,0.33026-0.39468,0.49673-0.50675.64649-.50666,0.64656-1.21818,0.19173-0.37456.42233-.74625,0.85375-1.13157,1.27264-0.45023.48948-.65234,0.48249-1.00354-0.08946a0.76346,0.76346,0,0,0-.48667-0.345,4.00184,4.00184,0,0,0-1.8797-.00174,39.484,39.484,0,0,1-5.33848.18218c-0.24151.00406-.48359,0.00357-0.72418,0.02157a0.26021,0.26021,0,0,0-.2377.23556,0.24075,0.24075,0,0,0,.20028.26131,2.81623,2.81623,0,0,1,.52392.13264,0.57143,0.57143,0,0,1,.37937.72957c-0.3979,1.068-.055,2.152-0.09479,3.226-0.0319.862-.0949,1.05284-0.94634,1.2379a6.28883,6.28883,0,0,1-.80232.13519c-0.81.06833-.82279,0.061-0.881,0.84275a2.69446,2.69446,0,0,0,.31952,1.82176,0.3495,0.3495,0,0,1,.076.1609,0.64746,0.64746,0,0,1-.4266.63431,1.621,1.621,0,0,1-1.31975.39915,0.70546,0.70546,0,0,1-.33954-0.932,8.21466,8.21466,0,0,0,.17574-2.33688c0.01344-.72637-0.08178-0.78283-0.78891-0.75142a13.19638,13.19638,0,0,1-1.77073-.08232,4.25176,4.25176,0,0,0,.20394,2.29692,0.82789,0.82789,0,0,1-.07308.76046c-0.13892.32075-.38058,0.19173-0.61155,0.18962a2.05408,2.05408,0,0,0-.42963.11853,0.3243,0.3243,0,0,1-.42965-0.213,2.32035,2.32035,0,0,1-.28955-1.03594,4.5,4.5,0,0,0,.04608-0.63122,2.95306,2.95306,0,0,0-.156-1.23993c-0.253-.43045-0.7767-0.08277-1.17982-0.11364-0.47989-.03673-0.96362-0.035-1.4455-0.03036-0.38854.00376-.49155,0.19347-0.24764,0.50239a1.39743,1.39743,0,0,1,.41762.77739,0.36649,0.36649,0,0,0,.45448.32532,2.82962,2.82962,0,0,1,.54189.037,0.72164,0.72164,0,0,1,.64264.95078c-0.05064.36843-.0477,0.61453,0.41923,0.72774a0.8901,0.8901,0,0,1,.80152,1.328,0.90617,0.90617,0,0,0,.18932.88131c0.35675,0.52138.6666,1.07433,1.05119,1.58217,0.36108,0.47681.66937,0.99359,1.046,1.56074a1.5252,1.5252,0,0,1,.25523-0.32589c0.47364-.30853.74919-0.24517,0.86637,0.28478a5.68649,5.68649,0,0,1,.2,1.87606,1.3522,1.3522,0,0,0,.15014.87612c0.94153,1.57666,1.67921,3.26249,2.61658,4.84309,0.44471,0.74984.83639,1.532,1.33674,2.24929a0.52654,0.52654,0,0,0,.38119.35485,0.41566,0.41566,0,0,0,.14414-0.462,0.44951,0.44951,0,0,1,.89694.06085c-0.0126.48681,0.13609,0.968,0.10913,1.43853a3.74283,3.74283,0,0,0,.76583,2.17295c0.95528,1.60579,1.89224,3.22248,2.83453,4.836a1.89208,1.89208,0,0,1,.19926.40628,0.40625,0.40625,0,0,1-.43188.5881,2.82534,2.82534,0,0,1-.62112-0.06612,27.07067,27.07067,0,0,0-4.22992-.30835,35.16267,35.16267,0,0,0-5.32324.12766c-1.98671.18736-3.97854,0.10038-5.96791,0.12469a22.598,22.598,0,0,1-2.34054.14563,27.39066,27.39066,0,0,0-3.3426.04727c-1.26909.03215-2.53849-.09012-3.80626,0.03814a78.27218,78.27218,0,0,1-8.06139.14543,16.02615,16.02615,0,0,0-1.98372.119c-0.59688.073-.78925-0.18679-0.74777-0.76633,0.07606-1.06263.85329-1.767,1.28536-2.64351,0.59885-1.21482,1.30983-2.37443,1.97409-3.55694a2.41466,2.41466,0,0,0,.25549-1.315c-0.01981-.5438-0.00138-1.08907-0.02439-1.63267a0.68062,0.68062,0,0,1,.50839-0.75583c0.39032-.122.41441,0.24675,0.55559,0.454a0.33294,0.33294,0,0,0,.32951.20586c0.4409-.87409.93735-1.75794,1.33669-2.68369,0.288-.66759.64111-1.29865,0.9467-1.95487,0.13662-.29339.07481-0.50256-0.26108-0.483-1.44632.08423-2.85543-.38859-4.32941-0.16386a22.741,22.741,0,0,0-3.45577.64429c-0.77954.24524-1.08675,0.02936-1.23267-.81734a0.41323,0.41323,0,0,0-.55455-0.40115,4.80235,4.80235,0,0,0-1.0647.20914,39.04961,39.04961,0,0,1-3.91707,1.1178,1.05649,1.05649,0,0,1-1.189-.03044A1.00843,1.00843,0,0,1,20.183,62.74a0.74045,0.74045,0,0,0,.04075-0.22529,9.57692,9.57692,0,0,0-2.76089.26141c-0.97779.158-1.925,0.49667-2.89441,0.7175a6.53124,6.53124,0,0,1-2.84267.28294c-0.85806-.18009-0.95015-0.35513-0.50409-1.12968,0.04384-.07613.09277-0.14934,0.16482-0.26471A0.72361,0.72361,0,0,0,10.711,62.356c-0.69288.2127-1.37965,0.44534-2.07292,0.65673-0.189.05764-.4367,0.17507-0.54825-0.09429a0.33819,0.33819,0,0,1,.25994-0.41826,9.23528,9.23528,0,0,1,3.0885-.96737c1.00279-.02144,1.28994.33864,0.99029,1.32116a10.24358,10.24358,0,0,0,2.76163-.46906c1.50859-.324,3.03489-0.49493,4.55536-0.72331a5.41338,5.41338,0,0,1,2.26163.52049,0.28723,0.28723,0,0,1,.1852.17773c-0.12192.815,0.36366,0.43346,0.65742,0.32036,1.04618-.40277,2.151-0.59364,3.21667-0.92055a2.465,2.465,0,0,1,2.22776.71021,1.42424,1.42424,0,0,0,1.2398.2352c0.94689-.1731,1.90784-0.28644,2.86781-0.3667a14.67374,14.67374,0,0,1,3.67813.41347c0.49423,0.08389.72642-.0328,0.67593-0.51287-0.08925-.84867.07025-1.6934-0.01729-2.53408a0.6195,0.6195,0,0,1,.514-0.70578c0.42339-.18887.519,0.10268,0.6771,0.35062a7.54651,7.54651,0,0,0,.8235-1.90876,8.94958,8.94958,0,0,1,1.39932-2.59277,0.9909,0.9909,0,0,0,.16975-0.75389c-0.04909-.29355-0.21206-0.40611-0.5186-0.24517-0.2137.11218-.40005,0.44426-0.7041,0.1647a0.9936,0.9936,0,0,1-.28471-0.80215,11.37428,11.37428,0,0,0-.2638-2.5055,0.46233,0.46233,0,0,0-.43745-0.44c-0.75018-.14652-1.50815-0.0462-2.25689-0.14568-0.40992-.05446-0.4938.23444-0.53484,0.56562a8.51485,8.51485,0,0,0,.17915,2.60524c0.15835,0.8589.10983,0.95444-.74924,1.19683-0.116.03274-.2275,0.08232-0.34422,0.11164-0.54106.13593-.85085-0.06706-0.76886-0.6316a15.24987,15.24987,0,0,0-.00245-1.8908,3.8864,3.8864,0,0,0-.12772-1.24753c-0.214-.71262-0.1753-0.72423-0.93449-0.72162-0.88508.003-1.02334-.13462-1.07369-1.01485-0.06862-1.19958-.14008-2.39917-0.229-3.59736-0.02842-.38309.059-0.56583,0.48848-0.50276a5.77211,5.77211,0,0,0,.90563.01635,0.17525,0.17525,0,0,0,.20349-0.12783,0.22635,0.22635,0,0,0-.16566-0.28047,8.65542,8.65542,0,0,0-.99008-0.05612,1.48787,1.48787,0,0,1-.61257.02235,4.0118,4.0118,0,0,0-2.20876-.2725c-0.69348-.02776-1.38806-0.06476-2.07792-0.13778-1.21356-.12845-2.40968.146-3.61679,0.12477-2.08514-.0366-4.17008-0.08407-6.2552-0.12231-1.26905-.02329-2.52206.26538-3.79647,0.18758-0.60178-.03673-1.208.00351-1.81219-0.0005-0.17936-.0012-0.36586-0.01141-0.36525-0.27876a0.28955,0.28955,0,0,1,.3399-0.316,4.30541,4.30541,0,0,0,.45323-0.016c3.63825-.504,7.29519-0.22666,10.94455-0.29717,2.62941-.05079,5.25712.02492,7.88484-0.0395a1.58013,1.58013,0,0,1,.87114.19543,1.34839,1.34839,0,0,0,.49037.21675c0.78954,0.11839.98465-.01615,0.99584-0.82394,0.01962-1.41708.00164-2.83463,0.01379-4.25186a6.56548,6.56548,0,0,0-.21761-1.43094,0.64346,0.64346,0,0,1,.30032-0.76767c0.083-.05256.07615-0.14448,0.23339-0.01111a0.52033,0.52033,0,0,0,.88106-0.40459,6.71444,6.71444,0,0,1,.31356-2.0811c0.37127,0.09607.14781,0.45491,0.359,0.60388,0.448-.1448.26192-0.7786,0.75181-0.9692a8.59087,8.59087,0,0,1-.34676,1.80393c-0.03692.25446-.32559-0.07749-0.43892,0.11607a2.46062,2.46062,0,0,0-.42171,1.08427c-0.02179.32481,0.10369,0.78712-.529,0.69472-0.20083-.02932-0.16114.2099-0.16129,0.34693-0.0012,1.05615.00608,2.11054,0.06465,3.16742,0.04972,0.89733-.06113,1.80349-0.09964,2.7058-0.0627,1.46905-.06414,1.44647,1.37151,1.32724a0.44865,0.44865,0,0,0,.47739-0.57673c-0.01725-.63348-0.0229-1.26916-0.041-1.90046-0.02522-.8774.0513-1.75146,0.00827-2.628-0.03684-.75055.11256-0.89291,0.88192-0.89949,0.754-.00644,1.50456.02582,2.2598,0.09445,1.10992,0.10085,2.23255.08263,3.34966,0.07922,2.62622-.008,5.25705.05017,7.87686-0.08978a48.34082,48.34082,0,0,1,4.95527.01808,2.096,2.096,0,0,1,.70856.12017,0.63058,0.63058,0,0,1,.47688.59447c-0.1323,1.56256.07552,3.12118,0.03318,4.68131-0.01094.40292,0.06017,0.63481,0.52847,0.61458a6.044,6.044,0,0,1,1.70913.148c0.50136,0.12214.63665-.02608,0.64333-0.55884,0.01974-1.573-.15831-3.13475-0.25354-4.70094a7.4822,7.4822,0,0,0-1.229-2.953c-0.04937-.09864-0.149-0.07207-0.25668-0.03157-0.1325.34665,0.35158,0.53917,0.24705,0.88291a0.60792,0.60792,0,0,1-.38371-0.36816,0.23772,0.23772,0,0,0-.29337-0.06625c-0.64818.221-.65385,0.20073-0.74854-0.40742a1.83078,1.83078,0,0,0-.07925-0.34805,1.22436,1.22436,0,0,0-.14429-0.22781c-0.24038.09385-.13284,0.3022-0.16345,0.4608a0.20943,0.20943,0,0,1-.122.20687,0.61153,0.61153,0,0,0-.44946.46275c-0.2828-.39877-0.30726-0.40531-0.24671-0.63148a2.40355,2.40355,0,0,0,.11082-0.89224l-0.02334.0235a1.52293,1.52293,0,0,0,.4915.24847l-0.26924-2.01694c0.29475-.14165.31122,0.10562,0.41668,0.22909a0.40414,0.40414,0,0,0,.21177.14213c0.7961-.56059.61346,0.29815,0.82885,0.56961a0.79492,0.79492,0,0,0,.06564.16249c0.958,0.38655.94363,1.43559,1.45529,2.124,0.05243,0.07052.11653,0.13236,0.2314,0.26132,0.0697-1.1224-.8915-1.85984-0.91265-2.9531,0.41643,0.15386.28279,0.60732,0.58365,0.82205,0.23395-.4228-0.19246-0.75945-0.05067-1.27922,0.72914,0.8627.74046,2.01652,1.5987,2.69112a1.4895,1.4895,0,0,0,.1056-0.86436l-0.0177.01486c0.35173,0.08595.21773,0.6384,0.67671,0.66488A8.34857,8.34857,0,0,0,59.60044,35.12a0.45749,0.45749,0,0,1,.48929.36367c0.22334,0.35777.43732,0.72136,0.65918,1.08006a0.33059,0.33059,0,0,0,.51135.16822c0.25623-.15105.0764-0.28616,0.02933-0.44522a0.68485,0.68485,0,0,1-.19725-0.56851,0.95589,0.95589,0,0,1,.52647.65807,1.01014,1.01014,0,0,0,.54831.6323,3.55657,3.55657,0,0,0-.84555-1.61276c-1.09595-1.09683-2.20909-2.17649-3.39193-3.33826,0.14773,0.719.58991,1.23633,0.7151,1.88715-0.46662-.52691-1.24212-0.48543-1.70061-1.13195-0.15993.55747,0.47465,0.81956,0.22412,1.299a3.99243,3.99243,0,0,0-.81663-0.902c-0.11022-.04523-0.11931-0.17118-0.04536-0.305a0.66359,0.66359,0,0,0-.24913-0.77524l-0.00071.002a0.71483,0.71483,0,0,1,.93036.19716,1.20717,1.20717,0,0,0,.67617.5514,0.91526,0.91526,0,0,1-.1707-1.09856c0.10347-.12713-0.01967-0.23217-0.09314-0.30937A23.05379,23.05379,0,0,0,55.192,29.23546a0.61028,0.61028,0,0,0-.2184-0.15226c-0.269-.05061-0.37245.45094-0.74687,0.20271-0.16876-.11191-0.35939-0.46114-0.68292-0.134-0.16274.16457-.29994-0.06672-0.4414-0.168-0.65886-.47157-1.12781-1.129-1.81322-1.736,0.57633-.09828.626,0.51349,1.03776,0.54054-0.012-.14789-0.02145-0.26415-0.02984-0.3797,0.51384,0.14621.42593,0.81085,0.95127,0.97187-0.615-.41819-0.09377-1.43972-0.98268-1.75572-0.1513.32359,0.23277,0.53781,0.0604,0.81089a0.37582,0.37582,0,0,1-.14262-0.09871A3.56809,3.56809,0,0,0,50.226,25.547a16.42414,16.42414,0,0,0,.66727,2.26329l0.01881-.01579a0.72162,0.72162,0,0,0-.14753.74939c0.109,0.50756.05514,0.549-.38222,0.35773-0.30636-.134-0.56025-0.24672-0.6584.21461a0.18242,0.18242,0,0,1-.12618.11176,2.06394,2.06394,0,0,1-1.07284-.38474,8.252,8.252,0,0,1-.71137-1.54,0.34591,0.34591,0,0,1,.056-0.33614c0.39853,0.04365.18505,0.54743,0.50037,0.67589,0.261-.18533-0.11868-0.4471.13452-0.68676,0.43117,0.56984.30917,1.42216,0.96165,1.97835,0.20529-.871-0.30379-1.53008-0.35607-2.2829,1.1364,0.043.67817,1.29447,1.52839,1.80993a11.3151,11.3151,0,0,0-.9085-2.94455c-0.26847.53661-.80867,0.02768-1.15158,0.40679-0.10893.12044-.3494-0.04114-0.47892-0.16071a8.08387,8.08387,0,0,1-.546-0.62308,3.58316,3.58316,0,0,0,.68873.408,0.3123,0.3123,0,0,0,.07372-0.12986,2.58619,2.58619,0,0,0-1.46344-1.67559c0.2328,0.63531-.03434,1.22774.30558,1.76686-0.46554.03927-.88885,0.13147-0.86193-0.47646-0.43029.046-.08516,0.48479-0.41013,0.53761-0.26982-.22439.06245-0.66081-0.28319-0.87754-0.30837.21591-.0127,0.66313-0.3848,0.87334-0.36548-.2422.2646-0.64175-0.20732-0.87756-0.34031.14167-.33251,0.77647-0.841,0.8482-0.19865-.32524.293-0.44817,0.18761-0.73484a0.15088,0.15088,0,0,0-.22425-0.00362,2.0636,2.0636,0,0,1-1.11307.558,1.35986,1.35986,0,0,0-.9762.83239,0.2791,0.2791,0,0,0,.04411.39945,0.23033,0.23033,0,0,0,.38214-0.02743,0.50953,0.50953,0,0,1,.43238-0.26942,10.55121,10.55121,0,0,1-.82362,2.1294,0.631,0.631,0,0,1,.14367-0.729c0.07088-.15173.11071-0.29691-0.07411-0.37437a0.26005,0.26005,0,0,0-.36066.17223,6.62358,6.62358,0,0,1-.5737,1.12872,0.35369,0.35369,0,0,1-.457.14663l0.00477-.00078a6.73155,6.73155,0,0,0,.922-1.61074,0.64885,0.64885,0,0,0-.56556.31028,1.03326,1.03326,0,0,1-.97291.62225c-0.31416-.04965-0.36233.52209-0.781,0.63871,0.2596-1.00133,1.38564-1.44193,1.51384-2.56616a2.68473,2.68473,0,0,0-1.23393,1.02373,7.39576,7.39576,0,0,0-1.07582,1.21788c-0.44191-.30443-0.07919-0.65621-0.06627-0.98787a4.82014,4.82014,0,0,0-2.10409,1.0102,0.9991,0.9991,0,0,0-.3225,1.17026c0.33457,0.06342.23781-.52138,0.6466-0.38409a12.12227,12.12227,0,0,1-.35419,1.602,0.39546,0.39546,0,0,0,.4935-0.32729,2.92784,2.92784,0,0,1,.59043-0.79531c0.23056-.22579.4332-0.68741,0.80438-0.10606a1.10759,1.10759,0,0,0,.52.07159,0.50439,0.50439,0,0,1,.45428.80357c-0.145.33024-.32808,0.64378-0.52147,1.01751-0.22078-.1531-0.44961-0.58658-0.69553-0.03573a1.77742,1.77742,0,0,0-.42918,1.1486,0.64032,0.64032,0,0,1-.46445.70588,3.04278,3.04278,0,0,0,.15081-1.53276c-0.05246-.51.54016-0.88948,0.27124-1.52727a6.05558,6.05558,0,0,0-1.48669,2.48119,0.83593,0.83593,0,0,1-.09656-1.09516c0.04778-.13387.09461-0.30733-0.12939-0.35006a0.258,0.258,0,0,0-.282.17317,0.94557,0.94557,0,0,1-.45079.721c-0.1922-.45625.22951-0.9-0.075-1.36549-0.71241.34311-.60617,1.40256-1.46921,1.64672a0.51359,0.51359,0,0,1,.133-0.69754c0.1085-.09625.28143-0.11947,0.391-0.215a1.11383,1.11383,0,0,0,.27218-1.06875c-0.38477-.20222-0.59189.15226-0.83011,0.35093a9.34246,9.34246,0,0,0-.72239.688c-0.25807.26686-.65717,0.45658-0.43471,0.97309a0.67864,0.67864,0,0,1-.23775.56543c-0.10039.12514-.35576,0.16538-0.19078,0.41048a1.63668,1.63668,0,0,0,.52677.0724,7.10349,7.10349,0,0,0-.42574,1.69468c0.28085,0.03119.28185-.19415,0.37884-0.32446,0.2775-.37281.36763-0.96117,1.05012-0.873a0.42928,0.42928,0,0,0,.2711-0.33316,0.83421,0.83421,0,0,1,.34595-0.51076A3.97061,3.97061,0,0,1,33.56,35.0315a1.63732,1.63732,0,0,1-.07519-0.16051c-0.03742-.10705.00493-0.26847-0.14786-0.29775a0.21181,0.21181,0,0,0-.24562.20322c-0.11813.75654-.65409,1.35976-0.76976,2.12118a0.46188,0.46188,0,0,1-.39211.42578,0.81334,0.81334,0,0,1,.14-0.76293c0.027-.15977.18559-0.37067-0.13166-0.39223a0.26316,0.26316,0,0,0-.3025.34129,0.83516,0.83516,0,0,1-.18034.76085,0.34153,0.34153,0,0,1-.34089.15883c-0.12482-.6567.61-1.17627,0.34679-1.91909-0.72335.40907-.1169,1.44854-0.92993,1.82894-0.16707-.65124.37126-1.10979,0.32436-1.844-0.87777.73621-.63637,1.87829-1.32224,2.66488a18.06606,18.06606,0,0,1,.20471-1.82257,8.57924,8.57924,0,0,0-.98253,1.73708,0.6521,0.6521,0,0,1-.17293-0.1654,7.69792,7.69792,0,0,1,1.14607-3.37482,1.85743,1.85743,0,0,0,.306-0.4427,11.42724,11.42724,0,0,1,3.84116-4.491c0.16455-.13262.34566-0.24665,0.4995-0.39028a59.4025,59.4025,0,0,1,4.98308-3.89056,14.36418,14.36418,0,0,1,4.34067-2.21273,6.1435,6.1435,0,0,1,5.29549.74965c1.22214,0.78072,2.5,1.44954,3.74449,2.18a4.51427,4.51427,0,0,1,1.851,1.51885,1.63734,1.63734,0,0,0,.35342.412c1.49751,1.30842,2.816,2.79852,4.23712,4.18465,1.43954,1.40407,3.0037,2.7258,3.826,4.64674,0.07119,0.16631.17031,0.32158,0.2317,0.491,0.075,0.207-.05588.45342-0.2131,0.41031-0.82476-.22621-0.38231.493-0.56451,0.748a3.61111,3.61111,0,0,0-.64428-0.624c-0.38869.14012,0.1317,0.50417-.18406,0.68623-0.35083-.24491-0.27038-0.77217-0.62478-1.02355-0.30029.18161,0.20713,0.33305-.03647,0.56023a8.45038,8.45038,0,0,0-.9437-0.03343,2.42479,2.42479,0,0,1-.88274-0.69308c0.05158,0.41693.12682,0.809,0.14421,1.20361,0.07036,1.597.29361,3.17775,0.4673,4.76413a0.44209,0.44209,0,0,0,.522.46356,42.54125,42.54125,0,0,0,5.88307-.19421,3.59949,3.59949,0,0,1,1.962.08547c0.2711,0.11295.44608,0.08724,0.51818-.25566,0.54578-2.59554,2.45338-3.80858,4.74341-4.597a2.81969,2.81969,0,0,1,2.41868.408,6.89475,6.89475,0,0,1,1.32963.9258,1.262,1.262,0,0,0,1.03664.39123,9.6933,9.6933,0,0,1-.95355-1.59864c-0.25337-.8489-0.16564-1.00144.72447-0.92175-0.00834-.18021-0.01142-0.35893-0.02594-0.53672-0.02787-.34148-0.22144-0.75973.39089-0.7856a0.18778,0.18778,0,0,0,.14463-0.09335c0.1083-.8259.94893-1.00311,1.37656-1.547a0.58826,0.58826,0,0,1,.692-0.31058,0.61565,0.61565,0,0,1,.31209.76752c-0.03149.17805-.03185,0.36195-0.06773,0.53884-0.07452.36754-.10412,0.65771,0.43829,0.62294a0.3809,0.3809,0,0,1,.38266.50186,0.761,0.761,0,0,0,.51226.82088c0.43016,0.30331.64589,0.02694,0.951-.15676a2.45589,2.45589,0,0,1,1.12867-.53546c0.76593,0.03423,1.54386-.10856,2.27219-0.00375a5.139,5.139,0,0,0,1.58209-.02183,1.48889,1.48889,0,0,1,.88878-0.00548,0.525,0.525,0,0,1,.41482.30657c-0.06487.69087,0.4625,0.72556,0.89238,0.89055a0.46653,0.46653,0,0,1,.282.20466c0.07631,0.781.76051,0.74143,1.25458,0.94167a0.77152,0.77152,0,0,1,.64668.757,0.50217,0.50217,0,0,0,.42973.504,1.00968,1.00968,0,0,1,.63143.48457,2.396,2.396,0,0,0,.867,1.50194,5.716,5.716,0,0,1,1.20444,1.454,4.22079,4.22079,0,0,1,.30777.44745,0.392,0.392,0,0,1-.08412.5635,0.39869,0.39869,0,0,1-.57015-0.03026q-0.53561-.48934-1.07026-0.97972c-0.13119-.12034-0.26677-0.30506-0.45866-0.16067a1.23749,1.23749,0,0,1-1.425-.17084c-0.41729-.18446-0.739-0.65447-1.30391-0.36926A0.42467,0.42467,0,0,1,90.564,43.387c-0.3404-.29886-0.688-0.58967-1.03679-0.87877a0.41651,0.41651,0,0,0-.47291-0.1802c-0.59133.36729-.88105-0.08727-1.22435-0.41236a1.27189,1.27189,0,0,0-.504-0.37648c-0.21678.20957,0.01581,0.30812,0.11073,0.42575,0.22463,0.27835.68089,0.46925,0.20918,0.939-0.153.15232,0.1023,0.27312,0.26377,0.36626a8.87984,8.87984,0,0,1,2.681,2.10965,9.68035,9.68035,0,0,1,2.13469,4.231,1.87568,1.87568,0,0,0,.40653,1.26468c0.18118,0.1608.359,0.398,0.083,0.6089a0.58062,0.58062,0,0,1-.821-0.02648,1.80241,1.80241,0,0,1-.24962-0.376A0.562,0.562,0,0,0,91.572,50.721a0.67891,0.67891,0,0,1-.80312-0.5444,4.18517,4.18517,0,0,0-.47294-0.77089,0.34829,0.34829,0,0,0-.5161-0.18372,0.5416,0.5416,0,0,1-.84394-0.3654c-0.16455-.39248-0.318-0.6923-0.867-0.437-0.32916.153-.5033-0.23382-0.66406-0.4844a3.13407,3.13407,0,0,0-.76493-1.168,1.31986,1.31986,0,0,1-.32981.93024c-0.211.14548-.01561,0.31968,0.13116,0.42229a8.57322,8.57322,0,0,1,3.06145,4.9889,1.99062,1.99062,0,0,1-.04021,1.33388A10.08911,10.08911,0,0,1,88.8221,56.032a0.46346,0.46346,0,0,1-.89145-0.02711,1.31232,1.31232,0,0,1-.1395-0.42957c-0.12494-1.05143-.88034-1.8302-1.20121-2.79639a0.52279,0.52279,0,0,0-.31532-0.30851,1.66787,1.66787,0,0,1-.63424-1.13084c-0.19714-.35523-0.798-0.08176-1.01047-0.56043a2.29571,2.29571,0,0,0-.51822-1.07265c-0.27462-.03761-0.31993.48034-0.62753,0.33937a1.31142,1.31142,0,0,1-.68616-0.692q-0.33625-.79207-0.71992-1.56374a2.11906,2.11906,0,0,0-.57633-0.87884,0.43535,0.43535,0,0,0-.083.52859,67.43635,67.43635,0,0,1,1.66493,8.67835c0.33639,2.08106.46256,4.19441,0.99976,6.2486a24.53434,24.53434,0,0,1,.406,5.40908c0.03687,1.05514.11079,2.109,0.16815,3.16343a0.199,0.199,0,0,0,.00848.08944,1.58905,1.58905,0,0,1,.075,1.92352,0.74357,0.74357,0,0,0,.58829-0.678,19.91081,19.91081,0,0,1,.95483-2.44416c0.071-.19906.17525-0.47041,0.40915-0.38a0.53812,0.53812,0,0,1,.3856.54533c-0.26422.58939,0.08471,1.19528-.12447,1.76811a1.20262,1.20262,0,0,0,.06241.87259c0.08357,0.22747.13775,0.21854,0.36044,0.19722,0.53138-.05086.64188,0.131,0.64071,0.68551a7.53945,7.53945,0,0,1-.6323,2.70168,11.125,11.125,0,0,1,.23982-2.95982,0.82135,0.82135,0,0,0-.49962.74982,10.12481,10.12481,0,0,1-.61522,1.9773c-0.10438.21566-.00884,0.51907-0.43424,0.53873a0.721,0.721,0,0,1-.92329-0.40962c-0.21491.33758-.44139,0.6971-0.908,0.37049a0.25817,0.25817,0,0,0-.23318.08208c-0.27032.75075-.942,0.45421-1.45313,0.5514a0.43585,0.43585,0,0,0-.317.06668,0.56868,0.56868,0,0,1-.88059-0.027c-0.22039-.18069-0.32512-0.2836-0.53557.01624a1.40145,1.40145,0,0,1-1.021-.67242,22.69136,22.69136,0,0,0-.56772-4.2123,0.433,0.433,0,0,1,.117-0.4947,0.5069,0.5069,0,0,1,.58155.11251,1.0322,1.0322,0,0,1,.31679.53636c0.2592,0.57237.50752,1.1497,0.83608,1.89823a7.27546,7.27546,0,0,0,.25-2.25884,51.84061,51.84061,0,0,0-.04988-7.514,3.46221,3.46221,0,0,0-.00156-0.8994c-0.11181-.31723-0.478-0.45116-0.58619-0.18361a0.43721,0.43721,0,0,1-.6332.27729,4.02421,4.02421,0,0,0-2.31746.04328,25.51026,25.51026,0,0,0-2.94543.48638,0.74475,0.74475,0,0,1-1.07543-.50725c-0.08862-.33187-0.31121-0.36163-0.634-0.271-1.338.37568-2.63893,0.85911-3.948,1.319a2.74774,2.74774,0,0,1-.6918.20155c-0.6846.05418-.96442-0.32117-0.70815-0.94687a2.05852,2.05852,0,0,0,.35933-0.76015,4.19018,4.19018,0,0,0-1.41215.20716,8.08558,8.08558,0,0,0-1.035.331,8.7414,8.7414,0,0,1-3.46154.503c-0.68151.01717-1.01047-.25064-0.87685-0.915,0.12474-.62025-0.17335-0.614-0.5637-0.56761a8.79787,8.79787,0,0,0-2.36444.56452,0.50339,0.50339,0,0,1-.48705.042,0.83936,0.83936,0,0,1,.58219-0.667,10.3621,10.3621,0,0,1,2.79635-.72473,0.81224,0.81224,0,0,1,.89548.89321c0.02692,0.75166.03164,0.75024,0.75555,0.65083,1.55985-.21421,3.05207-0.725,4.589-1.03927,0.14751-.03016.28816-0.09553,0.436-0.122a0.90478,0.90478,0,0,1,1.24775,1.04338,0.41867,0.41867,0,0,0,.11788.385c1.04675-.36143,2.13646-0.70644,3.20046-1.11794a5.09061,5.09061,0,0,1,1.67849-.32157,1.193,1.193,0,0,1,1.05672.41728,0.887,0.887,0,0,0,.95549.32986,7.60963,7.60963,0,0,0,1.3386-.22176,6.60794,6.60794,0,0,1,3.56363-.28156c0-1.15479.02142-2.2307-.007-3.30528-0.02148-.812-0.13739-1.62169-0.15469-2.43362-0.01685-.7907-0.1219-0.92019-0.94852-0.88151a0.31894,0.31894,0,0,1-.31687-0.06361c1.43708-.05579,1.43489-0.05553,1.25622-1.55932-0.03548-.2986-0.05426-0.59974-0.06749-0.9003a0.43034,0.43034,0,0,0-.46389-0.52494c-0.17383.00647-.33631-0.079-0.24933-0.25576,0.1148-.2333.21938,0.07617,0.3457,0.05813,0.05807-.0083.11688-0.01141,0.26608-0.02536a50.1285,50.1285,0,0,0-.85562-5.67256,2.27936,2.27936,0,0,0-1.10624,2.3693,5.07478,5.07478,0,0,1-.09457.89478c-0.03089.413-.08692,0.73418-0.64155,0.48348-0.23488-.10617-0.30337.13588-0.31333,0.31619-0.02495.451-.025,0.90328-0.04072,1.35485a2.24333,2.24333,0,0,1-.05345.62784c-0.06889.20378,0.0272,0.53072-.318,0.5765a0.47109,0.47109,0,0,1-.523-0.39687c-0.07086-.2-0.18194-0.32014-0.38629-0.11935-0.253.24859-.45075,0.14033-0.70612-0.04486-0.37373-.271-0.53462-0.19158-0.54516.25659a9.85887,9.85887,0,0,1-.31558,2.05383c-0.11472.48183-.34183,0.51791-0.6725,0.16694a1.3855,1.3855,0,0,0-.5784-0.63471,5.31845,5.31845,0,0,0-.04994,1.06715,1.31208,1.31208,0,0,1-.33863,1.06969c-0.467.60322-.83081,0.59379-1.15378-0.14064a0.624,0.624,0,0,0-.63927-0.35909Zm14.831-18.19732c-0.47429-.48379-0.47429-0.48379-1.24293.024a4.30162,4.30162,0,0,0,1.25843-.04373,1.23971,1.23971,0,0,0,.86955.30145,0.18531,0.18531,0,0,0,.28071-0.20366,0.26974,0.26974,0,0,0-.30549-0.25531C86.87,38.388,86.58511,38.4577,86.29832,38.51828Zm-12.4046,9.67389c0.07506-.16326.16563-0.36195-0.04044-0.45858a0.253,0.253,0,0,0-.32163.23192c-0.021.30116,0.25512,0.13328,0.38708,0.2014a1.63606,1.63606,0,0,0,.13533.82515,1.1396,1.1396,0,0,0,.346-1.17612A0.79,0.79,0,0,0,73.89372,48.19217Zm3.91707-3.07707c-0.55134.50138-.62194-0.27237-0.98169-0.39168a2.89877,2.89877,0,0,0-.71807,1.48289c0.74278-.2558,1.46824-0.27843,1.7-1.09331a1.29526,1.29526,0,0,0,1.15408-.14224C78.4688,44.68283,78.19476,45.21436,77.81079,45.1151ZM64.25531,76.97445a1.56138,1.56138,0,0,0-.2917-0.73059,2.01425,2.01425,0,0,0-.46729-0.65777c-0.283-.16418-0.41708.16622-0.63469,0.22364a1.28164,1.28164,0,0,1-.35292.00514c-0.9022-.02535-1.80524-0.03541-2.70637-0.082-1.54354-.07975-3.07231.17212-4.61152,0.18-1.05743.00538-2.12133-.04523-3.17079,0.05281-2.01681.1884-4.04042,0.211-6.05872,0.25284-1.6833.03492-3.37-.11787-5.05439,0.0811a6.2247,6.2247,0,0,1-1.17837-.00567c-0.96663-.07116-1.932.011-2.89634,0.00029a39.10279,39.10279,0,0,1-4.968.051,1.3128,1.3128,0,0,0-1.44872.70825c-0.24911.48783-.2116,0.63335,0.358,0.63532,0.54,0.00188,1.07992-.09766,1.6204-0.10333,1.08775-.01143,2.17636.03583,3.26371,0.01394,2.65131-.05341,5.302-0.18109,7.95316-0.18889,3.23393-.00951,6.46466-0.109,9.69625-0.19711,0.81563-.02223,1.637.00782,2.44549-0.08031a32.69831,32.69831,0,0,1,3.70119-.16039C61.02336,76.9799,62.59309,76.97445,64.25531,76.97445ZM61.14157,74.923a6.15631,6.15631,0,0,1,1.32317-.157c0.42539-.03313.48538-0.24509,0.25447-0.61451-0.183-.29273-0.368-0.4646-0.72675-0.21994a1.37879,1.37879,0,0,1-.791.139c-2.92027.02218-5.844,0.0462-8.75608-.15146-1.40016-.095-2.754.19321-4.14109,0.201-2.1674.01221-4.33854-.07818-6.51315,0.09292a35.23282,35.23282,0,0,1-4.88358-.15623,13.42848,13.42848,0,0,0-3.42381.01274,1.36924,1.36924,0,0,1-.89045-0.04018,0.39651,0.39651,0,0,0-.54969.14176c-0.16546.21468-.3273,0.43256-0.50144,0.64006-0.23058.27474-.12244,0.458,0.17124,0.526a6.84675,6.84675,0,0,0,1.79178.23543c1.43874-.052,2.87684-0.13489,4.316-0.15973,1.86843-.03226,3.73828.00663,5.60626-0.03792,1.0592-.02526,2.10718.15623,3.16026,0.11652,1.7169-.06473,3.43133-0.19272,5.14788-0.26975,1.08553-.04869,2.17512-0.01912,3.25922-0.08489A36.81641,36.81641,0,0,1,61.14157,74.923ZM60.47,70.69694a2.00757,2.00757,0,0,0-.77051-1.219,1.40583,1.40583,0,0,0-.91223.20985c-0.06019.00525-.12017,0.01853-0.18025,0.0185-1.66389-.0004-3.33422.08587-4.98937-0.03517a31.072,31.072,0,0,0-3.14378.03306c-1.20462.03291-2.40477,0.19359-3.6143,0.19379a17.42974,17.42974,0,0,0-2.80568.08571,29.33386,29.33386,0,0,1-5.22635.10528c-1.41981-.0197-2.84-0.00649-4.26005-0.01414a0.92085,0.92085,0,0,0-.86244.39072,0.5036,0.5036,0,0,0-.16638.563,0.47147,0.47147,0,0,0,.4859.15924c1.20905,0.00729,2.41849-.00966,3.62715.01418,1.81229,0.03572,3.62527.08975,5.43435-.04465a26.23166,26.23166,0,0,1,3.52749-.1219c0.75035,0.04505,1.50755.077,2.25544,0.06562,2.32514-.0355,4.64914-0.14716,6.97351-0.23126C57.34641,70.81536,58.85015,70.75757,60.47,70.69694Zm1.269,2.06734c-0.14717-.879-0.38795-1.241-0.94517-1.15918a25.27527,25.27527,0,0,1-2.70133.057c-2.80077.11341-5.6005,0.25956-8.404,0.27773a72.269,72.269,0,0,0-7.41387.12223c-1.92771.21065-3.86047-.05516-5.79165,0.00554-0.99527.03127-1.99243,0.01673-2.98846,0.003a0.55066,0.55066,0,0,0-.56.57928c-0.07493.371,0.26168,0.33639,0.467,0.40787a1.09126,1.09126,0,0,0,.353.02152c1.05488-.00437,2.10819-0.01108,3.16335-0.077a13.827,13.827,0,0,1,2.43478-.13079,30.20069,30.20069,0,0,0,5.6002.0993c1.9594-.14368,3.92-0.12458,5.88149-0.13159,1.51111-.00541,3.01042.27115,4.52182,0.19394,1.95459-.09985,3.9099-0.15434,5.86652-0.17761A0.74106,0.74106,0,0,0,61.73906,72.76428Zm-2.5923-4.16239c-0.49239-1.03112-.49218-1.02715-1.52794-0.97253a6.06311,6.06311,0,0,1-.62858-0.033,19.73049,19.73049,0,0,0-2.35481-.02845c-1.17314.07876-2.35779,0.03368-3.52328,0.16646-1.38019.1572-2.7684,0.04339-4.143,0.21963a4.68114,4.68114,0,0,1-1.15639.157,46.76762,46.76762,0,0,0-4.965-.19394c-1.50663-.04518-3.017.00924-4.52493,0.051a3.63292,3.63292,0,0,0-1.14881.22729,0.7581,0.7581,0,0,0-.50319.79246c0.05136,0.39125.43317,0.23095,0.67056,0.23469,1.14882,0.01813,2.30369-.063,3.44579.02661a25.2265,25.2265,0,0,0,4.78393-.03306c0.66068-.07368,1.31827-0.14707,1.98417-0.18091,1.47809-.07508,2.95755.002,4.43773-0.14386a23.63446,23.63446,0,0,1,3.70564-.14586c1.51064,0.09143,3.01231-.112,4.51512.03173A1.37054,1.37054,0,0,0,59.14677,68.60189ZM58.049,66.74753c-0.32537-.8231-0.32541-0.8224-1.24692-0.87157a1.36106,1.36106,0,0,1-.174-0.04536,11.365,11.365,0,0,0-3.521-.06741c-1.86341.22663-3.73873,0.05117-5.5943,0.3133a24.716,24.716,0,0,1-4.05294-.10462,64.108,64.108,0,0,1-6.60731-.22237,1.011,1.011,0,0,0-.77332.17019,0.75464,0.75464,0,0,0-.41283.83179,0.59111,0.59111,0,0,0,.70368.26044c0.33218,0.00417.66442,0.00295,0.99662,0.00576,1.35831,0.01155,2.71659-.00638,4.07514.00565a32.54618,32.54618,0,0,0,4.15789.13486,27.65771,27.65771,0,0,1,3.25294-.1049c1.75348-.0029,3.492-0.22215,5.23788-0.333A26.10217,26.10217,0,0,1,58.049,66.74753Zm-3.32292-1.9052c0.57375,0,1.14756.00456,1.7212-.00285,0.16714-.00216.40233,0.05743,0.43011-0.19791a0.34936,0.34936,0,0,0-.3489-0.432,3.95148,3.95148,0,0,1-1.06117-.13246c-1.65389-.07551-3.30649-0.17951-4.95939-0.27618a0.29664,0.29664,0,0,0-.30586.11613c-0.26983.379-.34042,0.42267-0.49158,0.21111a1.036,1.036,0,0,0-1.05794-.34054c-1.32233.0665-2.63991-.044-3.97237,0.05306a41.71786,41.71786,0,0,1-5.23374-.18006c-0.725-.039-1.42737.15635-2.15569,0.13077-0.34665-.01217-0.41461.46929-0.4665,0.78939a0.25173,0.25173,0,0,0,.30909.24584,24.46988,24.46988,0,0,0,3.88332.131,13.09115,13.09115,0,0,1,2.16915-.07672c0.53946,0.00589,1.06854.14208,1.61873,0.12739a10.90883,10.90883,0,0,1,3.77805.09725,1.37153,1.37153,0,0,0,.35871-0.01887C50.87537,65.12267,52.79728,64.89671,54.72612,64.84233Zm1.27964-1.91676C55.79385,62.558,55.804,61.94668,55.1,62.31222a0.77889,0.77889,0,0,1-.32135-0.12675,4.26557,4.26557,0,0,0-.96513-0.14961c-1.35383-.13049-2.70789-0.04937-4.06085-0.08261-1.716-.04216-3.4299-0.15185-5.147-0.19878-1.20222-.03286-2.40707.02844-3.61269-0.12485a9.01274,9.01274,0,0,0-2.52191.08415,0.58612,0.58612,0,0,0-.595.642c0.02833,0.33029.38943,0.3084,0.65533,0.33146,0.12,0.01039.2415,0.00337,0.3623,0.00491,1.47674,0.01895,2.95139.0273,4.42929,0.10738,2.70091,0.1463,5.40833.18067,8.11357,0.23513a27.27794,27.27794,0,0,1,3.52231.13532A1.30135,1.30135,0,0,0,56.00576,62.92557Zm-17.165-2.5118a0.88462,0.88462,0,0,0,.66752.21706c2.40061,0.16706,4.80593.24563,7.20785,0.37882,2.49611,0.13841,4.99824-.14109,7.48946.161,0.20973,0.02543.55295,0.12709,0.61632-.19013a0.7747,0.7747,0,0,0-.403-0.75333,0.801,0.801,0,0,0-.43822-0.07032c-1.63153.036-3.23991-.31642-4.87656-0.26983a11.875,11.875,0,0,1-1.68593-.01506c-1.4634-.17056-2.92765-0.23235-4.39742-0.275a9.86626,9.86626,0,0,1-2.76439-.12513A1.0636,1.0636,0,0,0,38.84075,60.41377Zm13.81571-2.87031a1.676,1.676,0,0,0-.2273-0.82683,0.704,0.704,0,0,0-.90571-0.52581,12.06126,12.06126,0,0,1-3.68526-.15242c-2.25834-.29732-4.52063-0.15792-6.77637-0.29962-0.2915-.01832-0.53684.01887-0.54088,0.41809-0.0031.30547,0.01523,0.53081,0.39718,0.56116a9.8578,9.8578,0,0,1,.98133.15278c0.77509,0.14136,1.565.00217,2.33744,0.10979,2.24114,0.3122,4.50416.34864,6.75371,0.55418A4.58908,4.58908,0,0,0,52.65646,57.54346ZM50.022,58.90214a14.99685,14.99685,0,0,1,2.3705.13216,5.58584,5.58584,0,0,0,1.08324-.03622c0.34448-.03732.31031-0.22008,0.14315-0.43054a0.29769,0.29769,0,0,0-.45833-0.10646,1.04644,1.04644,0,0,1-.76673.09317c-0.75756-.02024-1.4952-0.1812-2.24475-0.24281q-3.59584-.29552-7.19316-0.573c-0.83995-.06467-1.68138-0.11733-2.52314-0.14752-0.32824-.01178-0.73957.005-0.73342,0.46516,0.00555,0.41511.39708,0.39368,0.688,0.39254,0.87655-.00345,1.743.12706,2.61344,0.17556C45.31619,58.75319,47.63542,58.81251,50.022,58.90214ZM41.54333,42.15982c-2.09656-.0961-2.27622.10705-1.95309,1.96582,0.02578,0.14832.0382,0.29915,0.05262,0.4492a0.46383,0.46383,0,0,0,.5366.4737c0.6312-.02553,1.26615-0.02046,1.89233-0.09161,0.76823-.08728.76059-0.11519,0.72046-0.93211-0.02071-.42172-0.01734-0.84458-0.0339-1.26657-0.02391-.60933-0.0274-0.60763-0.603-0.59912C41.88451,42.16313,41.61357,42.15982,41.54333,42.15982ZM52.08756,55.19851c-0.17749-.703-0.17714-0.7222-0.72935-0.73207-1.22-.02184-2.44494.03967-3.65928-0.04962-1.14686-.0843-2.29015-0.06739-3.43412-0.0577a5.09468,5.09468,0,0,1-1.23694-.13759,2.82468,2.82468,0,0,0-1.76413-.1396,0.33142,0.33142,0,0,0-.319.25957,0.515,0.515,0,0,0,.22965.46208,1.54957,1.54957,0,0,0,.43357.08728,7.75113,7.75113,0,0,0,2.60081.01618,26.69476,26.69476,0,0,1,4.21328.37051A18.18292,18.18292,0,0,0,52.08756,55.19851ZM47.97393,42.844a5.18887,5.18887,0,0,0-.12021-1.47823c-0.15152-1.05177-.13508-1.02834-1.17629-1.022a0.53875,0.53875,0,0,0-.65563.61629,8.079,8.079,0,0,0,.1641,2.67834,1.66832,1.66832,0,0,0,.091.94292,1.9232,1.9232,0,0,0,1.0402.07576,2.682,2.682,0,0,0,.27.00188A0.45715,0.45715,0,0,0,48.11,44.03311,3.671,3.671,0,0,1,47.97393,42.844ZM48.884,43.44128c0,0.0903-.00739.18131,0.0011,0.27083,0.148,1.56024-.16647,1.383,1.40532,1.34532,1.7322-.04149,1.45621.19081,1.48424-1.52779a3.90582,3.90582,0,0,0-.02454-0.54122c-0.09567-.774-0.11984-0.79433-0.87942-0.80766-0.241-.00423-0.48219.0004-0.72327-0.00179C48.87006,42.16738,48.87006,42.16707,48.884,43.44128Zm6.33816,0.01c0-.36159.00471-0.72329-0.00168-1.08476-0.00417-.235-0.07553-0.41808-0.36949-0.38384-0.652.076-1.31273,0.01368-1.96315,0.14057a0.46117,0.46117,0,0,0-.45535.6129c0.07827,0.4435.092,0.89795,0.14922,1.34568,0.10078,0.78908.295,0.947,1.11692,0.93678C55.25187,44.99936,55.25187,44.99936,55.22218,43.45132Zm-19.057.2c0,0.24047.01767,0.48251-.00378,0.721a0.54622,0.54622,0,0,0,.61474.68048c0.57041,0.00675,1.141.01106,1.71135,0.00346,0.21467-.00286.46712-0.04289,0.39747-0.3418a8.26522,8.26522,0,0,1-.11842-1.97473,0.38966,0.38966,0,0,0-.40925-0.46456c-0.20819-.01394-0.41313-0.08438-0.62105-0.09313C36.09346,42.11306,36.24307,41.80809,36.1652,43.65133ZM48.168,47.68441l-0.02074,0c0-.181-0.00245-0.362.00039-0.5429,0.02138-1.36092.0217-1.36091-1.29956-1.48232-0.53768-.04941-0.62131.00069-0.67092,0.573a7.619,7.619,0,0,0,.15946,2.24366,1.0974,1.0974,0,0,0,1.40213,1.08213,0.37337,0.37337,0,0,0,.4332-0.43C48.15677,48.64723,48.168,48.16564,48.168,47.68441Zm35.4863-6.40315c-0.13084-.46268-0.40834-0.75768-0.07133-1.06457a0.85342,0.85342,0,0,1,1.01017-.09042c0.24836,0.10852.50325,0.20558,0.74086,0.33426,0.25191,0.13645.40292,0.25933,0.63083-.115,0.27065-.44453.546-0.428,0.98558-0.11138,0.293,0.21107.5659,0.45,0.85191,0.67111,0.175,0.1353.36066,0.24784,0.55042,0.0214,0.24641-.29407.46937-0.16816,0.69182,0.03117a7.09321,7.09321,0,0,1,.66835.60474,1.3525,1.3525,0,0,0,1.57788.4942,2.4489,2.4489,0,0,0-.94645-0.825,6.49371,6.49371,0,0,0-6.44386-1.53618A3.35918,3.35918,0,0,0,82.08171,40.895C82.6072,41.18236,83.08615,41.00526,83.65431,41.28126ZM45.302,42.81114l-0.0016-.00066c0-.27.01038-0.54049-0.00277-0.80984a7.5596,7.5596,0,0,0-.08124-0.89769c-0.13673-.804-0.14333-0.78267-0.96537-0.75691a0.59384,0.59384,0,0,0-.68424.61673A12.59507,12.59507,0,0,0,43.613,44.0179a0.50172,0.50172,0,0,0,.10444.32932,1.66577,1.66577,0,0,0,1.21931.06606,0.477,0.477,0,0,0,.36707-0.61167C45.29593,43.47163,45.302,43.14131,45.302,42.81114Zm0.12429,4.87269c0-.34369-0.00376-0.67579.0007-1.00775,0.01458-1.08736.01573-1.08734-1.10189-1.04507-0.59509.0225-.67352,0.07453-0.70329,0.67717-0.03125.63251-.004,1.26764-0.01831,1.90128-0.02658,1.17508-.03143,1.17483,1.12153,1.27514,0.02942,0.00256.05747,0.023,0.08675,0.02471,0.512,0.02934.63235-.067,0.61414-0.57513A4.94628,4.94628,0,0,0,45.42627,47.68383Zm0.85258,5.93436a20.91077,20.91077,0,0,1,3.18963.11314,1.97471,1.97471,0,0,0,.96179-0.196,0.31418,0.31418,0,0,0,.28321-0.38457,0.372,0.372,0,0,0-.39079-0.30636c-0.54181-.0062-1.08467-0.01748-1.62545.00825a9.87147,9.87147,0,0,1-1.87936.12415,23.02233,23.02233,0,0,0-4.22931-.095,0.71941,0.71941,0,0,0-.437.04479c-0.149.10527-.18325,0.25425-0.02831,0.35678a1.24567,1.24567,0,0,0,.42574.11836A18.4064,18.4064,0,0,0,46.27886,53.61819Zm38.17542-6.02308a1.75927,1.75927,0,0,0,.80044,1.18391,0.66756,0.66756,0,0,1,.3964.64631,1.11319,1.11319,0,0,0,.17754.49457c0.49841,0.92475,1.65346,1.42931,1.69619,2.64843a0.13633,0.13633,0,0,0,.05839.06679,2.166,2.166,0,0,1,.6358,1.2627,0.51142,0.51142,0,0,0,.37592.56416,1.61494,1.61494,0,0,0,.064-0.61727,7.67818,7.67818,0,0,0-.77937-2.09882,1.513,1.513,0,0,1-.36667-0.81014,2.18914,2.18914,0,0,0-.89778-1.60237C85.91651,48.729,85.17661,48.1722,84.45428,47.59512ZM42.26594,52.04392c-0.137-1.09673-.137-1.09673,1.03136-1.107a0.95554,0.95554,0,0,0-.92013-0.75124,4.64038,4.64038,0,0,1-1.514-.012c-0.28589-.04938-0.41415.07434-0.45431,0.39346-0.10267.81585,0.19231,1.60939,0.08653,2.42788a0.48827,0.48827,0,0,0,.52159.49893C41.05977,52.11292,40.91983,51.97841,42.26594,52.04392Zm6.55148-10.52245a8.13722,8.13722,0,0,1,2.16285-.12119,0.50539,0.50539,0,0,0,.61507-0.6404c-0.00913-.08927.00139-0.18036-0.00173-0.27046-0.0225-.64851-0.11106-0.75418-0.73467-0.71593a11.32881,11.32881,0,0,1-1.529.01342,0.61621,0.61621,0,0,0-.745.75182A7.36616,7.36616,0,0,0,48.81742,41.52147Zm25.174,11.39362a5.49846,5.49846,0,0,0,.53712-1.95168c0.015-.17514-0.02067-0.43231.20055-0.44788,0.551-.03876.54079-0.47476,0.6624-0.8287,0.17376-.50579.35043-1.01058,0.52484-1.51285,0.88814,0.26217.88675,0.26182,1.11162-.6213,0.037-.14528.089-0.2871,0.14-0.42836a0.31662,0.31662,0,0,0-.03425-0.4104,0.44294,0.44294,0,0,0-.43035.0316,2.62363,2.62363,0,0,0-.94994.94866,19.51516,19.51516,0,0,0-2.09207,4.19047A0.75253,0.75253,0,0,0,73.99144,52.91509ZM42.52132,41.45767a1.825,1.825,0,0,0-.03709-0.99256,0.6007,0.6007,0,0,0-.57944-0.46328c-0.65889-.00608-1.31751-0.03961-1.9763-0.05983a0.36063,0.36063,0,0,0-.39864.13214,2.06481,2.06481,0,0,0,.04538,1.1444,0.517,0.517,0,0,0,.61722.23923C40.93939,41.45752,41.68634,41.45767,42.52132,41.45767Zm-6.18737.11465c0.6572,0,1.22646-.01381,1.7947.00448a0.49159,0.49159,0,0,0,.58324-0.6c-0.00566-.1201.01606-0.2412,0.01717-0.36193,0.00509-.55377-0.07109-0.65055-0.59233-0.66791-0.4509-.015-0.90286.00522-1.35419-0.00119a0.3817,0.3817,0,0,0-.44847.42935C36.33359,40.73691,36.33395,41.09872,36.33395,41.57233Zm16.21826-1.13662c0.00876,0.81728.07233,0.86972,0.8843,0.76788,0.41534-.0521.83141-0.11225,1.2488-0.13,0.3815-.0162.41037-0.25066,0.42883-0.54114,0.02059-.32407.01558-0.62356-0.40062-0.66-0.50654-.0444-1.01516-0.09081-1.52283-0.09017C52.5454,39.78307,52.54543,39.80305,52.55221,40.43571Zm30.751,34.0179a0.33631,0.33631,0,0,0,.26443-0.28183c0.42019-1.08741.09553-2.21281,0.16759-3.3179,0.00766-.11742-0.08627-0.31582-0.17072-0.272-0.54727.28376-.74571-0.27452-1.06638-0.47442a0.31388,0.31388,0,0,0-.05588.38664c0.62972,0.63424.36873,1.4368,0.44059,2.17716A5.14287,5.14287,0,0,0,83.30324,74.45361ZM87.61006,45.296c0.4192-.58575.54093-0.61775,1.05087-0.23923a4.17706,4.17706,0,0,1,.53011.48789,0.58431,0.58431,0,0,1,.29692.51574,3.19614,3.19614,0,0,1-.4091.35478c0.37927,0.729,1.05227.66863,1.73847,0.7471a6.43641,6.43641,0,0,0-3.02417-2.913c-0.26931-.122-0.5571-0.40462-0.74962.13393-0.088.24608-.38013,0.09539-0.57459,0.08749a2.46089,2.46089,0,0,0-1.08517-.06052C86.09008,44.83688,86.98494,44.7332,87.61006,45.296ZM50.61532,47.84112a3.69964,3.69964,0,0,1-1.15718-1.16828A0.317,0.317,0,0,0,49.06887,46.53a0.27607,0.27607,0,0,0-.15992.2928,4.1597,4.1597,0,0,0,.30157,2.26928Zm31.7635,17.19449a2.69549,2.69549,0,0,0,.38047,2.20967,0.38137,0.38137,0,0,0,.31392.28655,0.40946,0.40946,0,0,0,.35714-0.35378,5.09353,5.09353,0,0,0,.022-2.16291C83.06756,65.43248,82.73129,65.53253,82.37883,65.03561Zm0.0143,2.461a2.93259,2.93259,0,0,0,.46432,2.36326,0.45182,0.45182,0,0,0,.3784.32165,0.47233,0.47233,0,0,0,.33639-0.47963c0.02725-.56592.00959-1.134,0.00959-1.78209A1.06756,1.06756,0,0,1,82.39313,67.49662ZM49.89574,45.98772a0.35438,0.35438,0,0,0,.01576.16926c0.13162,0.16377.27211,0.32115,0.41794,0.47262,0.72093,0.74883.99173,0.72874,1.6037-.11458a1.50107,1.50107,0,0,0,.09372-0.154c0.19283-.34707.12885-0.50017-0.25689-0.54035A5.69349,5.69349,0,0,0,49.89574,45.98772ZM83.08261,62.53327a2.45369,2.45369,0,0,1-.57964.6187c-0.40159.042-.36973,0.29141-0.36637,0.57206a1.49964,1.49964,0,0,0,.79432,1.25272C83.18491,64.13156,83.6775,63.39346,83.08261,62.53327ZM71.75149,41.747a10.005,10.005,0,0,0,2.26785-1.61785c0.25974-.25394.508-0.52421,0.7074,0.04908a0.17436,0.17436,0,0,0,.28234.09114,0.3193,0.3193,0,0,0,.21318-0.26442,0.31519,0.31519,0,0,0-.14812-0.2,1.84165,1.84165,0,0,0-1.813.06619A14.38947,14.38947,0,0,0,71.75149,41.747Zm1.97811,2.49345a0.77422,0.77422,0,0,0-.95288.51887,10.38025,10.38025,0,0,1-.86768,2.6374,0.22722,0.22722,0,0,0,.12791.29922c0.16829,0.10981.27888,0.01451,0.32957-.15376a24.73618,24.73618,0,0,0,.97137-2.4166A1.71569,1.71569,0,0,1,73.7296,44.24049ZM49.11323,51.8662a8.607,8.607,0,0,0-4.59727.07448C46.035,51.93585,47.4836,52.39147,49.11323,51.8662Zm-12.75564-2.487c0.23828,0,.4173-0.00254.59621,0.00069a0.40529,0.40529,0,0,0,.44442-0.22359,0.436,0.436,0,0,0-.16945-0.4762c-0.14966-.14433-0.31051-0.27724-0.46878-0.41243a0.45163,0.45163,0,0,0-.79427.11867c-0.15977.27363-.63637,0.4425-0.51135,0.77619C35.61,49.57778,36.08859,49.30561,36.35759,49.37917Zm7.59,0.93728a0.46311,0.46311,0,0,0,.56758.57572c0.44782-.02861.89587-0.0545,1.34324-0.089,0.75248-.0581,1.50451-0.1221,2.25674-0.18362l-0.00468-.21316A27.286,27.286,0,0,0,43.94761,50.31645Zm-8.75443-4.6332a1.69284,1.69284,0,0,1,.06544.35581,0.765,0.765,0,0,0,.6254.866,0.90689,0.90689,0,0,0,.90283-0.59382c0.23053-.30608.1228-0.46174-0.24143-0.55851A3.07053,3.07053,0,0,0,35.19318,45.68325Zm46.22614-.19814c0.78949,0.26561,1.39625.52293,2.02877,0.66768,0.6438,0.14733,1.0029.79336,1.71415,0.94769C84.33664,45.60753,83.08067,45.26913,81.41932,45.48511Zm0.7365,14.395a3.79781,3.79781,0,0,0,.06022-2.94067,0.40866,0.40866,0,0,0-.4011.23187A6.47719,6.47719,0,0,0,82.15582,59.8801ZM78.45822,47.863c-0.01656-.16388-0.01286-0.358-0.21689-0.34-0.30482.02684-.70351-0.06965-0.79232,0.38821a6.778,6.778,0,0,1-.48009,1.63759,0.28594,0.28594,0,0,0,.20975.41723c0.21751,0.06862.21819-.12683,0.26146-0.26292,0.14132-.44443.01079-1.03348,0.749-1.13954A0.81026,0.81026,0,0,0,78.45822,47.863Zm-39.89607-.38611a1.5883,1.5883,0,0,0-.81937-0.89581,1.20764,1.20764,0,0,0-.72927.74038,1.391,1.391,0,0,0,.86611.79518A1.17973,1.17973,0,0,0,38.56215,47.47685Zm-4.07057,1.82409a0.97827,0.97827,0,0,0-.44937-0.64872c-0.64985-.74047-0.68353-0.733-1.341.02027-0.05879.06737-.12771,0.12617-0.184,0.19543a0.24948,0.24948,0,0,0-.083.31355,0.27157,0.27157,0,0,0,.30177.13965A9.355,9.355,0,0,1,34.49158,49.30094ZM53.67737,49.453a0.94959,0.94959,0,0,0,.98646-0.45254c0.2074-.36275-0.09335-0.47736-0.23938-0.66782-0.12127-.15815-0.26272-0.38518-0.504-0.20424a2.63881,2.63881,0,0,0-.84844.90186c-0.11988.24306-.03925,0.40393,0.24776,0.42152C53.43854,49.45908,53.55814,49.453,53.67737,49.453Zm15.984-6.37122a28.09368,28.09368,0,0,0,2.2483-2.461A3.24364,3.24364,0,0,0,69.66135,43.08178Zm9.42356-2.10533a0.713,0.713,0,0,0-.05786-0.7269,0.353,0.353,0,0,1-.00088-0.41347c0.4405-.42989.14088-0.96415,0.2009-1.44727a0.14351,0.14351,0,0,0-.14181-0.18292,0.36428,0.36428,0,0,0-.239.08222c-0.25027.35013,0.02373,1.0166-.66924,1.10917a0.28436,0.28436,0,0,0,.00289.165A7.02179,7.02179,0,0,0,79.08491,40.97645Zm-36.9168,4.81271a8.47263,8.47263,0,0,0-.92613-0.14991c-0.21986-.00943-0.52881-0.10831-0.61515.19723a1.00156,1.00156,0,0,0,.00514.86165,0.48417,0.48417,0,0,0,.86877.077A11.71581,11.71581,0,0,0,42.16811,45.78916Zm14.65161,3.65176c0.5953,0.024.67082-.03655,0.67472-0.541a0.76225,0.76225,0,0,0-.61326-0.75536,1.602,1.602,0,0,0-.8968.68755C55.93225,49.15432,56.29657,49.41982,56.81973,49.44092Zm-4.82406.00989c-0.85764-1.16473-.86328-1.173-1.81737-0.52537a0.66979,0.66979,0,0,0-.51435.51635C50.39834,49.749,51.12085,49.30659,51.99567,49.45081ZM82.39542,62.60122a2.2021,2.2021,0,0,0,.43572-1.89541c-0.04231-.15209-0.07252-0.41123-0.3159-0.31514-0.19055.07524-.5709,0.05253-0.49067,0.39378,0.10562,0.44926-.01126.89343,0.058,1.33525A0.48461,0.48461,0,0,0,82.39542,62.60122ZM52.52838,47.025a1.12245,1.12245,0,0,0-.67419.534,0.42035,0.42035,0,0,0,.07629.6845c0.23,0.21638.48841,0.3712,0.76427,0.05252,0.11672-.13485.22276-0.27911,0.34219-0.41141a0.36519,0.36519,0,0,0,.09507-0.54056A0.70746,0.70746,0,0,0,52.52838,47.025Zm28.237-2.72228a10.26432,10.26432,0,0,1,2.29-1.49053,2.78432,2.78432,0,0,0-1.94736.4081A0.77759,0.77759,0,0,0,80.76537,44.30276Zm-48.21943,1.48c1.075,1.34037,1.07565,1.34083,1.95473.05466a0.428,0.428,0,0,0,.00327-0.18577C33.883,45.58451,33.28036,45.7829,32.54594,45.78275Zm53.20167,0.63577c0.687-1.06289.60305-1.23465-.57-1.32743a0.80733,0.80733,0,0,0-.77712.0911Zm-0.92648-2.92637A2.78728,2.78728,0,0,0,82.692,44.041c0.60382,0.12325,1.04063.22353,1.48183,0.29758,0.20525,0.03446.43509,0.06229,0.4325-.27944A1.68091,1.68091,0,0,0,84.82113,43.49215ZM52.71246,45.75483A1.27536,1.27536,0,0,0,53.81,46.77263a0.62818,0.62818,0,0,0,.69134-0.54755c0.03075-.36816-0.28588-0.33156-0.50025-0.36062C53.59513,45.80944,53.184,45.79257,52.71246,45.75483Zm-9.99194.74538c-1.11786,1.11491-1.10236,1.48663.05417,2.06551C42.87041,47.8789,42.69337,47.2327,42.72052,46.50021ZM81.11,49.062l-0.25469.03882c0.423,1.1707.17993,2.46865,0.78911,3.61039A1.41207,1.41207,0,0,0,81.7202,51.997C81.52982,51.01615,81.31559,50.0399,81.11,49.062Zm-1.425-9.043a1.59778,1.59778,0,0,0,.80318-1.4814c0.02983-.22766-0.01542-0.34412-0.23866-0.38207a0.31886,0.31886,0,0,0-.43689.20364A3.67666,3.67666,0,0,0,79.685,40.019ZM33.98967,47.38521c0.28755,0.27979.53078,0.50089,0.755,0.73983a0.28537,0.28537,0,0,0,.46433.00819c0.14136-.14528.36848-0.337,0.22091-0.53453a2.1334,2.1334,0,0,0-.779-0.7048C34.39538,46.784,34.2033,47.113,33.98967,47.38521Zm5.89056,1.75305c-0.17149-.28819-0.29972-0.52209-0.44608-0.744a0.34883,0.34883,0,0,0-.528-0.15955,1.53955,1.53955,0,0,0-.56942.976c0.136,0.28029.36581,0.11911,0.55482,0.07867A3.00009,3.00009,0,0,0,39.88023,49.13826Zm15.53391-.99417a1.15775,1.15775,0,0,0,.67921-0.649,1.12192,1.12192,0,0,0-.713-0.62525,0.869,0.869,0,0,0-.659.63963A1.21865,1.21865,0,0,0,55.41413,48.14409Zm28.04545-.3274a0.91276,0.91276,0,0,0-.02926.82022c0.12386,0.22527.38523,0.05883,0.58219,0.09233a1.31267,1.31267,0,0,1,.76491.57694,0.79239,0.79239,0,0,0,.78019.43924A7.285,7.285,0,0,0,83.45959,47.81669Zm2.752-5.12592a2.23353,2.23353,0,0,0-1.564-.64369c-0.25158-.05288-0.52738-0.04566-0.543.2611a0.38382,0.38382,0,0,0,.4805.39117C85.08924,42.66716,85.597,42.69077,86.21159,42.69077ZM73.76764,46.257a0.20841,0.20841,0,0,0,.218-0.12325,6.94635,6.94635,0,0,1,1.15887-1.90539,0.19941,0.19941,0,0,0-.02772-0.16192,0.146,0.146,0,0,0-.22891-0.04021,7.86378,7.86378,0,0,0-1.27158,1.96A0.19194,0.19194,0,0,0,73.76764,46.257Zm8.03523,7.56943a2.7684,2.7684,0,0,0,.14378,2.32813A2.6476,2.6476,0,0,0,81.80287,53.82647ZM42.35351,25.07723c-0.4.02288-.68363,0.36229-1.05132-0.00683-0.17826-.17894-0.531.14358-0.71738,0.3764a0.20037,0.20037,0,0,0,.09078.30074c0.33083,0.05634.66164-.03493,1.016,0.05285A0.7782,0.7782,0,0,0,42.35351,25.07723ZM70.578,49.44822a2.05066,2.05066,0,0,0,.342-0.83837,3.22994,3.22994,0,0,1,.38022-1.08916,0.60243,0.60243,0,0,0,.11839-0.82057A4.32773,4.32773,0,0,0,70.578,49.44822ZM58.91184,46.02107a0.60482,0.60482,0,0,0-.73547.46016,0.70587,0.70587,0,0,0,.47891.57567,1.27576,1.27576,0,0,0,.6966-0.71668C59.352,46.052,59.10447,46.06557,58.91184,46.02107ZM53.17365,27.40164a1.84094,1.84094,0,0,0,1.19207,1.52219A1.7795,1.7795,0,0,0,53.17365,27.40164ZM41.96984,49.3129a0.72317,0.72317,0,0,0-.34733-0.68031,0.353,0.353,0,0,0-.47033-0.11823,0.57561,0.57561,0,0,0-.25565.54169,0.35215,0.35215,0,0,0,.37841.30594A1.17137,1.17137,0,0,0,41.96984,49.3129Zm38.7817-6.80333a3.18523,3.18523,0,0,0,1.52691-.83581A1.15152,1.15152,0,0,0,80.75154,42.50957Zm-23.50812,3.5266a1.2679,1.2679,0,0,0-.67048-0.10845c-0.19092-.00369-0.4563-0.13787-0.54336.12612-0.08036.24368,0.16953,0.35019,0.33862,0.46008C56.81468,46.80405,56.87958,46.769,57.24342,46.03617Zm-24.97712.785a1.35128,1.35128,0,0,0,.04757,1.29422C32.92916,47.56706,32.92823,47.54178,32.26629,46.82117ZM75.46944,44.621a1.95872,1.95872,0,0,0,.92587-0.92577C75.42834,43.58132,75.38518,43.62153,75.46944,44.621ZM40.371,48.12889a0.60792,0.60792,0,0,0,.16652-0.15325,0.47742,0.47742,0,0,0-.08566-0.57547,0.68974,0.68974,0,0,0-.539-0.26162,0.195,0.195,0,0,0-.12537.10574A0.80486,0.80486,0,0,0,40.371,48.12889ZM37.59335,60.24325c-0.03477-.16757-0.06709-0.31147-0.094-0.45637-0.02613-.14074-0.01866-0.33734-0.20472-0.33425-0.25193.00417-.206,0.23838-0.2176,0.40169a1.7893,1.7893,0,0,0,.0181.44169c0.02967,0.16386.04893,0.4024,0.28041,0.35872A0.35313,0.35313,0,0,0,37.59335,60.24325Zm21.24-11.62a1.91705,1.91705,0,0,0-.28018.89786,3.00587,3.00587,0,0,0,.96414-0.16571A1.12189,1.12189,0,0,0,58.83338,48.62327Zm20.94854-7.42778a2.93,2.93,0,0,0,.50959-0.92783C79.5764,40.51108,79.5764,40.51108,79.78192,41.19549ZM55.84981,60.26707a0.85141,0.85141,0,0,0-.33512-1.168A0.94046,0.94046,0,0,0,55.84981,60.26707ZM82.5127,39.4825a3.47626,3.47626,0,0,0,.62816-0.38732c0.16608-.16674.70026-0.06,0.50317-0.42667-0.15838-.29466-0.45574.098-0.68927,0.17584A0.60211,0.60211,0,0,0,82.5127,39.4825ZM38.6683,45.8062l-0.0982.15156a2.76752,2.76752,0,0,0,.63757.57167,1.96728,1.96728,0,0,1,.2813-0.72323H38.6683ZM32.82417,69.99412l0.22638-.02167a1.40311,1.40311,0,0,0-.22638-1.15391v1.17558Zm47.08138-33.522c-0.7945.30694-.79915,0.31766-0.55738,1.16388A1.75981,1.75981,0,0,1,79.90554,36.4721Zm-8.569,14.38278a0.88761,0.88761,0,0,0,.15315-1.22836A1.35338,1.35338,0,0,0,71.33655,50.85488Zm19.62-2.29044c0.262,0.9614.29689,0.99492,0.91407,0.88591A6.46239,6.46239,0,0,1,90.95657,48.56444ZM75.6071,46.52513c-0.01822-.13464-0.02055-0.30954-0.20952-0.3153a0.3306,0.3306,0,0,0-.30658.35253,0.25824,0.25824,0,0,0,.15834.3528C75.50643,46.95045,75.5679,46.73884,75.6071,46.52513Zm-44.22026-12.76a7.02313,7.02313,0,0,0-.5878.55771,0.20468,0.20468,0,0,0,.06757.30315,0.22063,0.22063,0,0,0,.30153-0.08863A6.717,6.717,0,0,0,31.38684,33.76516Zm30.1986,36.51125a1.74232,1.74232,0,0,0-.32024-1.43547A1.89116,1.89116,0,0,0,61.58544,70.27642ZM79.67172,46.6501a0.48544,0.48544,0,0,0-.034-0.47156c-0.04942-.1692-0.11939-0.41065-0.317-0.31515-0.22282.10769-.13908,0.34644-0.00651,0.52509A0.53519,0.53519,0,0,0,79.67172,46.6501Zm-19.98307.66027c-0.23053.23529-.4256,0.423-0.20707,0.70894a0.16217,0.16217,0,0,0,.22894.059,0.65351,0.65351,0,0,0,.073-0.64556A0.57269,0.57269,0,0,0,59.68864,47.31037Zm16.597,3.11978a0.37569,0.37569,0,0,0-.276-0.4414,0.22822,0.22822,0,0,0-.193.25168,0.45786,0.45786,0,0,0,.25051.50866C76.21472,50.80009,76.28182,50.6056,76.28567,50.43016Zm6.21941,24.66336c-0.13336.45157-.27711,0.69817,0.01817,0.98024A0.83709,0.83709,0,0,0,82.50508,75.09352ZM35.91355,29.94664a0.54732,0.54732,0,0,0-.539.54029,0.1685,0.1685,0,0,0,.12628.10512C35.84239,30.57442,35.928,30.3482,35.91355,29.94664Zm55.491,10.80209c-0.21667-.52411-0.21667-0.52411-0.6942-0.50126A1.13535,1.13535,0,0,0,91.40458,40.74872Zm-3.79406,5.75645a0.49082,0.49082,0,0,0,.44522.50876,0.16484,0.16484,0,0,0,.12545-0.09676,0.52472,0.52472,0,0,0-.44666-0.44508A0.35452,0.35452,0,0,0,87.61052,46.50517ZM75.37095,40.9345a1.52465,1.52465,0,0,0,1.04235-.14268A0.82754,0.82754,0,0,0,75.37095,40.9345Zm2.0132,0.60257a0.68747,0.68747,0,0,0,.22563-0.16875,0.38947,0.38947,0,0,0-.41771-0.2365,0.16284,0.16284,0,0,0-.165.17463C77.03757,41.48,77.14138,41.57129,77.38415,41.53707Zm6.60056,5.84016a1.07355,1.07355,0,0,0-.87329-0.40057A0.8719,0.8719,0,0,0,83.98471,47.37723ZM49.37007,25.016a0.34365,0.34365,0,0,0-.30934-0.27369c-0.09985-.00466-0.17293.04486-0.12694,0.16227a0.34719,0.34719,0,0,0,.29014.29032A0.14375,0.14375,0,0,0,49.37007,25.016Zm43.366,16.94813A0.67233,0.67233,0,0,0,92.127,41.4678,0.74231,0.74231,0,0,0,92.73609,41.96413ZM21.64057,62.65747a0.365,0.365,0,0,0-.10372-0.12988,0.224,0.224,0,0,0-.22229.21169c-0.01584.07714-.01926,0.19986,0.10558,0.1464A0.82556,0.82556,0,0,0,21.64057,62.65747Zm6.07523,0.11839c-0.04746.1903,0.037,0.23056,0.11937,0.24288a0.26022,0.26022,0,0,0,.33274-0.19587,0.14324,0.14324,0,0,0-.14531-0.16911A0.243,0.243,0,0,0,27.71581,62.77585Zm47.18187,0.69841a0.23777,0.23777,0,0,0,.2045-0.22282,0.1837,0.1837,0,0,0-.26009-0.15494,0.22373,0.22373,0,0,0-.14384.281A0.13476,0.13476,0,0,0,74.89767,63.47427ZM86.76292,42.78685a0.18587,0.18587,0,0,0,.161-0.24648,0.28581,0.28581,0,0,0-.169-0.17357,0.19154,0.19154,0,0,0-.21864.20276A0.25109,0.25109,0,0,0,86.76292,42.78685ZM38.0882,30.61664a0.34578,0.34578,0,0,0-.06707-0.15527,0.15127,0.15127,0,0,0-.18757.13516c-0.02423.08228-.01557,0.1959,0.08484,0.19173A0.44719,0.44719,0,0,0,38.0882,30.61664Zm1.80289,19.635a0.13176,0.13176,0,0,0-.17768-0.12314,0.30734,0.30734,0,0,0-.21914.09155,0.14413,0.14413,0,0,0,.12178.19032A0.23256,0.23256,0,0,0,39.89109,50.25168ZM89.28068,39.39783a0.35923,0.35923,0,0,0,.12228-0.0876,0.26133,0.26133,0,0,0-.28966-0.24213,0.29351,0.29351,0,0,0-.13971.07067A0.45473,0.45473,0,0,0,89.28068,39.39783ZM43.21021,24.36695a0.23364,0.23364,0,0,0,.25742-0.20612,0.11237,0.11237,0,0,0-.1713-0.1113,0.56425,0.56425,0,0,0-.26672.216C42.99933,24.33259,43.13459,24.36208,43.21021,24.36695Z"/><path d="M13.30525,26.18976a4.83984,4.83984,0,0,0-2.38083-.07873c-0.50175.09549-.98357,0.29874-1.48605,0.38655-0.70695.12354-.93907-0.14921-0.85425-0.85439a1.21864,1.21864,0,0,1,.881-1.05033c1.96742-.67886,3.84445-1.60962,5.88038-2.09919a3.44608,3.44608,0,0,1,1.16488-.11289,0.67015,0.67015,0,0,1,.70819.45669c0.08077,0.54816.43626,0.484,0.79961,0.46019a6.44338,6.44338,0,0,0,1.9747-.6308,1.86019,1.86019,0,0,1,2.238.27547,0.65835,0.65835,0,0,0,.90487-0.00656,8.35088,8.35088,0,0,1,1.26313-.70629,1.54642,1.54642,0,0,1,2.03986.36014,0.94158,0.94158,0,0,0,1.14844.28,5.11729,5.11729,0,0,1,4.03485.30755,1.71556,1.71556,0,0,0,1.05719.14475,5.13431,5.13431,0,0,1,2.24031.15025,1.68837,1.68837,0,0,1,.64391.308,0.87447,0.87447,0,0,1-.11359,1.55547,3.82857,3.82857,0,0,1-.664.28737c-0.49585.18777-1.15147-.034-1.48093,0.57986a5.50953,5.50953,0,0,0-1.60418.20643,0.92366,0.92366,0,0,0-.98479.9475,0.68911,0.68911,0,0,1-.69641.5968c-0.38245.0859-.77976,0.11731-1.15268,0.23114a0.87745,0.87745,0,0,1-1.18283-.3022c-0.22041-.349-0.544-0.17736-0.80854-0.04414-0.59237.2983-1.1796,0.60892-1.75359,0.941a1.06138,1.06138,0,0,1-1.5373-.07871,0.63422,0.63422,0,0,0-.75738-0.06581,16.03969,16.03969,0,0,0-1.97167.9108,4.421,4.421,0,0,1-1.77.64474c-0.62963.01395-.82546-0.18974-0.72993-0.81489a6.96967,6.96967,0,0,1,.24258-0.86614c0.10817-.37339-0.01025-0.48439-0.404-0.4257-1.08105.16111-2.10348,0.54575-3.16086,0.79545-0.27269.06441-.57532,0.21949-0.719-0.0946a0.57851,0.57851,0,0,0-.821-0.283,3.97827,3.97827,0,0,0-1.09669.41094,1.56294,1.56294,0,0,1-1.05411.17515,0.88841,0.88841,0,0,1-.7847-0.6584,0.79265,0.79265,0,0,1,.45963-0.96811C11.767,27.08112,12.48914,26.64726,13.30525,26.18976Zm-3.78843-.47441a12.98053,12.98053,0,0,1,3.987-.43006,2.94392,2.94392,0,0,1,1.23759.23123,0.62374,0.62374,0,0,1,.3886.57151,0.49043,0.49043,0,0,1-.41662.41905q-1.02944.47423-2.06524,0.9346A5.59484,5.59484,0,0,0,11.417,28.146a1.77552,1.77552,0,0,0,1.39045-.33216,1.91783,1.91783,0,0,1,2.05691.00679,0.53956,0.53956,0,0,0,.58793.06579,12.01522,12.01522,0,0,1,2.892-.63229,2.124,2.124,0,0,1,1.16135.123c0.49362,0.20213.56367,0.42242,0.35494,0.91792a1.30861,1.30861,0,0,0-.33729.69909,0.26926,0.26926,0,0,0,.33583.00363c1.05957-.43612,2.12937-0.84875,3.17721-1.31124a0.66276,0.66276,0,0,1,.88724.13754,0.72411,0.72411,0,0,0,1.04788.08195c0.578-.32834,1.15023-0.667,1.71985-1.00971a1.2517,1.2517,0,0,1,1.56437.04521,1.1259,1.1259,0,0,0,1.91319-.519,1.27641,1.27641,0,0,1,.91285-0.79206,6.425,6.425,0,0,1,1.06857-.19721c0.87073-.08441,1.60934-0.59221,2.45731-0.74666a0.60238,0.60238,0,0,0,.18393-0.21875,2.18148,2.18148,0,0,0-1.54322-.35516,2.92465,2.92465,0,0,1-2.18033-.35919,1.20875,1.20875,0,0,0-.94235-0.25988c-0.78069.202-1.59329-.0637-2.36765,0.21084a2.10479,2.10479,0,0,1-2.31949-.5359,0.56836,0.56836,0,0,0-.77946-0.136c-0.51219.256-1.01386,0.53307-1.52483,0.79163a1.14951,1.14951,0,0,1-1.60732-.24876,0.77525,0.77525,0,0,0-.87748-0.29079,5.69528,5.69528,0,0,0-1.90214.7999,0.84569,0.84569,0,0,1-.935.14525,1.60163,1.60163,0,0,1-1.03926-.18683,0.57261,0.57261,0,0,1-.26939-0.44637c0.04486-.4496-0.17491-0.51142-0.55163-0.42825A26.89389,26.89389,0,0,0,9.7126,25.28722,0.37634,0.37634,0,0,0,9.51681,25.71535Z"/><path d="M77.47636,24.96293a3.881,3.881,0,0,0-1.54812.1423,6.012,6.012,0,0,1-1.88457.19709,2.70384,2.70384,0,0,0-1.41057.24,2.15639,2.15639,0,0,1-1.4161-.01894c-0.44537-.07589-0.88527-0.18326-1.329-0.2695a1.91788,1.91788,0,0,0-1.37789.24753,4.56793,4.56793,0,0,1-2.073.559,1.185,1.185,0,0,1-1.15685-.37868,1.06207,1.06207,0,0,0-1.35015-.373c-0.64968.13013-1.29189,0.2982-1.94251,0.42279-0.915.17518-1.17249,0.03773-1.32575-.85515a0.518,0.518,0,0,0-.66383-0.50909,3.67123,3.67123,0,0,0-1.33529.19235,4.9224,4.9224,0,0,1-.60529.18859,1.27041,1.27041,0,0,1-1.74231-1.5011,0.94924,0.94924,0,0,1,.495-0.71947,8.34631,8.34631,0,0,1,3.697-1.09918,1.22916,1.22916,0,0,1,.85549.20618,2.38426,2.38426,0,0,0,2.7873.1025,1.68111,1.68111,0,0,1,1.87528.028,2.93809,2.93809,0,0,0,2.51563.30568c0.3206-.08148.63317-0.19736,0.94517-0.30935a3.27026,3.27026,0,0,1,2.797.167,3.32255,3.32255,0,0,0,1.38333.38355,6.37956,6.37956,0,0,1,1.83108.47031,22.13219,22.13219,0,0,0,2.85539.87136c0.61494,0.1436.77757,0.50764,0.5167,0.97979a0.48384,0.48384,0,0,1-.42462.281c-0.06035.0037-.12068,0.00782-0.18107,0.01077C77.99248,24.93839,77.721,24.95125,77.47636,24.96293Zm-1.183-.88657a8.524,8.524,0,0,0-2.7567-.84146,2.35238,2.35238,0,0,1-1.53193-.46946,2.21367,2.21367,0,0,0-1.98034-.2867,8.8981,8.8981,0,0,0-.941.31583,3.33525,3.33525,0,0,1-3.40642-.31262,0.96713,0.96713,0,0,0-.8691-0.12324,3.8908,3.8908,0,0,0-.68361.23585,2.941,2.941,0,0,1-3.01471-.17024,1.60377,1.60377,0,0,0-1.31537-.17041,12.8329,12.8329,0,0,0-1.4426.515,2.246,2.246,0,0,0-1.06828.798,0.40412,0.40412,0,0,0-.04034.33839,0.26333,0.26333,0,0,0,.32426.07955,5.19292,5.19292,0,0,0,.50637-0.1924,4.91506,4.91506,0,0,1,1.76208-.3635,1.29063,1.29063,0,0,1,1.57259,1.01473,0.53054,0.53054,0,0,0,.73838.44058c0.55809-.12865,1.11687-0.25972,1.66533-0.42339a1.48428,1.48428,0,0,1,1.86484.43613,0.87489,0.87489,0,0,0,.96682.32579,3.18035,3.18035,0,0,0,1.295-.37938,3.32716,3.32716,0,0,1,3.20555-.22014,1.68528,1.68528,0,0,0,1.32089.00915,3.4902,3.4902,0,0,1,1.77491-.22828A4.63011,4.63011,0,0,0,76.29332,24.07636Z"/><path d="M66.55488,27.65408a5.00045,5.00045,0,0,0,2.31871-.36556,1.71577,1.71577,0,0,1,1.14006-.06783,25.06476,25.06476,0,0,1,2.5722.81873c0.77762,0.23925.84617,0.80919,0.19215,1.32506a1.81126,1.81126,0,0,1-.70152.39488,2.801,2.801,0,0,0-1.71432.70777,0.69359,0.69359,0,0,1-.60966.043,8.824,8.824,0,0,0-2.346.045,2.995,2.995,0,0,1-1.90116-.45006,2.76924,2.76924,0,0,0-1.20441-.28073,1.53367,1.53367,0,0,1-.53759-0.05286,1.17867,1.17867,0,0,1-.87168-0.82982,0.78019,0.78019,0,0,1,.64807-0.66456A4.49652,4.49652,0,0,1,66.55488,27.65408Zm-2.10773,1.159c0.62294,0.26724,1.188.52959,1.76934,0.74874a2.41266,2.41266,0,0,0,.71171.08878,9.63137,9.63137,0,0,0,4.70484-.919c-0.26264-.45021-0.7804.111-0.82763-0.05954-0.13581-.49039-0.431-0.43055-0.791-0.45684a2.21948,2.21948,0,0,0-1.22407.06988,4.38546,4.38546,0,0,1-2.4684.20284A2.92021,2.92021,0,0,0,64.44715,28.81306Z"/><path d="M12.50424,51.14192a1.54846,1.54846,0,0,1,.8741-0.59753,11.186,11.186,0,0,1,3.99639-1.0822,0.57986,0.57986,0,0,1,.59255.08056c0.20576,0.29109-.312.32154-0.24519,0.63464a2.8099,2.8099,0,0,0,.94073-0.17143,5.726,5.726,0,0,1,1.42583-.24135c0.21142,0.00209.50651-.02063,0.54034,0.21805,0.06783,0.4787.32425,0.29,0.56663,0.2253,0.72869-.19447,1.45157-0.41793,2.18939-0.56754,0.30109-.061.74486-0.25753,0.85753,0.32033,0.03274,0.16792.18617,0.113,0.29634,0.09209a1.61782,1.61782,0,0,1,.594-0.16714,7.0344,7.0344,0,0,1-1.91069.96212A0.32077,0.32077,0,0,1,22.978,50.768a0.23548,0.23548,0,0,1,.053-0.31978,1.06216,1.06216,0,0,0,.40168-0.42685,1.59639,1.59639,0,0,0-1.02324.136c-0.69564.19993-1.37682,0.44966-2.0674,0.668a0.55321,0.55321,0,0,1-.6-0.03631c-0.1934-.21253.11327-0.36708,0.15172-0.64421a6.87521,6.87521,0,0,0-2.5063.618,3.48515,3.48515,0,0,1-.48884.2299c-0.21734.04518-.49,0.304-0.65624,0.04265-0.17341-.27267.15992-0.39818,0.32678-0.54641,0.17857-.15862.37543-0.29666,0.55908-0.43961-0.09966-.28557-0.30262-0.163-0.46385-0.14986a8.69264,8.69264,0,0,0-3.42814,1.081C13.014,51.1,12.81889,51.37042,12.50424,51.14192Z"/><path d="M18.218,46.286c1.366-.18745,2.702-0.39192,4.05534-0.44682,0.28631-.01162.77756-0.14356,0.76119,0.19728-0.02143.44627-.47944,0.22108-0.80148,0.21215a13.18077,13.18077,0,0,0-3.3179.35148c-0.49916.11451-.99542,0.24169-1.49275,0.36407a1.01116,1.01116,0,0,1-.82928-0.01375,6.00911,6.00911,0,0,1,1.48146-1.262,0.57688,0.57688,0,0,0-.547-0.05529C16.39818,45.80555,15.272,46,14.1408,46.15939a3.625,3.625,0,0,0-.94275.29485,2.86883,2.86883,0,0,1-.50124.19511,0.27545,0.27545,0,0,1-.3519-0.20276,0.24452,0.24452,0,0,1,.18958-0.26339,2.644,2.644,0,0,1,.43086-0.13694c0.73477-.16622,1.4648-0.36663,2.208-0.479a22.90038,22.90038,0,0,0,2.83153-.52027,2.84689,2.84689,0,0,1,.62356-0.10507,0.55976,0.55976,0,0,1,.58836.34092c0.10271,0.28911-.13513.42249-0.3643,0.52539A1.109,1.109,0,0,0,18.218,46.286Z"/><path d="M40.54206,31.998a0.32865,0.32865,0,0,1,.188.50866,2.23706,2.23706,0,0,0-.04886,1.6341,7.79924,7.79924,0,0,1,.16383,1.69573,0.701,0.701,0,0,0,.23266.60584c0.36965-.498.189-1.15253,0.54567-1.65788-0.04221.86149,0.39831,1.69522,0.059,2.56733-0.06194.15921-.02177,0.41583-0.25233,0.41612a0.46537,0.46537,0,0,1-.54824-0.35212,0.5214,0.5214,0,0,0-.14069-0.42091c-0.30783-.09652-0.11031.578-0.53153,0.3624a0.61776,0.61776,0,0,1-.34864-0.73772c0.09056-.59485.1678-1.19173,0.25151-1.78762a0.31174,0.31174,0,0,0,.02383-0.086,6.23963,6.23963,0,0,1,.42359-2.76731Z"/><path d="M36.83313,37.39689c-0.20774-.30481.0412-0.632-0.14257-0.92187-0.43141.04371-.16477,0.61223-0.607,0.72951a5.96139,5.96139,0,0,1,.20214-2.07922,0.84993,0.84993,0,0,0,.04187-0.68848c-0.27995-.44778.04407-0.68391,0.43693-1.09518a11.13813,11.13813,0,0,0-.2983,2.45009c0.47748-.62625.42911-1.48952,1.06021-2.13,0.09133,0.62728-.42222,1.10472-0.207,1.71805,0.44192-.30642.37046-0.92767,0.85941-1.26243-0.09722,1.09371.25567,2.176-.38538,3.31136a5.40427,5.40427,0,0,1-.17592-1.51569C37.05884,36.27072,37.37512,37.01891,36.83313,37.39689Z"/><path d="M11.3367,56.95639a21.19224,21.19224,0,0,1,7.29408-1.49162c-0.26143.60972-.91748,0.60877-1.07622,1.20762a12.77312,12.77312,0,0,1,2.34527-.63c0.53887-.05256,1.08-0.0839,1.62067-0.11418a0.14871,0.14871,0,0,1,.17239.15833,0.1668,0.1668,0,0,1-.17779.16038,7.45785,7.45785,0,0,0-3.659.7096,6.15072,6.15072,0,0,1-.60446.18552,0.27826,0.27826,0,0,1-.26792-0.48444,1.14092,1.14092,0,0,0,.4574-0.61672,0.46787,0.46787,0,0,0-.50622-0.11693,19.21975,19.21975,0,0,0-3.816.68061,1.42792,1.42792,0,0,0-.65235.29244A0.785,0.785,0,0,1,11.3367,56.95639Z"/><path d="M46.35119,28.29725a1.45939,1.45939,0,0,1-.4071.32749,0.64315,0.64315,0,0,1,.12582-0.89081c0.278-.22754.01031-0.7016,0.242-1.01314,0.66813,0.11974.48656,0.84085,0.84674,1.18117,0.33308-.09306-0.01529-0.44852.21739-0.5804,0.16333,0.54788.04345,1.19844,0.66006,1.57542a0.52635,0.52635,0,0,1,.02477.5849c-0.06585.30648-.13483,0.70606,0.446,0.54753,0.18873-.05152.24069,0.14005,0.294,0.27458a1.78542,1.78542,0,0,1,.09964.9576,2.69494,2.69494,0,0,0-.49423-0.74547c-0.06581.66446,0.17065,1.29421,0.04149,1.9255-0.17777-1.01662-.75232-1.94457-0.635-3.026,0.01545-.14241-0.06938-0.35117-0.251-0.27826-0.8058.32358-.97676-0.21549-1.13676-0.79319A0.169,0.169,0,0,0,46.35119,28.29725Z"/><path d="M54.87754,36.00486c-0.15266-.02663-0.4599-0.43806-0.41336-0.065,0.07484,0.60008-.28021,1.09562-0.16875,1.72553a1.68731,1.68731,0,0,1-.74061-1.286,0.3469,0.3469,0,0,0-.09284-0.24891c-0.63265-.44832-0.39607-1.08173-0.37307-1.67144a2.94589,2.94589,0,0,0-.16407-1.70466,6.18589,6.18589,0,0,1,.72363.60762,0.91377,0.91377,0,0,1,.2166,1.0646,1.50085,1.50085,0,0,0,.21211,1.26778c0.25936-.48471-0.00406-0.98468.4229-1.51839-0.0088.7358,0.46412,1.20952,0.35514,1.85117Z"/><path d="M15.86244,59.22681c-0.03726.45137-.4714,0.46817-0.4348,0.85954,1.48055,0.0166,2.91431-1.03649,4.38523-.14666a2.71357,2.71357,0,0,1-.68321.29408,0.3532,0.3532,0,0,1-.4223.02879c-0.33948-.54536-0.79874-0.26289-1.214-0.20205-0.71489.10475-1.42413,0.2475-2.13777,0.36163a0.53065,0.53065,0,0,1-.59031-0.05442c-0.17728-.23781.13282-0.35809,0.18322-0.54555a1.45414,1.45414,0,0,0,.00221-0.26829,12.77645,12.77645,0,0,0-3.80318.92688,1.08549,1.08549,0,0,1-1.22991.039A17.36346,17.36346,0,0,1,15.86244,59.22681Z"/><path d="M69.92557,59.97813a7.972,7.972,0,0,1,2.60426-.74026c0.74975-.08476,1.51127.02972,2.25921-0.1207a0.43916,0.43916,0,0,1,.49578.13818,0.69121,0.69121,0,0,0,.99368.30634,13.97335,13.97335,0,0,1,4.30528.09055,2.09535,2.09535,0,0,1-1.26425.04074,10.82,10.82,0,0,0-3.5984.13149c-0.38032.05009-.90363,0.44386-1.07064-0.33458-0.03857-.17975-0.31306-0.11675-0.48654-0.12144a8.55825,8.55825,0,0,0-3.46345.54452A0.77641,0.77641,0,0,1,69.92557,59.97813Z"/><path d="M50.13715,35.65244c0.2683-.00217.1094,0.31155,0.31159,0.39212,0.4284-.7904.03844-1.65654,0.22866-2.4734,0.36731,0.787.01225,1.6869,0.41388,2.605,0.2574-.60111.08442-1.13517,0.28894-1.62448-0.21666,1.00652.64616,1.79341,0.556,2.80966-0.47229-.18-0.12991-0.73449-0.563-0.94648a4.39351,4.39351,0,0,0-.15434,1.01837c-0.982-.87529-0.982-0.87529-1.06327-1.79743Z"/><path d="M47.6194,37.19143a0.6423,0.6423,0,0,1-.58478-0.6737c-0.00866-.36-0.07966-0.71821-0.11524-1.078a1.51349,1.51349,0,0,0-.25444-1.1c-0.12978-.13167.00973-0.33823,0.14149-0.47412a0.9764,0.9764,0,0,1,.31233.58153c0.42685-.20454.52284,0.337,0.65871,0.33714a0.36225,0.36225,0,0,1,.33664.60627A6.89067,6.89067,0,0,0,47.6194,37.19143Z"/><path d="M31.64294,59.37969l0.663-.73208a22.677,22.677,0,0,0-4.39616.91487,6.65971,6.65971,0,0,1,2.41843-.87587,10.9876,10.9876,0,0,1,1.69055-.298c0.31569-.03154.827-0.32434,0.8317,0.389a0.15866,0.15866,0,0,0,.21169.11011,6.06892,6.06892,0,0,1,2.22824.24858,0.76548,0.76548,0,0,1,.45378.01527,0.65164,0.65164,0,0,1-.8017.17658,4.42866,4.42866,0,0,0-2.92146.07395A1.5748,1.5748,0,0,1,31.64294,59.37969Z"/><path d="M27.66993,46.15907c-0.88156.27627-1.18333,1.32305-2.28991,1.25153a13.279,13.279,0,0,1,1.11523-1.02534,0.84575,0.84575,0,0,0-.57859.02075c-1.13375.35653-2.38323,0.40319-3.33607,1.24661a0.3172,0.3172,0,0,1-.16841.05819,0.274,0.274,0,0,1-.36509-0.16135,0.21749,0.21749,0,0,1,.19231-0.2541c0.90891-.3141,1.81021-0.65729,2.73494-0.91619a6.59464,6.59464,0,0,1,2.0114-.473A0.75662,0.75662,0,0,1,27.66993,46.15907Z"/><path d="M18.84083,52.96614a2.31779,2.31779,0,0,1-1.3149.42975c-0.22929-.22851.13107-0.44575-0.01007-0.69177a1.77434,1.77434,0,0,0-1.11155.1435,7.5948,7.5948,0,0,0-2.90868,1.14376,0.29838,0.29838,0,0,1-.473-0.05868c-0.14026-.24008.0891-0.27793,0.25326-0.35141a27.37875,27.37875,0,0,1,4.39093-1.37149c0.19556-.05059.45634,0.00963,0.42472,0.19435C17.98307,53.03789,18.5193,52.79808,18.84083,52.96614Z"/><path d="M28.39569,55.95327c0.02147-.37607.52087-0.38752,0.58266-0.82312a7.27443,7.27443,0,0,0-2.08936.22894c-0.75151.10063-1.46429,0.36769-2.19822,0.52175-0.70249.14747-1.218,0.728-2.00793,0.834a0.95652,0.95652,0,0,1,.7259-0.60414,18.53579,18.53579,0,0,1,5.62484-1.29006,1.15652,1.15652,0,0,1,.2715.00435,0.31819,0.31819,0,0,1,.31164.12673,0.27169,0.27169,0,0,1-.16335.36842,2.54944,2.54944,0,0,1-1.07176.621Z"/><path d="M42.60249,33.77259A1.29,1.29,0,0,1,42.873,35.065a5.63216,5.63216,0,0,0-.06772,1.15513,1.922,1.922,0,0,1,.05031,1.25582,0.85814,0.85814,0,0,1-.58393-1.05166,0.60652,0.60652,0,0,0-.18253-0.72115,0.35492,0.35492,0,0,1-.05218-0.42135C42.20533,34.80853,42.38824,34.34044,42.60249,33.77259Z"/><path d="M30.88811,49.78569c-0.718.16622-1.4581,0.10606-2.17591,0.34524-0.45392.15125-.91955,0.27431-1.3684,0.44792a6.28386,6.28386,0,0,1-.68168.23557,0.30384,0.30384,0,0,1-.29535-0.52994,1.04329,1.04329,0,0,0,.34061-0.41723c-0.16359-.26488-0.44458-0.021-0.59447-0.11463-0.10173-.05959-0.093-0.10044-0.01571-0.14271a0.56354,0.56354,0,0,1,.08691-0.02366c0.30131-.10406.63233-0.38759,0.91465-0.08888,0.31065,0.32867-.23909.53233-0.27355,0.91708A9.47654,9.47654,0,0,1,30.88811,49.78569Z"/><path d="M44.0971,27.69915c0.0324-.38458.45823-0.7624,0.12553-1.23823-0.07672-.10972.27742-0.38125,0.33321-0.29576,0.32254,0.49428.90182-.61822,1.11876,0.20089a0.37189,0.37189,0,0,1,.00227.255c-0.66264.37774-.25267,1.05527-0.46084,1.58128-0.2535-.05008-0.55189.055-0.60014-0.41679C44.58,27.43451,44.2811,27.91918,44.0971,27.69915Z"/><path d="M44.05987,30.77627a0.50135,0.50135,0,0,0-.60063.50174,3.12131,3.12131,0,0,1-.30715,1.39168c-0.15526-.83758.262-1.58182,0.03115-2.35725-0.449.16541-.28437,0.65553-0.62407,0.93813a11.76581,11.76581,0,0,1,.0732-1.348,0.43153,0.43153,0,0,1,.63068-0.35619c0.27143,0.11389.51841,0.28858,0.80558,0.4104a0.67976,0.67976,0,0,1-.00452.82651Z"/><path d="M27.48211,52.82883a5.01756,5.01756,0,0,0-2.38238.66042c-0.22354.11038-.74274,0.47722-0.57326-0.318,0.04154-.19491-0.22563-0.15651-0.33975-0.10948a7.12449,7.12449,0,0,0-1.86476.894,0.27411,0.27411,0,0,1-.36915.07356,0.45879,0.45879,0,0,1,.36025-0.48416,17.80566,17.80566,0,0,1,2.61338-.9973c0.14439-.04782.37192-0.04356,0.35776,0.13537-0.0395.499,0.17358,0.359,0.46236,0.25389A2.04882,2.04882,0,0,1,27.48211,52.82883Z"/><path d="M64.527,45.90679c-1.13872-.37657-2.09784.29351-3.18561,0.53909a0.51987,0.51987,0,0,1,.49153-0.50315,8.18917,8.18917,0,0,1,2.49064-.36812c0.73894,0.0241.79094,0.13957,0.41844,0.90656,0.60414,0.18705,1.1715-.26922,1.79618-0.06694-0.63783.16091-1.23577,0.31782-1.83724,0.45976a0.47725,0.47725,0,0,1-.50933-0.07029c-0.15793-.22356.04811-0.38112,0.19873-0.53A0.32612,0.32612,0,0,0,64.527,45.90679Z"/><path d="M22.66833,59.88253c0.95857,0.01907,1.86616-.54416,2.8568-0.27849a15.90948,15.90948,0,0,0-2.9175.64805,0.44352,0.44352,0,0,1-.5011-0.10616c-0.15232-.19238.02638-0.32352,0.135-0.45916a0.30954,0.30954,0,0,0,.106-0.34673,7.89712,7.89712,0,0,0-1.59247.23385,3.33346,3.33346,0,0,1,2.32755-.54489C23.0935,59.38158,22.57876,59.47852,22.66833,59.88253Z"/><path d="M61.75152,59.83613a1.2184,1.2184,0,0,1,1.68514.10139,0.39,0.39,0,0,0,.349.20252,15.222,15.222,0,0,0,1.80137-.08723,3.93387,3.93387,0,0,1,1.74845.03736,37.999,37.999,0,0,0-4.95122.52373c-0.00936-.50787.55269-0.28154,0.58761-0.67173a1.429,1.429,0,0,0-1.223-.10473Z"/><path d="M49.12732,37.47351c-0.12667-1.06546-.24652-2.04176-0.35547-3.0193a2.22259,2.22259,0,0,1,.01483-0.5372,0.20441,0.20441,0,0,1,.23489-0.20978,0.1678,0.1678,0,0,1,.0674.28345c-0.0824.11693-.24236,0.25872-0.1106,0.39122a1.8577,1.8577,0,0,1,.30729,1.5138,0.72541,0.72541,0,0,0,.1415.49583C49.85244,36.93462,49.84166,36.94306,49.12732,37.47351Z"/><path d="M40.55992,31.97854c-0.47235-.12581-0.51512.44588-0.90164,0.5527-0.08466-.36371.31976-0.87289-0.29291-1.06487a0.14756,0.14756,0,0,1-.04547-0.231,3.76493,3.76493,0,0,0,.57125-1.59244,0.22092,0.22092,0,1,1,.4262.11488c-0.08194.38227-.17575,0.762-0.261,1.14356-0.08857.39655-.14963,0.779,0.43039,0.84435a0.77122,0.77122,0,0,1,.05529.25217Z"/><path d="M44.649,36.09189a1.34707,1.34707,0,0,1-.0844,1.20421c-0.39786-.14786-0.09549-0.55063-0.31682-0.73182-0.32081.06727-.12665,0.51706-0.52308,0.61841,0.00179-.415-0.33956-0.79928.239-1.14787a1.68544,1.68544,0,0,0,.19377-0.84989,0.8338,0.8338,0,0,1,.2632-0.75817,1.08046,1.08046,0,0,1-.004.72467c0.03347,0.33363-.18225.73728,0.25764,0.96268Z"/><path d="M29.38644,56.2293a0.27166,0.27166,0,0,1,.294-0.27246,3.57818,3.57818,0,0,1,2.17642.26247,0.70043,0.70043,0,0,0,.68569.0345,1.55177,1.55177,0,0,1,1.07035-.0132l-2.72951.674a0.957,0.957,0,0,1,.27942-0.67724,2.78669,2.78669,0,0,0-1.7923-.02815Z"/><path d="M52.22071,33.4479a2.41182,2.41182,0,0,1-.51039-0.628l-0.33868.4256a1.88365,1.88365,0,0,1-.33919-0.71761c-0.06987-.20921-0.222-0.40562.19534-0.465a0.621,0.621,0,0,0,.00128-0.58259,1.10619,1.10619,0,0,1-.05789-0.88932,4.75178,4.75178,0,0,1,.4474,1.54948C51.75685,32.59381,52.49839,32.74584,52.22071,33.4479Z"/><path d="M61.62484,56.41391L62.12242,56.596a0.99126,0.99126,0,0,1-1.015.184c0.02278-.42811.513-0.51444,0.61255-0.93959-0.57729-.37-1.24282.05247-1.83841-0.16313a8.41657,8.41657,0,0,1,1.68149-.22859,0.49013,0.49013,0,0,1,.52941.24118,0.52306,0.52306,0,0,1-.25767.44337C61.77842,56.20309,61.727,56.27692,61.62484,56.41391Z"/><path d="M44.67432,36.11413c0.26513-.50526.12591-1.12131,0.419-1.65865a3.66,3.66,0,0,1,.07869,2.6999c-0.30823-.29371.19916-0.98376-0.5209-1.06163Z"/><path d="M50.10161,30.98785a8.86593,8.86593,0,0,0,.40983,2.12793,0.59094,0.59094,0,0,1-.3741-0.63671,3.28,3.28,0,0,0-.86866-1.88671,0.257,0.257,0,0,1-.003-0.39961c0.22851-.16264.26992,0.07166,0.37444,0.20692,0.15879,0.20549.00881,0.66073,0.48377,0.61241Z"/><path d="M64.53726,52.55732a1.55061,1.55061,0,0,1-1.42133.49552,0.22623,0.22623,0,0,1-.242-0.293c0.02241-.1772.0698-0.35122,0.10805-0.53522-0.49393-.33859-0.97647.1932-1.52492,0.00777a4.5328,4.5328,0,0,1,1.19271-.287c0.55046-.03475.56658-0.04938,0.4859,0.5634-0.03555.27,0.10815,0.34215,0.2906,0.31325,0.37676-.05965.74565-0.16907,1.11777-0.258Z"/><path d="M45.89953,34.32027c0.063,0.961.59573,1.87208,0.19839,2.848a0.16414,0.16414,0,0,1-.22654-0.18132,6.38839,6.38839,0,0,0-.1937-2.439C45.651,34.4698,45.71982,34.3822,45.89953,34.32027Z"/><path d="M65.09063,49.48639c-0.02687.45947-.35962,0.304-0.59691,0.273-0.146-.0191-0.14162-0.1766-0.06626-0.28083a4.09016,4.09016,0,0,1,.30119-0.32771,0.25545,0.25545,0,0,0,.10492-0.30921,0.249,0.249,0,0,0-.30667-0.11337,2.2255,2.2255,0,0,1-1.04962.07858c0.41642-.12233.65291-0.21371,0.89791-0.25782a0.78551,0.78551,0,0,1,.7678.06475c0.24162,0.29558-.16346.44019-0.2677,0.66129-0.09948.211-.07165,0.36359,0.21718,0.2109Z"/><path d="M29.37055,56.20922c-0.49587.21873-.98828,0.446-1.49067,0.64859a0.36966,0.36966,0,0,1-.33368-0.047c-0.12475-.145-0.00174-0.27326.12285-0.36354a1.51608,1.51608,0,0,1,.72659-0.49405l-0.014-.01209c0.06263,0.10468.0198,0.30505,0.25482,0.24866a0.77056,0.77056,0,0,1,.747.03592Z"/><path d="M71.44774,56.69727a3.33711,3.33711,0,0,1-1.7215.28423c-0.11762-.29284.1466-0.38682,0.24026-0.55816,0.074-.1354-0.29155-0.50013.15969-0.40566,0.36063,0.07548.20375,0.342,0.053,0.55027a0.44363,0.44363,0,0,0,.05076.19333,5.25372,5.25372,0,0,1,1.236-.04681Z"/><path d="M43.20388,27.86615a1.10178,1.10178,0,0,1,.16846-1.3762,0.23512,0.23512,0,0,1,.31224-0.07919,0.26207,0.26207,0,0,1,.11913.307A2.444,2.444,0,0,1,43.20388,27.86615Z"/><path d="M35.02016,36.00027c0.47207,0.58912.40852,0.93888-.23331,1.49559A2.58525,2.58525,0,0,1,35.02016,36.00027Z"/><path d="M64.54407,52.564a10.21907,10.21907,0,0,1,2.98707.05662,29.3704,29.3704,0,0,1-2.99031-.06076Z"/><path d="M27.67306,46.80867a2.56141,2.56141,0,0,1,1.9933-.3C29.01949,46.73772,28.31689,46.55736,27.67306,46.80867Z"/><path d="M39.02125,33.88109a6.76549,6.76549,0,0,1-.11883,1.523C38.4096,34.81938,38.42513,34.66617,39.02125,33.88109Z"/><path d="M43.719,34.1358a2.07579,2.07579,0,0,1,.03346.996c-0.01489.11848-.0251,0.24323-0.18573,0.23173a0.24276,0.24276,0,0,1-.23072-0.23122A1.376,1.376,0,0,1,43.719,34.1358Z"/><path d="M52.98553,37.38014a0.63089,0.63089,0,0,1-.18574-0.02858,1.01409,1.01409,0,0,1-.144-1.07254,0.27109,0.27109,0,0,1,.24365-0.0116A1.15346,1.15346,0,0,1,52.98553,37.38014Z"/><path d="M40.757,28.76515a1.38325,1.38325,0,0,1,.09781,1.27257,4.3651,4.3651,0,0,1-.21325.69556,5.13671,5.13671,0,0,1,.1216-1.96922Z"/><path d="M50.89327,27.81031c0.38741,0.45.77859,0.897,1.15742,1.35412,0.04679,0.05646.05468,0.17431-.16269,0.28264a3.02713,3.02713,0,0,1-.976-1.65245Z"/><path d="M28.68027,53.73356a2.57544,2.57544,0,0,1,1.68289-.62751A4.1593,4.1593,0,0,1,28.68027,53.73356Z"/><path d="M44.77371,30.02349a2.39129,2.39129,0,0,1,.01173,1.351A0.9768,0.9768,0,0,1,44.77371,30.02349Z"/><path d="M52.40962,33.76992a4.07328,4.07328,0,0,1,.09118,1.34664A0.99413,0.99413,0,0,1,52.40962,33.76992Z"/><path d="M54.69551,33.99294a4.43286,4.43286,0,0,1-.71748-1.48569A1.46086,1.46086,0,0,1,54.69551,33.99294Z"/><path d="M63.34136,56.22576a4.01165,4.01165,0,0,1,1.79759-.01017A6.28063,6.28063,0,0,1,63.34136,56.22576Z"/><path d="M38.64713,36.508a0.96364,0.96364,0,0,1-.04365,1.33172A1.96515,1.96515,0,0,1,38.64713,36.508Z"/><path d="M50.15567,35.63583a1.52891,1.52891,0,0,1-.28417-1.65739,3.88536,3.88536,0,0,1,.26641,1.67321Z"/><path d="M31.021,52.90821l0.97424-.08056C31.584,53.37755,31.584,53.37755,31.021,52.90821Z"/><path d="M51.95519,30.56282a0.54106,0.54106,0,0,1,.43763.4048c0.06122,0.12325.169,0.26551,0.02189,0.38666a0.40555,0.40555,0,0,1-.25523.00925,0.258,0.258,0,0,1-.225-0.31651C51.93805,30.90337,51.94651,30.75983,51.95519,30.56282Z"/><path d="M59.61072,36.165a2.81687,2.81687,0,0,1-.67435-1.47835,2.33345,2.33345,0,0,1,.65694,1.4929Z"/><path d="M54.94849,32.745a1.60087,1.60087,0,0,1,.83781,1.00879l-0.15232.093Z"/><path d="M45.89947,31.34855c-0.24528.00345-.49236,0.00154-0.50211-0.33691a3.11792,3.11792,0,0,1,.114-1.15465c0.29046,0.55595-.00051,1.11881.36869,1.51187Z"/><path d="M46.90629,30.328a0.2372,0.2372,0,0,1,.09423-0.03194,0.52887,0.52887,0,0,1,.21982.7447,0.16545,0.16545,0,0,1-.15463.04486A0.572,0.572,0,0,1,46.90629,30.328Z"/><path d="M78.5306,55.61682a0.97654,0.97654,0,0,0,.59744.613C78.33809,56.34893,78.33809,56.34893,78.5306,55.61682Z"/><path d="M44.06411,30.78331a3.53962,3.53962,0,0,1,.25958,1.71389,2.74234,2.74234,0,0,1-.26357-1.71967Z"/><path d="M53.35118,30.78543a1.24822,1.24822,0,0,1,.43239.98032A0.702,0.702,0,0,1,53.35118,30.78543Z"/><path d="M54.44616,31.70252a0.44131,0.44131,0,0,1-.40725-0.34676,0.28263,0.28263,0,0,1,.06509-0.33242c0.19039-.10539.25252,0.07668,0.31731,0.20046A0.42976,0.42976,0,0,1,54.44616,31.70252Z"/><path d="M59.76558,60.17753a1.8264,1.8264,0,0,1-1.11763.41074A1.48431,1.48431,0,0,1,59.76558,60.17753Z"/><path d="M49.16864,31.90795a1.02034,1.02034,0,0,1,.28524,1.01721A0.92953,0.92953,0,0,1,49.16864,31.90795Z"/><path d="M62.72812,49.13577a1.32752,1.32752,0,0,1-.77327.43051A0.69257,0.69257,0,0,1,62.72812,49.13577Z"/><path d="M76.09166,56.00259a1.56781,1.56781,0,0,1-.87565.565A1.02491,1.02491,0,0,1,76.09166,56.00259Z"/><path d="M38.658,31.87345a1.78852,1.78852,0,0,1-.39843,1.11179A1.07325,1.07325,0,0,1,38.658,31.87345Z"/><path d="M41.92525,30.44684c-0.09038-.12633-0.17385-0.24289-0.25721-0.35953a0.26159,0.26159,0,0,1,.00887-0.32451,0.10657,0.10657,0,0,1,.15135-0.05418,0.27153,0.27153,0,0,1,.12023.299C41.94169,30.15252,41.93323,30.29732,41.92525,30.44684Z"/><path d="M55.77783,31.0951a1.03647,1.03647,0,0,0-.55591-0.21873c-0.11969.01133-.16314-0.15252-0.09642-0.271a0.22859,0.22859,0,0,1,.28011-0.1489,0.56515,0.56515,0,0,1,.41472.6032Z"/><path d="M50.12394,31.01208c0.08809-.14259-0.02149-0.44155.21229-0.43758,0.36707,0.00623.35625,0.30874,0.34525,0.60761a1.093,1.093,0,0,1-.57842-0.19256Z"/><path d="M65.09247,49.48595l1.19133-.15135a1.19554,1.19554,0,0,1-1.193.1517Z"/><path d="M45.88009,31.36885a0.7071,0.7071,0,0,1,.20914.93851,0.91344,0.91344,0,0,1-.19257-0.95585Z"/><path d="M44.95888,32.66091a0.47518,0.47518,0,0,1,.16478.75741A0.65054,0.65054,0,0,1,44.95888,32.66091Z"/><path d="M55.86229,56.81762a0.22421,0.22421,0,0,1-.24853.20655,0.23488,0.23488,0,0,1-.2522-0.20077c-0.00371-.16328.15645-0.13956,0.25833-0.15245C55.72976,56.65706,55.86157,56.65029,55.86229,56.81762Z"/><path d="M56.05712,32.12951a7.56268,7.56268,0,0,0-.27921-1.03448l0.0424-.03534a1.08194,1.08194,0,0,1,.23611,1.07116Z"/><path d="M41.91788,31.6247a0.47471,0.47471,0,0,1,.02244.50807c-0.03175.07237-.09488,0.06133-0.10807-0.028A0.43745,0.43745,0,0,1,41.91788,31.6247Z"/><path d="M61.74883,59.83744a1.82081,1.82081,0,0,1-.74985.00353,1.65945,1.65945,0,0,1,.75187-0.00466Z"/><path d="M68.19416,56.58308c-0.12032.1846-.23644,0.34392-0.494,0.203A0.37377,0.37377,0,0,1,68.19416,56.58308Z"/><path d="M13.3703,24.55841q0.07364,0.036.14747,0.07263a2.48244,2.48244,0,0,1-.269.20041,0.08138,0.08138,0,0,1-.12269-0.08082A0.21781,0.21781,0,0,1,13.3703,24.55841Z"/><path d="M64.41552,23.85528a0.15834,0.15834,0,0,1-.15478.18582,0.19893,0.19893,0,0,1-.22354-0.19892,0.2141,0.2141,0,0,1,.1985-0.23248A0.54569,0.54569,0,0,1,64.41552,23.85528Z"/><path d="M63.22966,23.64908a0.17276,0.17276,0,0,1-.20063.11939,0.193,0.193,0,0,1-.172-0.25174,0.18633,0.18633,0,0,1,.25674-0.16514A0.25612,0.25612,0,0,1,63.22966,23.64908Z"/><path d="M69.69327,23.48534a0.37579,0.37579,0,0,1-.38533-0.30691,0.32686,0.32686,0,0,1,.21238-0.10331,0.36864,0.36864,0,0,1,.33414.2597C69.879,23.43864,69.78943,23.4791,69.69327,23.48534Z"/></g><text x="0" y="115" fill="#000000" font-size="5px" font-weight="bold" font-family="'Helvetica Neue', Helvetica, Arial-Unicode, Arial, Sans-serif">Created by Olga</text><text x="0" y="120" fill="#000000" font-size="5px" font-weight="bold" font-family="'Helvetica Neue', Helvetica, Arial-Unicode, Arial, Sans-serif">from the Noun Project</text></svg>