<svg xmlns="http://www.w3.org/2000/svg" xmlns:xlink="http://www.w3.org/1999/xlink" version="1.1" x="0px" y="0px" viewBox="0 0 100 125" enable-background="new 0 0 100 100" xml:space="preserve"><path fill-rule="evenodd" clip-rule="evenodd" d="M18.186,53.879c1.958,2.131,4.162,4.018,6.543,5.728  c-0.331-4.78,0.651-8.58,2.726-11.18c1.942-2.433,5.237-3.455,7.089-5.999c-1.976,0.089-3.17,0.017-4.362-1.635  c-2.184,1.378-4.565-0.823-7.089-0.818c0.537-3.229,0.293-4.572,0.545-7.361c3.244,1.118,6.207,2.517,10.36,2.726  c0.079-0.723-1.457-2.172-2.181-2.999c-5.346,2.079-9.255-3.394-8.725-9.816c1.907-1.26,4.23-0.666,4.362,1.909  c4.4,0.128,8.549,0.004,8.998-3.817c1.69-1.191,4.334-0.703,5.181,1.09c0.489,0.035,0.575-0.334,1.091-0.273  c0.61-0.117,0.111-1.343,0.273-1.908c2.339-0.341,3.178,0.82,4.089,1.908c0.989-0.374,0.93-1.796,1.363-2.727  c1.74,0.805,3.327,1.763,4.634,3c1.207-0.338,2.031-1.059,3.272-1.362c0,0.908,0,1.817,0,2.726c1.754-2.864,4.163-5.157,7.636-5.726  c11.436-1.873,17.055,7.376,23.721,10.906c0.837-0.252,0.474-1.707,1.09-2.181c1.054,0.054,2.01,0.01,2.728-0.273  c0.195,1.076,0.339,2.208,0.816,3c-3.377,5.896-9.112,0.053-11.996-2.454c0.02,1.162,0.457,1.907,0.273,3.272  c-1.351-1.105-2.457-2.453-3.819-3.544c-1.18,1.093-1.785,2.758-4.09,2.727c1.341-2.207,1.517-5.454-1.361-5.999  c0.135,2.772-0.501,4.771-3.001,4.908c0.527-3.616-0.727-5.452-3.544-5.727c-0.41,0.77-0.48,1.882-0.546,3  c-0.439-1.518-3.099-2.104-4.905-1.364c-1.495,1.163-0.59,4.022,0.815,4.635c1.49-1.721,3.47-1.57,6.544-1.363  c-1.845,0.356-5.384,3.212-2.454,4.908c0.942-0.24,0.471-1.893,1.908-1.636c0.653,0.44,0.916,1.268,1.092,2.181  c7.127,1.803,19.246-2.959,21.813,3.544c1.451,3.681-0.754,7.511-3,9.27c1.927,2.912,3.605,4.748,3.545,8.179  c-0.133,7.278-7.903,16.323-0.545,21.54c0.487,3.217-2.083,3.371-3,5.181c-0.126,2.672,1.166,3.926,1.908,5.726  c-0.645,0.627-2.447,0.099-3.544,0.273c0-0.363,0-0.728,0-1.091c-0.372,1.265-2.079,1.192-3.816,1.091c0-0.363,0-0.728,0-1.091  c0.02,1.16-3.215,1.182-3.547,0.272c-0.471,1.278-5.531,1.322-5.998,0c-0.35,0.582-3.463,1.758-3.543,0  c-2.237,1.908-3.669-0.342-6.544,0.545c0.923-2.803,4.51-2.942,7.633-3.545c-0.067-2.533,0.919-5.003,0.546-6.816  c-0.815-3.964-6.792-5.527-5.724-11.45c-7.875-0.241-11.245,4.025-17.179,5.726c-0.943,1.421-2.208,2.519-2.181,4.907  c0.995,0.822,2.396,1.239,3.545,1.909c-1.188,1.901-2.605,3.575-5.726,3.544c-0.579,2.051,0.558,4.315-0.545,5.999  c-1.74,0.286-2.606-0.304-3.544-0.818c-0.393,0.061-0.096,0.813-0.546,0.818c-3.824,0.11-5.589-0.472-8.725-0.546  c-0.787-1.521,0.801-3.01,1.636-3.817c1.761-0.146,4.133,0.316,5.454-0.272c1.79-2.181,1.927-6.463,0.544-8.724  c-1.378-2.257-4.544-2.147-5.998-3.818c-2,0.937-3.618,2.673-6.271,2.181c-0.931-1.976-2.586-3.23-5.453-3.271  c-0.479-1.521-0.391-3.609-1.09-4.908c-0.615,0.202-0.107,1.528-0.273,2.181c-0.637,0-1.273,0-1.908,0  c0.98,1.933-0.672,2.986-0.546,4.908c0.081,0.556,0.738,0.534,0.819,1.09c1.135-0.319,1.905-1.001,2.999-1.362  c1.739,2.52-2.896,3.143-1.637,5.18c-1.024,0.521-2.711,0.38-2.181,2.454c-0.727,0-1.454,0-2.181,0  c-0.14-2.495-1.284-3.987-3.544-4.362c-0.004-1.187-0.09-2.453,0.272-3.271c0.732,0.358,1.449,0.732,2.181,1.091  c1.806-1.785-0.761-3.194,0.273-5.453c-0.117-0.61-1.344-0.111-1.908-0.273c-0.211-1.301,0.426-1.754,0.272-2.999  c0.546,0,1.092,0,1.636,0c-0.722-2.456-0.7-5.707-0.544-7.635c-2.892-0.818-4.644-6.812,0-7.088  c-0.22-13.852-1.063-28.328,7.361-33.537c0.316-0.044,0.484,0.061,0.544,0.272c-1.937,9.697-1.677,21.589-1.635,33.265  C19.146,48.76,20.521,51.959,18.186,53.879z M11.914,30.704c-0.391,6.296-0.286,15.05,0.818,18.541  c-0.32,0.588-0.565,1.251-0.818,1.908c0.943,0.419,2.486,0.24,3.817,0.272c0.825-0.96-0.754-1.264-0.544-2.454  c0.413-0.586,1.185-0.814,1.09-1.908c-0.312-10.854,0.444-22.095,1.091-31.083C14.233,19.158,12.333,23.974,11.914,30.704z   M25.819,60.696c1.027,4.771,5.151,7.997,9.27,9.815c0.348-2.651-0.706-6.704,0.546-8.452c1.348,2.022-0.289,5.683,0.271,8.726  c2.333,2.158,3.521,10.475-0.545,11.724c-2.265,0.695-5.019-1.06-5.998,1.636c2.452,1.123,5.98,1.254,8.724,0  c0.484,0.617,1.923,1.699,2.999,0.818c-0.562-1.478-0.362-4.538,0.274-5.726c2.165-0.289,4.225-0.683,4.907-2.454  c-1.125-0.601-2.474-0.979-3.271-1.909c-0.029-3.43,2.429-4.429,2.454-7.088c3.295-1.432,2.692-6.762,3.816-10.36  c1.717,4.133-1.355,9.018-2.454,11.178c5.845-2.293,10.5-6.156,17.449-5.999c4.431,0.102,6.854,3.618,10.09,6.271  c2.983,2.447,5.842,4.364,8.18,5.998c0,2.091,0,4.181,0,6.272c-2.087,1.185-5.94,2.055-6.544,3.816  c1.269-1.146,3.531,0.855,4.636-1.092c0.828,1.851,2.889,0.746,4.089,0c0.561,0.439,0.527,1.474,1.636,1.364  c0.16-1.255-1.652-2.887-1.092-5.454c0.305-1.406,3.252-1.851,3-4.089c-0.08-0.723-1.647-1.639-2.181-2.454  c-3.919-5.99,3.176-15.038,2.454-21.54c-0.319-2.867-2.826-4.858-3.817-6.815c1.705-1.242,3.438-2.659,3.817-4.636  c2.212-11.54-14.337-4.811-22.086-7.089c-0.097-0.813-0.157-1.66-0.816-1.909c-0.157,0.479,0.328,1.602-0.272,1.636  c-1.45-0.361-2.481-0.353-3.001-1.364c-0.809-1.579,0.964-3.061,0.272-3.816c-1.233-0.237-0.637,1.361-1.635,1.363  c-5.792-0.3-2.996-9.554,2.455-6.271c0.045-0.771-0.235-1.871,0.545-1.909c3.711,0.016,5.175,2.276,5.726,5.453  c0.985-2.015,0.533-5.465,1.361-7.635c-9.857-3.711-18.585,6.249-11.451,13.088c-1.077,0.479-1.698,3.18-0.271,3.817  c-0.026-1.207,0.954-1.407,1.907-1.636c4.817,5.054,24.048-3.043,25.63,3.544c0.287,1.2-0.167,3.38-0.818,4.363  c-3.67,5.54-21.435,0.954-29.992,2.726c-0.767,0.347,1.312,1.562,0.546,1.909c-1,0-2.001,0-3,0c-0.193,1.205,0.823,2.613,0,3.544  c-1.515-0.667-2.866-1.497-4.362-2.181c-0.966,1.124-2.25,1.931-3.544,2.727c0.048-1.412-0.559-2.168-0.818-3.272  c-1.464,0.263-1.203,2.25-2.453,2.727c-0.106-0.985-0.363-1.819-0.819-2.454c-0.701,1.299-1.738,2.26-2.726,3.271  c-0.169-0.739,0.345-2.163-0.273-2.453c-0.655,0.716-1.8,2.371-2.455,2.182c-0.344-1.019-0.351-2.375-1.09-2.999  c-0.495,0.25-2.125,0.758-2.454,0.272c0.199-0.992,1.106-2.7,0.818-3.272C28.573,47.71,24.176,53.061,25.819,60.696z M71.354,21.979  c1.905,0.721,4.28,2.15,2.999,5.18c1.447-0.098,1.057-2.033,1.636-2.999c1.343,0.84,1.993,2.369,3.544,2.999  c0.159-0.728-0.807-1.703,0-2.18c4.023,1.093,7.072,8.67,11.725,4.089c-0.386-0.705-0.024-2.159-1.092-2.181  c-1.343,0.111-0.876,2.03-1.635,2.727c-6.365-2.997-10.042-8.682-17.177-10.907C71.354,19.798,71.354,20.889,71.354,21.979z   M44.36,29.068c-2.117-0.428-3.716-1.374-5.999-1.636c-0.166,0.652,0.343,1.978-0.273,2.181c-1.248-0.296-2.748-0.342-3.544-1.091  c0.709-0.563,0.782-1.763,1.363-2.454c2.651-0.375,4.576,1.418,6.271,1.09c-0.375-0.281-1.616-1.081-1.09-1.363  c2.049,0.496,3.389,1.701,6.272,1.363c-0.06-1.03-0.857-1.323-1.091-2.18c2.179-0.548,5.403-0.049,5.998-2.182  c-0.461-1.54-2.009-1.991-3.272-2.727c0.072,1.618-1.057,2.033-2.181,2.454c-0.798-0.747-1.073-2.016-2.726-1.908  c0,0.544,0,1.09,0,1.635c-1.188,0.085-2.23,0.315-3.272,0.546c-0.094-1.918-2.419-2.245-3.818-1.364  c-0.586,4.139-5.444,4.006-10.087,4.091c-0.182-1.091-0.676-1.869-1.091-2.727c-0.945-0.219-1.048,0.406-1.908,0.272  c-0.349,5.485,3.401,10.976,8.179,7.907c1.333,1.758,2.622,3.558,4.089,5.181c-1.697-0.071,0.271,1.919,0,2.999  c-1.726,0-3.453,0-5.18,0c0-0.727,0-1.454,0-2.181c-2.466,0.002-4.245-1.163-6.544-0.545c0.09,1.091-0.485,1.514-0.273,2.727  c2.286,0.305,4.45,2.053,6.271,0.545c0.646,0.717,1.083,1.644,2.181,1.909c1.327-0.597,3.556-0.913,4.091,0.545  c0.553-0.628,0.978-1.384,1.635-1.909c0.24,0.76,0.34,1.659,0.819,2.181c0.802-0.379,0.927-1.436,2.181-1.363  c0.312,0.96,0.599,1.945,1.363,2.454c0.476-0.797,0.805-1.739,1.636-2.181c0.411,1.044,1.129,1.779,1.908,2.454  c0.019-1.071,0.132-2.049,0.545-2.726c0.814,0.004,0.928,0.709,1.636,0.819c0.292-0.255,0.085-1.006,0.818-0.819  c1.432,0.75,2.221,2.143,4.635,1.909c-0.075-3.105-2.065-4.296-4.089-5.453c-0.031,0.697-0.5,0.955-0.819,1.363  c-0.518-0.571-0.743-1.438-1.908-1.363c-0.813,2.94-2.731,4.866-4.362,1.636c-0.394,0.424-0.364,1.272-0.818,1.637  c-0.982-0.778-3.256-2.753-2.181-3.818c1.048,0.315,0.575,2.152,1.908,2.181c0.558-0.351,0.287-1.53,1.091-1.636  c0.762,0.782,1.21,1.881,2.181,2.454c-0.203-0.839,0.749-0.524,0.546-1.364c-0.337-0.791-2.218-1.061-1.364-2.181  c1.017,0.165,1.11,1.254,2.181,1.364c0.096-0.813,0.157-1.66,0.818-1.909c0.715,0.376,0.938,1.242,1.908,1.363  c0.32-0.408,0.339-1.115,0.819-1.363c1.323,1.402,2.9,2.551,4.362,3.817c0.19-1.372-0.461-1.9-0.273-3.272  c-1.718-0.736-3.031-1.875-3.544-3.816c-0.166,0.651,0.343,1.978-0.273,2.181c-1.11-0.527-1.392-1.88-2.726-2.181  c-0.442,0.558-0.213,1.786-0.818,2.181c-0.408-0.41-0.488-1.148-1.09-1.364c-0.03,0.697-0.5,0.955-0.819,1.364  c-0.111-0.343-0.352-0.558-0.818-0.546c-0.037,0.508-0.179,0.912-0.545,1.091c-0.58-0.42-1.016-0.984-1.636-1.363  c-0.402,0.688-1.054,1.127-1.908,1.363c-0.685-0.746-3.119-1.98-1.364-2.726c-0.086,1.085,1.261,0.738,1.364,1.635  c0.995-0.186,1.33-1.034,2.181-1.363c0.188,0.539,0.727,0.727,1.363,0.818c0.493-1.726,1.688-0.053,2.454-1.909  c-0.014,0.469,0.21,0.699,0.545,0.818c0.438-0.472,0.132-1.686,0.818-1.909c0.739,0.806,1.261,1.829,2.454,2.182  c0.283-1.626,0.082-3.736,0.818-4.908c1.009,2.989,0.819,7.177,4.362,7.634c-0.548-4.444,1.107-7.241-1.091-10.633  c0.763-0.964,1.889-1.565,1.908-3.272c-3.406,0.411-2.749,4.884-7.634,3.818c0.065,1.116,0.926,1.437,1.09,2.454  c-2.069-0.056-4.487,0.177-5.18,0C44.191,28.004,44.878,29.042,44.36,29.068z M54.721,25.524c2.475,3.226-0.082,6.833,1.09,10.905  c-0.483,0.062-1.364-0.274-1.09,0.545c0.416,1.288,0.988,3.396-0.272,4.09c0.405,0.413,0.439,1.196,0.546,1.909  c1.659,1.316,3.675,0.651,5.998,0.545c8.021-0.364,18.904,1.086,23.721-1.363c0.821-1.524,1.904-3.532,0.819-5.454  c-7.121-2.849-18.083,2.332-25.086-1.635c-0.643,0.447-0.307,1.875-0.818,2.454c-1.742-1.092-2.873-3.916-1.363-5.999  c-1.731-1.595-2.519-5.403-2.181-8.179C55.756,24.194,54.907,24.528,54.721,25.524z M35.907,28.25  c0.632-0.086,1.047,0.044,1.363,0.273c0-0.454,0-0.909,0-1.364c-0.363,0-0.727,0-1.091,0C36.2,27.635,36.12,28.008,35.907,28.25z   M31.272,35.885c-2.611,0.218-5.276-2.317-6.816-1.363C26.195,35.33,29.338,36.18,31.272,35.885z M32.09,38.338  c0.918-0.172,2.533,0.351,2.999-0.272c-0.404-0.413-0.438-1.196-0.545-1.909c-0.829,0.171-2.349-0.349-2.727,0.272  C32.427,36.547,31.927,37.774,32.09,38.338z M36.453,43.791c-0.273-0.363-0.449-0.822-0.817-1.09  c-0.381,1.352-2.016,2.886-1.364,4.363c0.17-0.648,1.679,0.042,1.908-0.545c0.174,0.917,0.194,1.987,0.818,2.454  c0.794-1.023,1.704-1.932,2.728-2.727c0.167,0.652-0.342,1.979,0.273,2.181c0.753-0.792,1.295-1.793,2.18-2.454  c0.412,0.497,0.29,1.528,0.819,1.909c0.711-0.834,0.979-2.111,1.908-2.727c0.6,1.308,0.855,2.963,1.908,3.817  c0.747-0.89,1.848-1.424,2.727-2.182c0.979,0.748,2.231,1.224,3.272,1.909c0.173-0.918-0.352-2.533,0.271-3c0.729,0,1.453,0,2.181,0  c0.002-0.909-0.886-0.931-0.816-1.909c-2.459,0.907-3.365-0.86-5.181-1.363c-0.55,1.178-0.993,0.44-1.908,0  c-0.248,1.116-0.27,2.457-0.818,3.272c-0.834-0.892-1.373-2.081-2.454-2.727c-0.671,0.783-0.97,1.938-1.91,2.455  c-0.264-1.189-0.944-1.964-1.362-3c-1.089,0.274-1.565,1.162-2.454,1.636c0.026-0.844-0.123-1.512-0.544-1.908  C37.33,42.668,37.079,43.418,36.453,43.791z M9.187,51.698c0.522,0.659,1.68,0.684,1.91,1.636c3.638,1.339,9.069-0.229,7.361-3.544  c-0.21-0.406-1.372-1.352-2.181-0.817c-0.277,1.275,1.093,0.906,0.818,2.181c-0.934,1.955-6.048,1.273-6.817-0.273  c0.572-0.518,1.438-0.742,1.363-1.908C10.128,47.458,8.685,49.515,9.187,51.698z M11.914,55.244c1.191-0.357,2.463,0.604,2.999,0  c-1.083-0.279-1.404-1.322-2.999-1.092C11.914,54.517,11.914,54.88,11.914,55.244z M17.368,62.06  c2.25-0.069,1.008,3.354,1.908,4.636c2.587,0.502,4.121,2.059,5.726,3.544c1.792-0.388,3.333-1.028,4.362-2.181  c-1.566-1.162-2.395-3.058-3.545-4.635c-1.443-4.194-6.21-6.515-8.725-8.726C18.325,56.365,18.311,59.681,17.368,62.06z   M11.641,56.88c0.883,0.661,2.729,0.361,3.545,1.089C15.907,55.887,12.238,55.898,11.641,56.88z M11.914,59.332  c1.48-0.206,2.208,0.337,3.545,0.274c-0.276-1.362-2.016-1.258-3.545-1.365C11.914,58.606,11.914,58.969,11.914,59.332z   M12.459,60.423c-0.06,0.517,0.308,0.602,0.273,1.093c0.829-0.172,2.348,0.348,2.728-0.273  C14.611,60.728,13.623,59.83,12.459,60.423z M10.823,63.696c0.037,0.78,1.871-0.237,1.909,0.543  c0.083,1.267-0.002,2.361-0.544,3.001c2.182,0.973-0.009,5.853-2.183,4.09c0.843,1.976,3.298,2.338,3.272,5.181  c1.038,0.218,0.348-1.289,0.545-1.909c0.565-0.162,1.791,0.337,1.909-0.272c-0.542-0.275-1.165-0.471-1.364-1.091  c1.643-0.084,2.428-1.026,3.272-1.908c-1.04-0.041-1.313,0.686-2.18,0.818c-0.438-1.02-1.697-1.213-1.91-2.454  c0.707-2.249,1.082-2.958,0.546-5.455c0.636,0,1.271,0,1.908,0c0-0.635,0-1.27,0-1.908C13.538,62.047,12.139,62.829,10.823,63.696z   M69.99,75.147c0.439,2.071-0.082,5.572-1.092,7.907c-1.212,0.969-4.099,0.262-5.182,1.362c3.657,0.903,6.452-0.316,10.363,0.818  c-0.126-2.147-0.787-3.758-0.819-5.998c0.563-1.709,2.322-2.223,3.001-3.818c-0.457-0.725-2.516,0.152-3.001-0.545  c-0.589-1.971-0.141-3.758,0.819-4.907c-3.1-2.263-4.824-5.901-9.817-6.271C63.212,69.114,69.157,71.231,69.99,75.147z   M74.353,74.329c0.918,0.172,2.532-0.352,2.998,0.272c-0.229,0.68-0.357,1.46-0.273,2.454c-3.023-0.453-3.108,4.502-1.908,7.089  c1.559-1.805,4.1-2.626,6.545-3.544c0-1.818,0-3.636,0-5.453c-2.571-1.156-4.363-3.091-6.817-4.362  C74.065,71.235,73.729,73.293,74.353,74.329z"/><text x="0" y="115" fill="#000000" font-size="5px" font-weight="bold" font-family="'Helvetica Neue', Helvetica, Arial-Unicode, Arial, Sans-serif">Created by Raashid.A</text><text x="0" y="120" fill="#000000" font-size="5px" font-weight="bold" font-family="'Helvetica Neue', Helvetica, Arial-Unicode, Arial, Sans-serif">from the Noun Project</text></svg>