<svg xmlns="http://www.w3.org/2000/svg" xmlns:xlink="http://www.w3.org/1999/xlink" version="1.1" x="0px" y="0px" viewBox="0 0 100 125" enable-background="new 0 0 100 100" xml:space="preserve"><path d="M41.5166016,28.4335938c0.0615234,0.222168,0.2626953,0.3676758,0.4824219,0.3676758  c0.0439453,0,0.0878906-0.0058594,0.1328125-0.0180664c0.2253418-0.0617065,0.3631592-0.2701416,0.3578491-0.4942017  c0.3214111-0.2739868,0.9348755-0.890625,1.2788696-1.8539429c0.0048828-0.0092773,0.4375-0.9077148,1.5966797-1.4311523  c0.2519531-0.1132813,0.3642578-0.4091797,0.2509766-0.6611328c-0.1142578-0.2524414-0.4130859-0.3637695-0.6611328-0.25  c-1.5195313,0.6845703-2.0742188,1.8789063-2.1123047,1.9672852c-0.170166,0.4743042-0.418396,0.8369751-0.6394043,1.0969238  l-1.5998535-5.8225098c0.1416016,0.0883789,0.3105469,0.2260742,0.5019531,0.4399414  c0.1845703,0.206543,0.5,0.2236328,0.7060547,0.0400391c0.2060547-0.184082,0.2236328-0.5,0.0400391-0.7060547  c-0.005249-0.0058594-0.0100708-0.0090942-0.0153198-0.0148926c0.0335693-0.0206909,0.069458-0.0365601,0.0983276-0.0656738  c0.0146484-0.0146484,1.4853516-1.4453125,6.4658203-1.4453125c0.0351563,0.0004883,0.0644531,0.0092773,0.1054688,0  c0.0390625-0.0063477,0.0703125,0,0.1054688,0c4.9462891,0,6.4306641,1.4111328,6.4638672,1.4448242  c0.0288086,0.0299683,0.0649414,0.0464478,0.0986328,0.067749c-0.0046997,0.005188-0.0089722,0.0080566-0.0136719,0.0133057  c-0.1835938,0.2060547-0.1660156,0.5219727,0.0400391,0.7060547c0.2070313,0.1835938,0.5224609,0.1665039,0.7060547-0.0400391  c0.1914063-0.2143555,0.3603516-0.3525391,0.5019531-0.440918l-1.8779297,6.8354492  c-0.0732422,0.2661133,0.0839844,0.5415039,0.3496094,0.6142578c0.0449219,0.012207,0.0888672,0.0180664,0.1328125,0.0180664  c0.2197266,0,0.4208984-0.1455078,0.4824219-0.3676758l2.0820313-7.5776367  c0.0644531-0.2353516-0.0507813-0.4829102-0.2714844-0.5859375c-0.0783081-0.0365601-0.6439209-0.2608643-1.4146118,0.2139893  c-0.0217896-0.0501099-0.0471802-0.0993652-0.0863647-0.1417236c-0.0157471-0.0168457-0.1211548-0.1237793-0.3362427-0.2746582  c0.0057373-0.0147705,0.0213013-0.0217896,0.0256958-0.0373535c0.0166016-0.0600586,0.4033203-1.4790039-0.4882813-2.6523438  c-0.0556641-0.0727539-0.1298828-0.1289063-0.2148438-0.1625977c-0.0625-0.0244141-0.2890625-0.0981445-0.5634766,0.0322266  c-0.2695313,0.1298828-0.4726563,0.4125977-0.6044922,0.8398438c-0.0800781,0.2641602,0.0683594,0.543457,0.3320313,0.6245117  c0.2021484,0.0634766,0.4160156-0.0102539,0.5390625-0.168457c0.1291504,0.4161377,0.1015015,0.8041382,0.069397,1.0262451  c-1.0646362-0.4729614-2.9161377-0.9871826-5.9522095-0.9871826c-0.036377-0.0001221-0.0701294,0.0108643-0.1055908,0.0158691  c-0.0354004-0.0050049-0.0690918-0.0159912-0.1053467-0.0158691c-3.0355835,0-4.8874512,0.5142212-5.9523315,0.9871826  c-0.0324097-0.2216187-0.06073-0.6090698,0.0685425-1.0267334c0.125,0.1582031,0.3378906,0.2324219,0.5400391,0.1689453  c0.2636719-0.0810547,0.4121094-0.3603516,0.3320313-0.6245117c-0.1318359-0.4272461-0.3349609-0.7099609-0.6044922-0.8398438  c-0.2744141-0.1303711-0.5009766-0.0566406-0.5634766-0.0322266c-0.0849609,0.0336914-0.1591797,0.0893555-0.2148438,0.1621094  c-0.8925781,1.1738281-0.5048828,2.5932617-0.4882813,2.6533203c0.0043945,0.0153809,0.0197754,0.0222778,0.0254517,0.0368652  c-0.2150879,0.1508789-0.3204956,0.2578125-0.3359985,0.2746582c-0.0395508,0.0424805-0.0654297,0.0916138-0.0872192,0.1417236  c-0.7713013-0.4748535-1.3361816-0.2505493-1.4137573-0.2139893c-0.2207031,0.1030273-0.3359375,0.3505859-0.2714844,0.5859375  L41.5166016,28.4335938z"/><path d="M44.7764893,16.7374268c-0.0362549,0.0063477-0.0808716,0.0140991-0.0889893,0.0155029  c-0.2724609,0.0493164-0.4521484,0.3095703-0.4033203,0.581543c0.0439453,0.2412109,0.2548828,0.4106445,0.4912109,0.4106445  c0.0302734,0,0.0595703-0.0024414,0.0898438-0.0078125c0.0234375-0.0043945,2.3417969-0.4321289,3.6259766-0.387207  c0.0048218-0.0001221,0.0094604-0.0028076,0.0142822-0.0031128c0.005249,0.0003052,0.0097656,0.0029907,0.0150146,0.0031128  c1.2480469-0.0527344,3.6025391,0.3823242,3.6259766,0.387207c0.0302734,0.0053711,0.0595703,0.0078125,0.0898438,0.0078125  c0.2363281,0,0.4472656-0.1694336,0.4912109-0.4106445c0.0488281-0.2719727-0.1308594-0.5322266-0.4033203-0.581543  c-0.0080566-0.0014648-0.0526123-0.0092163-0.0889282-0.015564c0.0926514-0.1715698,0.2044678-0.3455811,0.3379517-0.4678345  c0.1035156-0.0947266,0.1621094-0.2285156,0.1621094-0.3686523v-0.9091797c0-0.1733398-0.0898438-0.3344727-0.2373047-0.425293  c-0.0231323-0.0142822-0.2442627-0.1477051-0.6341553-0.3115845c0.0529785-0.2399292,0.1228027-0.4539185,0.1732178-0.5072632  c0.0537109-0.0351563,0.0996094-0.0805664,0.1357422-0.1333008c0.3759766-0.5463867,0.8525391-1.855957-0.0302734-2.8999023  c-0.0351563-0.0415039-0.0771484-0.0771484-0.1240234-0.1054688c-0.0353394-0.0210571-0.5435181-0.31427-1.335083-0.5610962  c0.3296509-0.7474976,0.395813-1.8498535-0.6971436-2.9140015c-0.5117188-0.5366211-0.9804688-1.2202148-0.9824219-1.4301758  c0.0009766-0.0112305-0.0038452-0.0211792-0.0036011-0.0322876c-0.0004272-0.0177612,0.005127-0.0372314,0.0036011-0.0546265  c-0.0016479-0.0186157-0.0116577-0.0330811-0.0153809-0.0507813c-0.0072021-0.0368652-0.0167847-0.071106-0.0317993-0.1047974  c-0.0078735-0.0164795-0.0162354-0.0316162-0.0259399-0.046875c-0.0789795-0.1359863-0.2128906-0.2374878-0.3809814-0.2521362  c-0.2880859-0.0200195-0.5175781,0.1796875-0.5419922,0.4545898c-0.001709,0.0197754,0.0044556,0.0418091,0.0040894,0.0620117  c-0.0003662,0.0070801-0.0040283,0.0133667-0.0040894,0.0205078c-0.0019531,0.2133789-0.4707031,0.8969727-0.9707031,1.421875  c-1.1021729,1.0733643-1.0380249,2.1782837-0.7088623,2.9265747c-0.791626,0.2468872-1.2997437,0.5401611-1.335083,0.5612183  c-0.046875,0.0283203-0.0888672,0.0639648-0.1240234,0.1054688c-0.8828125,1.0439453-0.40625,2.3535156-0.0302734,2.8999023  c0.0361328,0.0527344,0.0683594,0.0869141,0.1210938,0.1225586c0.0604248,0.0610962,0.1329346,0.276062,0.1870728,0.5183716  c-0.3892822,0.1636963-0.6102295,0.296936-0.6333618,0.3112183c-0.1474609,0.0908203-0.2373047,0.2519531-0.2373047,0.425293  v0.9091797c0,0.1401367,0.0585938,0.2739258,0.1621094,0.3686523  C44.5719604,16.3917847,44.6838989,16.5658569,44.7764893,16.7374268z M48.5220947,16.3504639  c-0.0005493,0-0.0010376-0.0003662-0.0015869-0.0003662c-0.0045166-0.0001221-0.0100708,0.0003052-0.0146484,0.0001831  c-0.0045776,0.0001221-0.0100708-0.0003052-0.0146484-0.0001831c-0.0005493,0-0.0010376,0.0003662-0.0015869,0.0003662  c-0.7911377-0.0160522-1.867981,0.109375-2.6785889,0.2251587c-0.112793-0.2603149-0.2838745-0.5914307-0.534668-0.8768921  V15.293457c0.4717407-0.225647,1.6200562-0.6821289,3.2294922-0.7109985  c1.609436,0.0288696,2.7577515,0.4853516,3.2294922,0.7109985v0.4052734  c-0.2507324,0.2853394-0.421875,0.616394-0.5346069,0.8766479C50.3910522,16.4597168,49.3153076,16.3344116,48.5220947,16.3504639z   M47.7470703,7.824707c0.1894531-0.1982422,0.4953003-0.5407104,0.7588501-0.9230957  c0.2652588,0.3847046,0.574646,0.730896,0.7704468,0.9353027c0.8838501,0.8615112,0.6297607,1.609314,0.4070435,1.9745483  c-0.3612671-0.06073-0.7463989-0.1044312-1.1609497-0.1044312c-0.0056763-0.0001221-0.010376,0.0028076-0.0160522,0.0028687  c-0.0057983,0.0001221-0.0113525-0.0032959-0.0171509-0.0028687c-0.4157715,0-0.802002,0.0438232-1.1640625,0.1048584  C47.1101685,9.4570923,46.848938,8.7004395,47.7470703,7.824707z M45.6298828,12.9946289  c-0.1201172-0.203125-0.5019531-0.9516602-0.0488281-1.5688477c0.2929688-0.1577148,1.4404297-0.71875,2.9082031-0.71875  c0.0048828,0,0.0107422,0,0.015625,0h0.0009766h0.0009766c0.0048828,0,0.0097656,0,0.015625,0  c1.4550781,0,2.6132813,0.5620117,2.9082031,0.7192383c0.453125,0.6171875,0.0722656,1.3632813-0.0488281,1.5683594  c-0.2472534,0.2249756-0.3840942,0.5940552-0.4677124,0.9337769c-0.6361694-0.1787109-1.4413452-0.3300171-2.3994751-0.3463745  c-0.0032349-0.000061-0.0056763,0.0015869-0.0089111,0.0015869c-0.0030518,0-0.0056152-0.0016479-0.008667-0.0015869  c-0.9581909,0.0163574-1.7634277,0.1677246-2.3996582,0.3464355C46.0136719,13.5888062,45.8766479,13.2196655,45.6298828,12.9946289  z"/><path d="M53.7568359,22.2050781c-0.1464844-0.0170898-3.609375-0.4257813-5.2470703-0.4379883c-0.0009766,0-0.0029297,0-0.0039063,0  c-1.828125,0-5.1171875,0.4208984-5.2558594,0.4384766c-0.2744141,0.0356445-0.4677734,0.2861328-0.4326172,0.5600586  c0.0322266,0.2519531,0.2480469,0.4360352,0.4951172,0.4360352c0.0214844,0,0.0429688-0.0014648,0.0644531-0.0039063  c0.0341797-0.0043945,3.3612671-0.4302368,5.1265259-0.430603c0.3023682,0.0022583,0.6757813,0.0193481,1.0814819,0.0453491  c0.0601196,0.0328369,0.1838989,0.1157837,0.2578125,0.2758789c0.1201172,0.2583008,0.0810547,0.6445313-0.1123047,1.1166992  c-0.1044922,0.2553711,0.0175781,0.5473633,0.2734375,0.6523438c0.0615234,0.0253906,0.1259766,0.0371094,0.1894531,0.0371094  c0.1962891,0,0.3837891-0.1171875,0.4628906-0.3105469c0.2612915-0.6385498,0.3101807-1.1972046,0.1700439-1.675415  c1.4163208,0.1246948,2.7914429,0.2869263,2.8133545,0.2896729c0.0195313,0.0024414,0.0400391,0.003418,0.0595703,0.003418  c0.2490234,0,0.4658203-0.1870117,0.4951172-0.440918C54.2275391,22.4863281,54.03125,22.237793,53.7568359,22.2050781z"/><path d="M52.0927734,23.7973633c-0.2636719-0.0683594-0.5361328,0.0947266-0.6044922,0.3613281  c-0.0673828,0.2661133,0.09375,0.5380859,0.359375,0.6079102c0.0087891,0.0024414,0.8818359,0.2387695,1.4375,1.0527344  c0.0976563,0.1416016,0.2539063,0.2177734,0.4130859,0.2177734c0.0976563,0,0.1962891-0.0283203,0.2822266-0.0874023  c0.2275391-0.1557617,0.2861328-0.4667969,0.1308594-0.6948242C53.3339844,24.1186523,52.1435547,23.8095703,52.0927734,23.7973633z  "/><path d="M49.9375,12.4887695c0.0546875-0.2709961-0.1210938-0.5341797-0.3925781-0.5883789  c-1.6630859-0.3339844-2.8564453,0.2724609-2.90625,0.2988281c-0.2431641,0.1269531-0.3378906,0.4267578-0.2119141,0.6713867  c0.0888672,0.171875,0.2636719,0.2709961,0.4453125,0.2709961c0.0761719,0,0.1542969-0.0175781,0.2265625-0.0541992  c0.0107422-0.0048828,0.9443359-0.4663086,2.2509766-0.206543C49.6074219,12.9335938,49.8828125,12.7602539,49.9375,12.4887695z"/><path d="M29.4208984,79.6616211c0.0683594,0.6445313,0.4384766,3.7836914,1.3173828,5.3237305  c0.0524292,0.0912476,0.1364746,0.1520996,0.2298584,0.1951904c0.173645,1.2063599,0.5621948,4.1478882,0.4537354,5.647583  c-0.0107422,0.1557617,0.0517578,0.3081055,0.1689453,0.4116211l3.3652344,2.9628906  c0.0917969,0.0805664,0.2089844,0.1245117,0.3300781,0.1245117c0.0283203,0,0.0576172-0.0024414,0.0859375-0.0073242  c0.3076172-0.0537109,0.8388672-0.1884766,1.09375-0.5029297l1.2324219-1.1484375  c0.0770264-0.0716553,0.1171875-0.1636963,0.1382446-0.2592163c0.2846069,0.1907349,0.6207275,0.3070679,1.0170288,0.3070679  c0.2597656,0,0.4765625-0.199707,0.4980469-0.4589844c0.0109863-0.1291504,0.2171021-2.7962036-0.5464478-4.7300415  c0.0083618,0.0025024,0.0144043,0.008728,0.0230103,0.0108032c0.6894531,0.168457,1.3662109,0.2441406,2.0273438,0.2441406  c6.0537109,0,10.7822266-6.3657227,11.0009766-6.6655273c0.0978394-0.1335449,0.1109009-0.2969971,0.0644531-0.4436035  c0.0007935-0.0021362,0.0031738-0.0029907,0.0039063-0.005127c0.0917969-0.2602539-0.0449219-0.5458984-0.3056641-0.637207  c-6.8232422-2.3974609-11.4091797-5.9160156-12.4912109-6.7954102l0.3076172-1.0141602  c0.753418,0.4812012,2.2416382,1.3169556,4.519104,2.1343994c0.0914307,0.081604,0.1992188,0.1400146,0.3217163,0.1400146  c0.0164185,0,0.0324097-0.0085449,0.0487671-0.0101318c2.010498,0.6931763,4.6002197,1.3557739,7.8105469,1.7633057  l-0.399353,0.4450684c-0.1328125,0.1484375-0.1650391,0.3618164-0.0820313,0.5429688l2.8291016,6.1552734  c0.0820313,0.1777344,0.2597656,0.2910156,0.4541016,0.2910156c0.0068359,0,0.0146484,0,0.0214844-0.0004883  c0.203125-0.0087891,0.3808594-0.1396484,0.4492188-0.3310547l0.9589844-2.6806641  c0.0927734-0.2602539-0.0419922-0.5463867-0.3027344-0.6391602c-0.2597656-0.0942383-0.5458984,0.0429688-0.6386719,0.3022461  l-0.5458984,1.5263672l-2.1796875-4.7431641l1.609375-1.7944336l1.8232422,1.7392578  c0.1992188,0.1899414,0.5166016,0.1826172,0.7060547-0.0166016c0.1914063-0.199707,0.1835938-0.5161133-0.0166016-0.7070313  l-0.3668823-0.3500977c0.729126-0.3024902,1.8479614-0.8362427,2.786438-1.5609131  c0.0011597-0.0006714,0.0019531-0.0015869,0.0031128-0.0022583c0.0441895-0.0341187,0.0916748-0.0644531,0.1349487-0.0994263  l0.0888672,0.3120117c-0.0947266,0.5883789-0.640625,3.6088867-2.0488281,4.9033203  c-0.203125,0.1870117-0.2158203,0.503418-0.0292969,0.706543c0.0986328,0.1074219,0.2333984,0.1616211,0.3681641,0.1616211  c0.1210938,0,0.2421875-0.043457,0.3388672-0.1318359c1.8203125-1.6743164,2.3554688-5.4438477,2.3769531-5.6035156  c0.0097656-0.0683594,0.0048828-0.1376953-0.0136719-0.2041016l-0.3398438-1.1982422  c-0.0422974-0.147644-0.1563721-0.2537231-0.295166-0.3118286c0.4207764-2.6382446-0.8599854-6.4277954-0.9196777-6.6002808  c-0.333252-1.1038208-0.3374023-2.9909668-0.2545166-4.6397705c0.1297607,0.4522705,0.3010864,0.9932251,0.512146,1.5735474  c0.0010376,0.0031738,0.0023804,0.0061646,0.003418,0.0093384c0.2276611,0.624939,0.4960938,1.2819824,0.8161011,1.9016113  c0.0039063,0.0131836,0.4082031,1.3330078,0.4794922,2.1040039c0.0233154,0.1428223,0.4770508,2.7855225,1.9961548,5.5107422  c-0.3579712-0.3267822-0.7172852-0.4595947-0.7442017-0.46875c-0.2617188-0.0869141-0.5449219,0.0532227-0.6328125,0.3144531  c-0.0878906,0.262207,0.0527344,0.5454102,0.3144531,0.6337891c0.0058594,0.0019531,0.6386719,0.2333984,0.7714844,0.9438477  c0.1650391,0.8847656-0.328125,3.0087891-5.484375,7.2915039c-0.1357422,0.1132813-0.2021484,0.2895508-0.1738281,0.4643555  c0.0126953,0.0839844,1.3466797,8.465332,0.5302734,12.2358398c-0.0585938,0.2700195,0.1123047,0.5361328,0.3828125,0.5947266  c0.0351563,0.0078125,0.0712891,0.0112305,0.1054688,0.0112305c0.2304688,0,0.4375-0.159668,0.4882813-0.394043  c0.6022339-2.7783203,0.1296387-7.6948242-0.2246704-10.4996338c2.1700439,0.6488647,3.947998,0.9844971,5.328186,0.9844971  c0.5877075,0,1.1008911-0.0633545,1.552063-0.180542c1.2683716,2.7365112,0.8872681,3.5834351,0.6452026,3.8143311  c-0.8212891,0.7836914-3.8017578-0.3041992-5.6552734-1.3266602c-0.2421875-0.1333008-0.5458984-0.0444336-0.6787109,0.1962891  c-0.1337891,0.2416992-0.0458984,0.5458984,0.1962891,0.6791992c0.6386719,0.3530273,3.2373047,1.7172852,5.1894531,1.7172852  c0.6494141,0,1.2275391-0.1513672,1.6376953-0.5419922c0.8723145-0.8309326,0.7307739-2.4499512-0.4069214-4.9182739  c0.0320435-0.019165,0.0703735-0.0327759,0.1012573-0.0529175c0.2314453-0.1508789,0.2958984-0.4609375,0.1455078-0.6918945  c-0.1503906-0.2314453-0.4589844-0.2954102-0.6923828-0.1459961c-0.1154175,0.0752563-0.2570801,0.1453857-0.4232178,0.2079468  c-0.0023804,0.0011597-0.0050659,0.0007935-0.0074463,0.0020142c-0.0006104,0.0003052-0.0009155,0.0008545-0.0015259,0.0011597  c-1.0037842,0.3739014-3.0054932,0.4342651-7.0082397-0.8063354c-0.0213013-0.0064697-0.0422363-0.0026855-0.0635986-0.0062866  c-0.0444336-0.3167114-0.0830078-0.5783081-0.1102295-0.756897c4.0820313-3.4291992,5.96875-6.1411133,5.6103516-8.0620117  c-0.0133057-0.0712891-0.0383911-0.1298828-0.0568237-0.1958008c0.2997437,0.4498901,0.6306152,0.8932495,0.9969482,1.319519  c-0.0062256,0.0100708-0.0211182,0.0325317-0.0231323,0.0359497c-0.1386719,0.2387695-0.0576172,0.5449219,0.1816406,0.6835938  c0.2363281,0.137207,0.5439453,0.0585938,0.6835938-0.1806641c0.0078125-0.0141602,0.8261719-1.4086914,2.8994141-1.3300781  c0.2060547,0.0048828,0.3603516-0.0952148,0.4492188-0.2583008c0.03125-0.0561523,0.4814453-0.8803711,0.8193359-1.9282227  c0.1894531,0.7641602,0.3417969,1.5922852,0.3105469,2.1850586c-0.0039063,0.0620117,0.0048828,0.1235352,0.0234375,0.1821289  c0.0068359,0.0201416,0.392395,1.2120361,0.7198486,2.7056885c-1.6557007-0.3039551-3.1637573,0.723938-3.2384033,0.7757568  c-0.2265625,0.1582031-0.2822266,0.4697266-0.1240234,0.6962891c0.0976563,0.1391602,0.2529297,0.2133789,0.4101563,0.2133789  c0.0996094,0,0.1992188-0.0292969,0.2861328-0.090332c0.0158081-0.0111084,1.4993286-1.013855,2.8839722-0.4854126  c0.0921021,0.532959,0.1669312,1.0759888,0.2058716,1.5977173c-0.8925781-0.1196289-2.4912109-0.1772461-3.5048828,0.7084961  c-0.5976563-1.1591797-1.2294922-2.6118164-1.2841797-3.3032227c0.4267578-0.3564453,1.6923828-1.2895508,2.8427734-0.9238281  c0.2626953,0.0834961,0.5439453-0.0605469,0.6289063-0.3237305c0.0839844-0.2631836-0.0615234-0.5444336-0.3242188-0.628418  c-1.9775391-0.6313477-3.9101563,1.2084961-3.9912109,1.2880859c-0.0839844,0.0810547-0.1367188,0.1884766-0.1494141,0.3041992  c-0.0278931,0.2511597,0.0248413,0.5762329,0.1088257,0.9244995c-0.0134888,0.1010132-0.3197632,2.1724854-2.7211304,2.8577271  c-0.2646484,0.0761719-0.4189453,0.3525391-0.3427734,0.6181641c0.0625,0.2197266,0.2626953,0.362793,0.4804688,0.362793  c0.0449219,0,0.0917969-0.0063477,0.1376953-0.019043c1.6486206-0.4706421,2.5108032-1.4725342,2.9613037-2.3163452  c0.3704834,0.8759766,0.7943726,1.6860352,1.0205078,2.0990601c-0.3956299,0.9107666-0.6382446,2.3095093,0.3248291,3.3701172  c0.0849609,0.2543945,0.3164063,1.0366211,0.2832031,1.934082c0.0205078,0.6411133,0.3740234,1.8657227,1.5849609,1.9155273  c0.0537109,0,0.5322266-0.0117188,0.890625-0.4111328c0.2900391-0.3222656,0.4052734-0.7788086,0.3457031-1.2719727  c0.0585938-0.9277344,0.1621094-2.0541992,0.2265625-2.2504883c0.1005859-0.2568359-0.0263672-0.5473633-0.2832031-0.6479492  c-0.2548828-0.0996094-0.5458984,0.0258789-0.6484375,0.2827148c-0.1376953,0.3515625-0.2421875,1.7504883-0.2910156,2.6376953  c0.0283203,0.269043-0.0019531,0.4736328-0.0878906,0.5751953c-0.0605469,0.0727539-0.1494141,0.0844727-0.1367188,0.0859375  c-0.5488281-0.027832-0.5996094-0.9130859-0.6005859-0.9130859c0.046875-1.2592773-0.3623047-2.3374023-0.3798828-2.3828125  c-0.0253906-0.0644531-0.0625-0.1230469-0.1113281-0.171875c-1.0403442-1.0525513-0.0508423-2.666748-0.0015259-2.7459717  c0.5776978-0.7258911,1.75354-0.7709351,2.5678101-0.6978149c0.0023804,0.5272217,0.0930786,1.4136963,0.5440674,2.4896851  l0.9140625,1.6748047c0.0908203,0.5483398,0.2021484,1.9638672-0.2792969,2.6142578l-1.2724609,1.8286133  c-0.2158203,0.2553711-0.9580078,1.0029297-1.5527344,1.0932617c-0.1002197,0.0233765-0.2785034,0.0258789-0.2962646,0.0437622  c-0.0001831-0.0002441-0.0004883-0.0004883-0.0007324-0.0007324c-0.0014648-0.0031738-0.0220337-0.0998535,0.0860596-0.3657837  c0.1035156-0.2558594-0.0205078-0.5473633-0.2763672-0.6508789c-0.2558594-0.1044922-0.546875,0.0200195-0.6513672,0.2758789  c-0.234375,0.5795898-0.2128906,1.0375977,0.0634766,1.3608398c0.0010376,0.0011597,0.0023193,0.00177,0.0033569,0.0029297  c0.1470947,0.263916,0.5842896,1.2254028-0.4623413,1.8598633c-0.2363281,0.1435547-0.3115234,0.4506836-0.1689453,0.6870117  c0.0947266,0.1552734,0.2587891,0.2407227,0.4277344,0.2407227c0.0888672,0,0.1777344-0.0234375,0.2587891-0.0722656  c0.5849609-0.3544922,0.9521484-0.8251953,1.0917969-1.3989258c0.0856323-0.3515015,0.0684204-0.6906738,0.0125122-0.9829102  c0.0411987-0.0065918,0.0830078-0.0137329,0.0988159-0.0175781c1.0244141-0.1533203,2.0195313-1.2993164,2.1582031-1.4663086  l1.2929688-1.8540039c0.84375-1.140625,0.4804688-3.2241211,0.4365234-3.4580078  c-0.0097656-0.0512695-0.0273438-0.1010742-0.0527344-0.1469727l-0.9306641-1.699707  c-0.3398438-0.8147583-0.4259033-1.4932251-0.4404297-1.9233398c0.1035767-0.0046997,0.2058105-0.0293579,0.2900391-0.0961914  c0.1210938-0.0966797,0.1914063-0.2441406,0.1884766-0.3994141c-0.0410156-2.4897461-1.0107422-5.6577148-1.1933594-6.2324219  c0.0439453-1.6289063-0.9306641-4.3759766-0.9726563-4.4946289c-0.0830078-0.2314453-0.3222656-0.3681641-0.5644531-0.3227539  c-0.2421875,0.0463867-0.4150391,0.2626953-0.40625,0.5092773c0.0439453,1.2285156-0.6376953,2.7553711-0.9326172,3.3535156  c-1.3297119,0.0452271-2.2178955,0.56427-2.7680664,1.0385132c-2.5980835-3.0921021-3.3129883-7.2437134-3.3149414-7.2504272  c-0.0456543-0.5020142-0.2146606-1.1940308-0.354126-1.7006226l3.9654541-0.4966431  c0.1533203-0.019043,0.2890625-0.1083984,0.3681641-0.2412109l0.1852417-0.3129272  c0.401123,0.9173584,0.9584961,2.2479858,1.4592896,3.6454468c0.0732422,0.2041016,0.265625,0.3310547,0.4707031,0.3310547  c0.0556641,0,0.1132813-0.0092773,0.1689453-0.0292969c0.2597656-0.0932617,0.3945313-0.3793945,0.3017578-0.6396484  c-0.6483765-1.8088379-1.392334-3.515625-1.7781372-4.3721924c0.0014648-0.0029297,0.001709-0.0061035,0.0031128-0.0090332  c0.0145264-0.0299072,0.0241089-0.0605469,0.0325317-0.0933838c0.0083618-0.0332642,0.0145874-0.0651855,0.0159912-0.0988159  c0.0006714-0.0144653,0.0073242-0.0270996,0.0067749-0.0418091c-0.0019531-0.0341797-0.0068359-0.0708008-0.0146484-0.1083984  c0-0.0043945,0-0.0083008,0-0.0126953c0-0.0063477,0.0009766-0.0126953,0.0009766-0.0185547l-0.0019531-0.0004883  c-0.0175781-0.6616211-0.3173828-1.6635742-0.828125-2.7646484c-0.0025024-0.0053711-0.0075073-0.0085449-0.0101318-0.0137939  c-0.0172729-0.0339966-0.0422363-0.0617065-0.0667725-0.0910645c-0.0179443-0.0214233-0.0325317-0.0452271-0.0534668-0.0630493  c-0.0228882-0.0195923-0.0510864-0.0314331-0.0776367-0.046814c-0.0306396-0.0176392-0.0592651-0.0369263-0.0927734-0.0477295  c-0.0015869-0.0005493-0.0026855-0.0016479-0.0042725-0.0021973c-0.5860596-2.8163452-1.1588745-6.6855469-1.1636963-6.6855469  c0-0.6757813-0.2119141-2.3022461-0.2207031-2.3647461c-0.4179688-3.5561523-2.9921875-5.8764648-5.0771484-7.1967773  c-0.0015259-0.0009766-0.0032959-0.0009155-0.0048218-0.0018921c-0.0267334-0.1583252-0.0518799-0.3158569-0.0918579-0.4805298  c-0.0556641-0.2294922-0.1865234-0.7666016-4.703125-2.6274414c-0.1767578-0.0737305-0.3808594-0.0385742-0.5234375,0.0898438  c-0.1435547,0.1279297-0.2001953,0.3261719-0.1474609,0.5102539c0.3847656,1.3432617,0.3232422,2.3833008-0.1855469,3.0917969  c-0.6904297,0.9643555-2.0273438,1.0385742-2.0449219,1.0390625c-4.5784912,0.2419434-6.8329468-2.4060059-7.7523193-3.9451904  c1.078186-1.0809326,1.6112671-2.1032104,1.8700562-2.8327026c0.8096924,0.8537598,1.8583374,1.5346069,3.2294312,1.8573608  c0.0042725,0.0015259,0.0085449,0.0026245,0.0128784,0.0040283c0.0166626,0.0039063,0.0304565,0.0108643,0.0471802,0.0146484  c0.0371094,0.0083008,0.0742188,0.012207,0.1103516,0.012207s0.0732422-0.0039063,0.1103516-0.012207  c0.0169067-0.0037842,0.0308228-0.0108643,0.0476074-0.0147705c0.0039063-0.0013428,0.0077515-0.0022583,0.0115967-0.0036621  c1.2664795-0.2980347,2.2523193-0.9053955,3.0351563-1.6680908c0.0532227,0.3978882,0.1420898,0.8504639,0.2962646,1.3144531  c0.0693359,0.2094727,0.2646484,0.3422852,0.4746094,0.3422852c0.0517578,0,0.1054688-0.0083008,0.1572266-0.0253906  C52.9013672,40.2827148,53.0429688,40,52.9560547,39.737793c-0.2910767-0.8747559-0.3205566-1.7300415-0.3189087-2.0771484  c0.1850586-0.2675781,0.350769-0.5446167,0.5025635-0.8265991c0.1987305,0.5825806,0.519104,1.1589966,1.0614624,1.4442749  c0.2314453,0.1220703,0.4794922,0.1831055,0.7412109,0.1831055c0.4130859,0,0.8623047-0.1508789,1.34375-0.4521484  c0.3447266-0.1552734,1.7529297-0.9833984,1.9863281-4.2109375c0.0058594-0.050293,0.5546875-5.0698242,1.7792969-7.0351563  c0.1289063-0.2075195,0.0888672-0.4780273-0.0947266-0.6396484c-0.1835938-0.1625977-0.4589844-0.1665039-0.6464844-0.0117188  c-0.1289063,0.105957-3.1679688,2.6201172-3.9492188,5.6577148c-0.0683594,0.2675781,0.0927734,0.5400391,0.3603516,0.6088867  c0.2626953,0.0698242,0.5390625-0.0927734,0.6083984-0.3598633c0.3271484-1.2749023,1.1367188-2.4780273,1.9072266-3.3989258  c-0.6542969,2.2827148-0.9433594,4.9233398-0.9609375,5.0893555c-0.2050781,2.8398438-1.3964844,3.3867188-1.3964844,3.387207  c-0.0332031,0.012207-0.0654297,0.0283203-0.0957031,0.0473633c-0.4765625,0.3046875-0.8505859,0.3881836-1.1171875,0.2504883  c-0.5349121-0.2813721-0.7854614-1.4281006-0.8309326-2.1626587c0.7474365-2.1768799,0.7655029-4.2227783,0.7655029-4.3900757  c0-0.1533203-0.0761719-0.3027344-0.1972656-0.3974609c-0.0078125-0.0063477-0.8125-0.6601563-1.5458984-2.9174805  c-0.0419922-0.0864258-1.0810547-2.1240234-4.3378906-2.222168c-0.0053101-0.000061-0.0097656,0.0026855-0.0150146,0.0027466  c-0.0048218-0.000061-0.0094604-0.0028076-0.0142822-0.0027466c-0.1817017,0.0054932-0.331665,0.0367432-0.4998169,0.0536499  c-0.8515625-0.6710815-0.6015015-1.2234497-0.5343628-1.3344116c0.1474609-0.2290039,0.0839844-0.534668-0.1435547-0.6860352  c-0.2314453-0.1533203-0.5410156-0.0917969-0.6933594,0.1391602c-0.2645874,0.3968506-0.4570923,1.2449341,0.1922607,2.1030884  c-1.9333496,0.5772705-2.6309814,1.8911133-2.6864014,2.0140991c-0.7060547,2.1899414-1.5107422,2.84375-1.5126953,2.8452148  c-0.1279297,0.0942383-0.203125,0.2436523-0.203125,0.4023438c0,0.1672974,0.0180664,2.2133179,0.765564,4.3902588  c-0.0418701,0.6487427-0.2774048,1.8704224-0.8309937,2.1619873c-0.2675781,0.1396484-0.6416016,0.0551758-1.2011719-0.2929688  c-0.0117188-0.0048828-1.2041016-0.5517578-1.4111328-3.4086914c-0.0166016-0.1538086-0.3046875-2.7910156-0.9580078-5.0722656  c0.7695313,0.9208984,1.5791016,2.1240234,1.90625,3.3989258c0.0683594,0.2670898,0.3427734,0.4282227,0.6083984,0.3598633  c0.2675781-0.0688477,0.4287109-0.3413086,0.3603516-0.6088867c-0.7802734-3.0375977-3.8193359-5.5517578-3.9482422-5.6577148  c-0.1884766-0.1547852-0.4638672-0.1508789-0.6464844,0.0117188c-0.1835938,0.1616211-0.2236328,0.4321289-0.0947266,0.6396484  c1.2246094,1.965332,1.7724609,6.984375,1.7763672,7.0180664c0.234375,3.2426758,1.6445313,4.0727539,1.9892578,4.2280273  c0.4814453,0.3012695,0.9306641,0.4521484,1.3427734,0.4521484c0.2626953,0,0.5097656-0.0610352,0.7412109-0.1826172  c0.5426025-0.2854614,0.8632202-0.8623657,1.0621338-1.4453735c0.1409912,0.2618408,0.2966919,0.5181885,0.4661865,0.7678833  c-0.0742798,0.4050293-0.3936157,1.5459595-1.5844116,2.8372192c-0.0228882-0.0561523-0.0383301-0.0966187-0.0435181-0.1109009  c-0.0625-0.1708984-0.2128906-0.2949219-0.3925781-0.3237305c-0.1865234-0.0283203-0.3613281,0.0439453-0.4726563,0.1865234  c-0.328125,0.4213867-2.2275391,1.2851563-3.4716797,1.7636719c-0.1259766,0.0488281-0.2265625,0.1459961-0.2802734,0.2700195  c-0.0527344,0.1240234-0.0537109,0.2641602-0.0019531,0.3886719c0.015564,0.0372314,0.1212769,0.2839966,0.3395996,0.6743164  c-0.883728,0.3710938-1.845459,0.7053833-2.8649902,0.9760742c-0.1611328,0.0307617-3.9472656,0.8505859-4.53125,8.4199219  c-0.0039063,0.0180664-0.46875,1.8178711-0.9423828,3.9643555c-0.0213623,0.0967407-0.0048218,0.1895752,0.0269775,0.2762451  l-0.5670166,0.3282471c-0.0043945,0.0025635-0.0067139,0.007019-0.0109863,0.0097046  c-0.0254517,0.015625-0.0441284,0.0390015-0.0664063,0.0588379c-0.0256958,0.0233154-0.0548706,0.0432739-0.0748291,0.0708008  c-0.0143433,0.0194702-0.0205688,0.0441895-0.0320435,0.065918c-0.0186157,0.0358887-0.0391235,0.0704956-0.048645,0.1096191  c-0.0009155,0.0036011-0.0036011,0.0061646-0.0043945,0.0098267l-0.1484375,0.6689453  c-0.4277344,1.9238281-0.4824219,2.1708984-0.5244141,3.7670898c-0.0002441,0.0099487,0.0046387,0.0183105,0.0049438,0.0281372  c0.0009155,0.0332642,0.0094604,0.0649414,0.0172119,0.0979614c0.0078125,0.0328369,0.0144043,0.0648804,0.0283813,0.0949097  c0.0040894,0.0087891,0.003418,0.0183716,0.0080566,0.0270386c0.0130005,0.0247192,0.1583252,0.2868652,0.4082031,0.6258545  c-0.0440063,0.071167-0.0765381,0.1500244-0.0791016,0.2418213c-0.0068359,0.2680664,0.0009766,0.5024414,0.0244141,0.699707  c-0.1796875,0.7495117-1.2421875,5.4501953-0.6503906,9.6494141c0.0351563,0.2495117,0.2490234,0.4301758,0.4941406,0.4301758  c0.0234375,0,0.046875-0.0014648,0.0703125-0.0048828c0.2734375-0.0385742,0.4638672-0.2915039,0.4257813-0.5649414  c-0.6035156-4.2836914,0.6416016-9.3115234,0.6542969-9.3618164c0.0067749-0.0285645,0.0012817-0.0581055,0.0033569-0.0874023  c0.2203979,0.1814575,0.4594727,0.352417,0.7271118,0.4863281c0.0703125,0.0351563,0.1464844,0.0527344,0.2236328,0.0527344  c0.0800781,0,0.1611328-0.0195313,0.2333984-0.0581055c0.4970703-0.262207,1.4150391-0.684082,1.8945313-0.6489258  c0.4846802,0.0614014,1.4112549,0.1660156,2.1465454,0.1793823c-0.2276611,0.5791626-0.4667358,1.1126099-0.7178345,1.5632935  c-0.2324219,0.6254883-0.7402344,2.1118164-0.6064453,2.8193359c-0.0009766,1.6557617-0.0517578,5.7299805-0.2617188,7.1782227  c-0.734375,0.0683594-2.2285156,0.3198242-3.0351563,1.2402344c-0.6132813-0.2802734-1.8789063-0.9643555-2.3662109-2.0117188  c-0.1113281-0.2402344-0.3916016-0.3496094-0.6357422-0.2548828c-0.2460938,0.0966797-0.375,0.3686523-0.2929688,0.6201172  C27.3935547,75.15625,28.1748047,77.5341797,29.4208984,79.6616211z M45.0478516,27.9716797  c0.0341187-0.0648193,0.8446655-1.5817261,3.4580078-1.6660156c2.6074829,0.0842896,3.4208984,1.5947266,3.4287109,1.5947266  c0.6123047,1.902832,1.3134766,2.7993164,1.6601563,3.1542969c-0.0532837,1.2172241-0.5556641,7.2387695-5.0888672,8.3610229  c-4.5322266-1.1221924-5.0355835-7.1418457-5.0888672-8.3605347C43.7626953,30.703125,44.4580078,29.8198242,45.0478516,27.9716797z   M58.5856323,73.6759033c-1.0355225,0.78479-2.3591309,1.3364258-2.9266357,1.5522461l-1.0320435-0.9849854  c-0.0976563-0.09375-0.2314453-0.1459961-0.3642578-0.1376953C54.1279297,74.1103516,54,74.1704102,53.9101563,74.2709961  l-1.0258789,1.1433716c-0.0692139-0.0534058-0.147583-0.0956421-0.2407227-0.1067505  c-2.7660522-0.3273926-5.0743408-0.8583984-6.9488525-1.4363403c6.9581299-3.4631958,10.0181885-8.8795166,11.1660767-14.1639404  c0.3458862-0.0601807,0.6674805-0.1508789,0.9561768-0.2804565c-0.1732178,1.7840576-0.4234009,5.3812256,0.1381226,7.239624  C58.4255371,68.0379028,59.4378052,71.9242554,58.5856323,73.6759033z M64.6972656,64.0224609l-3.944519,0.4942017  c-0.1932373-0.4037476-0.3683472-0.8188477-0.5234985-1.2244873l3.2043457-2.7868042l1.203186,0.3392944  c0.4629517,1.0471802,0.644104,1.8126221,0.6470947,2.1865845L64.6972656,64.0224609z M62.7744141,51.0263672  c0.0029297,0.0161133,0.2128906,1.6298828,0.2177734,2.3139648c0.0063477,0.0375366,0.5192871,3.5130615,1.0754395,6.3043823  l-0.6223145-0.1754761c-0.1640625-0.0439453-0.3369141-0.0058594-0.4638672,0.1040039l-3.1104736,2.704895  c-0.359375-1.0985107-0.5482178-1.9428711-0.5516357-1.9573364c-0.0556641-0.2510986-0.2893066-0.4098511-0.5435181-0.3817749  c0.050354-0.5706787,0.0980225-1.0064697,0.1251221-1.2407837c1.9030151-1.8044434,1.9737549-5.2360229,1.9760132-5.425293  c0.0029297-0.2758789-0.2177734-0.5019531-0.4941406-0.5048828c-0.0019531-0.0004883-0.0039063-0.0004883-0.0058594-0.0004883  c-0.2734375,0-0.4960938,0.2202148-0.5,0.4941406c-0.0009155,0.0482178-0.0930176,4.5083008-2.8045044,5.3770142  c0.6191406-3.6160889,0.4013672-7.0910034,0.0009155-9.7556763c0.5354614-0.5355225,1.6280518-1.8797607,1.6997681-3.913269  C60.5333862,46.2178345,62.440918,48.1912842,62.7744141,51.0263672z M42.0576172,41.2958984  c0.7646484,1.4780273,3.1503906,5.0473633,8.3496094,5.0473633c0.2070313,0,0.4179688-0.0058594,0.6269531-0.0170898  c0.0742188-0.0029297,1.8242188-0.0878906,2.8056641-1.4462891c0.5576172-0.7714844,0.7441406-1.7719727,0.5576172-2.9829102  c0.56604,0.2458496,1.1270142,0.5010986,1.6229248,0.7393188c0.0490112,0.2890015,0.09552,0.5753784,0.1182861,0.8305054  c0.0234375,0.2592773,0.2421875,0.4545898,0.4970703,0.4545898c0.015625,0,0.03125-0.0004883,0.0458984-0.0019531  c0.2753906-0.0249023,0.4785156-0.2685547,0.453125-0.543457c-0.005188-0.0556641-0.0197144-0.1243896-0.0258179-0.1815796  c0.2514038,0.1412354,0.442749,0.2620239,0.5316772,0.3456421c0.4318237,1.8911133-0.2133789,3.2669067-0.7822266,4.0548706  c-0.409729-2.1853027-0.8810425-3.5772705-0.9003906-3.632019c-0.0917969-0.2597656-0.3740234-0.3984375-0.6367188-0.3061523  c-0.2607422,0.0913086-0.3984375,0.3764648-0.3066406,0.637207c0.0142822,0.0408325,0.2919312,0.8636475,0.6003418,2.2128906  c-0.0101318,0.007019-0.0222168,0.008728-0.0319824,0.0166016C54.0585938,47.75,53.8378906,48.4780273,53.8066406,48.671875  c-0.0449219,0.2724609,0.1376953,0.5439453,0.4101563,0.5883789c0.0283203,0.0048828,0.0576172,0.0068359,0.0859375,0.0068359  c0.2382813,0,0.4453125-0.1616211,0.484375-0.4052734c0.00177-0.0048218,0.1404419-0.4412842,1.0595093-1.2514038  c0.0535278,0.2764282,0.1057739,0.5652466,0.1564941,0.8686523c-0.652832,0.5405884-1.2637329,1.8587646-1.4767456,2.3641968  c-0.6328125,2.6069336-2.8925781,2.8022461-3.1982422,2.8168945c-1.6201172-0.2197266-2.3408203-1.6855469-2.3681641-1.7441406  c-0.6699219-1.4487305-3.6728516-3.3383789-4.0175781-3.5522461c-3.4775391-2.0976563-5.1367188-4.6547852-5.6982422-5.6791992  C39.9931641,42.3789063,41.2666016,41.8251953,42.0576172,41.2958984z M32.0166016,52.847168  c0.5332031-6.8251953,3.7119141-7.5966797,3.7714844-7.6098633c1.151001-0.3043823,2.2133179-0.6723022,3.1779175-1.0864258  c0.90448,1.3436279,2.5916138,3.3391113,5.4539185,5.0664063c0.8544922,0.5288086,3.1708984,2.1206055,3.6337891,3.1210938  c0.0390625,0.0834961,0.9853516,2.0483398,3.1894531,2.3188477c0.0195313,0.0024414,0.0400391,0.0039063,0.0605469,0.0039063  c0.0019531,0,0.0029297,0,0.0048828,0c1.1513672-0.0112305,3.5078125-0.7744141,4.1630859-3.5004883  c0.2166748-0.4996338,0.4852905-0.9984741,0.7241821-1.3704224c0.3153076,2.4627075,0.4361572,5.5170898-0.1103516,8.6768188  c-0.6110229-0.8283081-1.3422241-1.472229-2.0316162-1.9568481c0.1358032-0.3776855,0.3562622-1.1028442,0.2556763-1.6132202  c-0.0537109-0.2709961-0.3212891-0.4482422-0.5869141-0.394043c-0.2705078,0.0537109-0.4472656,0.3164063-0.3935547,0.5874023  c0.0350952,0.1791992-0.046875,0.541687-0.1474609,0.8669434c-0.7814941-0.4423218-1.3720093-0.6486206-1.4248047-0.666748  c-0.1230469-0.0410156-0.2558594-0.0332031-0.3710938,0.0200195c-0.6102905,0.2827759-1.1760864,0.642395-1.6933594,1.0300293  c-0.5285034-1.6004028-2.0803833-3.6310425-2.2880859-3.8981934c-0.1708984-0.2197266-0.4863281-0.2583008-0.7011719-0.0878906  c-0.2177734,0.1694336-0.2578125,0.4833984-0.0878906,0.7011719c0.8084717,1.0405884,2.0532227,2.9569092,2.2224731,3.9871216  c-1.3504028,1.2131958-2.1917114,2.4561768-2.2439575,2.5348511c-0.1035156,0.1552734-0.1123047,0.3554688-0.0214844,0.519043  c0.0508423,0.0921021,0.1083374,0.1791382,0.1629639,0.2683716c0.0656738,0.6638184,0.0987549,1.4796753,0.0596924,1.6261597  c-0.1425781,0.2363281-0.0673828,0.5439453,0.1689453,0.6870117c0.0810547,0.0488281,0.1699219,0.0722656,0.2587891,0.0722656  c0.1689453,0,0.3339844-0.0859375,0.4277344-0.2407227c0.0410156-0.0681152,0.1326294-0.2255859,0.1525269-0.763855  c0.0886841,0.0934448,0.1776123,0.1852417,0.2683716,0.2738647c-0.000061,0.0055542-0.0030518,0.0102539-0.0029297,0.0158691  c0.0058594,0.3037109,0.0351563,1.324707,0.1708984,1.7026367c0.0732422,0.2041016,0.2646484,0.3300781,0.46875,0.3300781  c0.0556641,0,0.1132813-0.0092773,0.1679688-0.0288086c0.2597656-0.0917969,0.3955078-0.378418,0.3046875-0.6381836  c-0.024231-0.0698242-0.0466919-0.2554321-0.0656738-0.4795532c0.1960449,0.1500854,0.3873291,0.2871094,0.5737915,0.4144897  c0.081604,0.5522461,0.1208496,1.1025391,0.0905151,1.2208252c-0.125,0.2460938-0.0263672,0.546875,0.2197266,0.671875  c0.0732422,0.0371094,0.1503906,0.0541992,0.2265625,0.0541992c0.1816406,0,0.3574219-0.1000977,0.4462891-0.2739258  c0.1074829-0.2125244,0.1220093-0.5905151,0.0967407-1.0048218c0.1611328,0.0894165,0.3018188,0.1640625,0.4164429,0.2219238  c-0.0257568,0.3537598-0.0426025,0.9155884,0.0405273,1.4845581c0.0371094,0.2485352,0.25,0.4277344,0.4941406,0.4277344  c0.0244141,0,0.0488281-0.0014648,0.0732422-0.0053711c0.2734375-0.0400391,0.4628906-0.293457,0.4228516-0.5668945  c-0.0766602-0.5211792-0.0518799-1.0459595-0.0274658-1.3370361c0.1499023-0.090271,0.2987061-0.1900024,0.446106-0.3004761  c0.0529785,0.3070068,0.1363525,0.6218872,0.2727661,0.8318481c0.0957031,0.1474609,0.2558594,0.2275391,0.4189453,0.2275391  c0.09375,0,0.1884766-0.0258789,0.2724609-0.0810547c0.2314453-0.1503906,0.296875-0.4599609,0.1464844-0.6914063  c-0.09198-0.1420898-0.1696167-0.6669922-0.1919556-1.0944214c0.8500977-0.862915,1.59198-1.9077148,2.0970459-2.6885986  c-1.3140259,4.9626465-4.4903564,9.9153442-11.319458,12.9824219c-1.9628296-0.7045288-3.3182983-1.416626-4.0884399-1.8779297  c0.0201416-0.0823975,0.0272217-0.168335,0.0018311-0.2555542c-0.3769531-1.2905273,0.4199219-3.9165039,0.7578125-4.8193359  c0.0673828-0.1801758,0.0263672-0.3828125-0.1064453-0.5219727c-2.6162109-2.7285156-3.0371094-6.1088867-3.0410156-6.1425781  c-0.0164185-0.1360474-0.0881348-0.2509155-0.1879883-0.3295898c0.6231079-2.5665894,0.9906006-4.7979736,1.0180664-4.9692383  c0.0449219-0.2729492-0.140625-0.5297852-0.4130859-0.5737305c-0.2695313-0.0444336-0.5292969,0.140625-0.5732422,0.4135742  c-0.0059814,0.0366821-0.2935791,1.7806396-0.7891846,3.9574585c-2.2861938-0.7599487-4.4257202-2.357666-4.4481201-2.3744507  c-0.1601563-0.1210938-0.3779297-0.1352539-0.5527344-0.0341797l-0.7136841,0.413147  C31.6171265,54.4307861,31.9996948,52.9413452,32.0166016,52.847168z M51.6992188,63.3642578  c-0.7011719-0.3520508-2.9042969-1.5683594-4.0947266-3.4829102c0.5039063-0.6811523,2.0273438-2.5810547,4.0146484-3.5737305  c0.5878906,0.2373047,2.453125,1.0898438,3.6865234,2.7797852C54.8232422,59.9091797,53.2685547,62.4091797,51.6992188,63.3642578z   M33.2197266,62.7250977c-0.7148438-0.0356445-1.7314453,0.4077148-2.2050781,0.6367188  c-0.713501-0.4448853-1.2064209-1.1948853-1.3687134-1.4642944c0.0385132-1.3629761,0.0932617-1.6203613,0.4966431-3.4351196  l0.1008301-0.4550781l1.8845215-1.0913086c0.680542,0.4821167,2.5394287,1.7102051,4.5499878,2.3599854  c-0.2937012,1.2034302-0.6429443,2.4697876-1.0386353,3.6283569C35.1657715,62.9234619,34.1233521,62.8394775,33.2197266,62.7250977  z M30.6591797,77.7866211c0.2265625,0.0810547,0.4833984-0.0126953,0.6044922-0.2246094  c0.4960938-0.878418,2.2294922-1.1108398,2.8554688-1.1264648c0.2207031-0.0058594,0.4130859-0.1552734,0.4707031-0.3686523  c0.3525391-1.293457,0.3623047-7.1738281,0.3623047-7.840332c0-0.0395508-0.0117188-0.1030273-0.0205078-0.1416016  c-0.0585938-0.2431641,0.2050781-1.3056641,0.5322266-2.203125c0.6558838-1.1730957,1.2311401-2.8370972,1.7095947-4.53125  c0.371582,1.2963867,1.1583862,3.2637939,2.7874756,5.0551758c-0.2681274,0.7838745-0.9403687,2.944458-0.7911377,4.5290527  c-0.055481-0.0015869-0.1112671-0.0065308-0.1658936,0.0109863c-0.15625,0.0498047-0.2792969,0.1733398-0.3271484,0.3310547  l-0.6025391,1.9858398c-0.0566406,0.1879883,0.0009766,0.3920898,0.1494141,0.5214844  c0.1991577,0.1737671,4.8822632,4.2132568,12.6078491,7.0211182c-1.067627,1.3317261-6.1052246,7.1400146-11.7670288,5.7611084  c-0.2441406-0.0598755-0.4882813,0.0797729-0.5772095,0.3114624c-0.0349121-0.0591431-0.0668335-0.1213379-0.1044312-0.1776733  c-0.0507813-0.0639648-1.2451172-1.5708008-2.2275391-2.1850586c-0.2314453-0.1455078-0.5419922-0.0756836-0.6884766,0.1586914  s-0.0751953,0.5424805,0.1591797,0.6889648c0.8291016,0.5185547,1.9462891,1.9248047,1.9482422,1.9243164  c0.7675781,1.1508789,0.8291016,3.2480469,0.8076172,4.2807617c-0.7216797-0.4902344-0.8994141-2.0288086-0.9013672-2.0473633  c-0.0078125-0.0786133-0.0341797-0.1547852-0.0761719-0.2207031c-0.2919922-0.4545898-1.0605469-1.0493164-1.2119141-1.1640625  c-0.2177734-0.1655273-0.5322266-0.1240234-0.7001953,0.0961914c-0.1669922,0.2197266-0.1240234,0.5336914,0.0957031,0.7006836  c0.2822266,0.2138672,0.7177734,0.5859375,0.9130859,0.824707c0.0803833,0.6328735,0.3145752,1.4472046,0.7575684,2.064209  c-0.0872192,0.0178223-0.1719971,0.050415-0.2419434,0.1154785l-1.3105469,1.2333984  c-0.0400391,0.03125-0.1542969,0.0751953-0.2822266,0.1118164l-2.9902344-2.6328125  c0.0687256-1.800293-0.3709106-4.9191895-0.513855-5.8775635c0.8913574-0.6895752,2.3439331-1.5678711,3.0792847-1.2454834  c0.1552734,0.0683594,0.3369141,0.0527344,0.4804688-0.0429688c0.1425781-0.0957031,0.2255859-0.2573242,0.2207031-0.4287109  c-0.0126953-0.4233398-0.1376953-4.1728516-0.796875-5.5517578c-0.1201172-0.2485352-0.4189453-0.3544922-0.6669922-0.2353516  c-0.2490234,0.1191406-0.3544922,0.4179688-0.2353516,0.6669922c0.0604248,0.1262817,0.1148071,0.2920532,0.1661987,0.4747314  c-1.2219238-0.0061646-1.9829712,0.6987915-2.0197144,0.7347412c-0.1972656,0.1914063-0.2001953,0.5039063-0.0107422,0.7021484  c0.0976563,0.1020508,0.2285156,0.1533203,0.3603516,0.1533203c0.1240234,0,0.2480469-0.0454102,0.3447266-0.1367188  c0.0264282-0.024231,0.5986938-0.5427856,1.5383911-0.4436035c0.0466919,0.2921753,0.0859985,0.6019897,0.121521,0.914856  c-1.4783325-0.1053467-2.8552246,1.1568604-2.9226074,1.2196655c-0.2011719,0.1889648-0.2119141,0.5053711-0.0224609,0.706543  c0.0976563,0.1049805,0.2314453,0.1582031,0.3642578,0.1582031c0.1230469,0,0.2451172-0.0449219,0.3417969-0.1352539  c0.0135498-0.0126343,1.2723389-1.133667,2.3397217-0.9146729c0.0317993,0.3964844,0.0559692,0.7731323,0.0723877,1.0933838  c-0.0097656-0.0004883-0.0205078-0.0004883-0.0302734-0.0004883c-1.1884766,0-2.5585938,0.9150391-3.2949219,1.4838867  c-0.6679688-1.6650391-0.9414063-4.4594727-0.9443359-4.4907227c-0.0078125-0.0737305-0.0302734-0.1445313-0.0683594-0.2080078  C29.90625,78.5214844,29.5273438,77.75,29.21875,77.0546875C29.953125,77.5283203,30.6074219,77.7680664,30.6591797,77.7866211z"/><path d="M45.8857422,48.2900391c0.1757813,0,0.3476563-0.09375,0.4384766-0.2592773  c0.1328125-0.2421875,0.0439453-0.5458984-0.1982422-0.6791992c-2.1591797-1.1860352-4.96875-4.3110352-4.9960938-4.3427734  c-0.1865234-0.206543-0.5039063-0.2226563-0.7060547-0.0390625c-0.2060547,0.184082-0.2236328,0.5-0.0400391,0.7060547  c0.1201172,0.1333008,2.9511719,3.2836914,5.2617188,4.5527344C45.7216797,48.2700195,45.8037109,48.2900391,45.8857422,48.2900391z  "/><path d="M51.6689453,52.6108398c0.0917969,0,0.1835938-0.0048828,0.2763672-0.0151367  c0.9150391-0.1040039,1.6923828-0.7075195,2.3085938-1.793457c0.1367188-0.2402344,0.0527344-0.5454102-0.1875-0.6816406  c-0.2402344-0.1367188-0.5449219-0.0527344-0.6816406,0.1875c-0.4492188,0.7910156-0.9707031,1.2265625-1.5488281,1.293457  c-1.0546875,0.1191406-2.0869141-0.9682617-2.0976563-0.9790039c-0.1875-0.2021484-0.5019531-0.2148438-0.7060547-0.0283203  c-0.2021484,0.1870117-0.2158203,0.5019531-0.0292969,0.7050781C49.0546875,51.355957,50.2236328,52.6108398,51.6689453,52.6108398z  "/><path d="M51.0351563,47.6000977c0.0410156-0.0161133,0.0830078-0.0273438,0.125-0.0322266  c0.2460938-0.0307617,0.4375,0.1337891,0.5332031,0.2333984c0.2001953,0.2080078,0.3378906,0.5200195,0.3789063,0.8574219  c0.0693359,0.5688477-0.1425781,1.0019531-0.3837891,1.1791992c-0.2226563,0.1630859-0.2705078,0.4760742-0.1074219,0.6987305  c0.0986328,0.1333008,0.25,0.2041016,0.4033203,0.2041016c0.1035156,0,0.2070313-0.0317383,0.2958984-0.097168  c0.5810547-0.4262695,0.8886719-1.2529297,0.7841797-2.1054688c-0.0673828-0.5561523-0.2978516-1.0639648-0.6503906-1.4301758  c-0.3837891-0.3984375-0.8818359-0.5947266-1.3759766-0.5327148c-0.1289063,0.015625-0.2548828,0.0483398-0.3759766,0.097168  c-0.2558594,0.1030273-0.3808594,0.3945313-0.2773438,0.6503906C50.4873047,47.5795898,50.7832031,47.7011719,51.0351563,47.6000977  z"/><path d="M45.8789063,59.7709961c0.0029297,0,0.0048828,0,0.0068359,0c0.2734375,0,0.4960938-0.2197266,0.5-0.4931641  c0.0039063-0.2763672-0.2167969-0.5029297-0.4931641-0.5068359c-2.2666016-0.0297852-3.9199219-0.5668945-4.7802734-1.5527344  c-0.6171875-0.706543-0.6210938-1.3989258-0.6201172-1.440918c0.0068359-0.2744141-0.2080078-0.503418-0.4833984-0.5126953  c-0.2597656-0.0400391-0.5068359,0.2060547-0.5166016,0.4824219c-0.0009766,0.0483398-0.0283203,1.1958008,0.9833984,2.2568359  C41.5625,59.1435547,43.3798828,59.737793,45.8789063,59.7709961z"/><path d="M52.1083984,57.3164063c-0.8642578,0-1.5673828,0.703125-1.5673828,1.5673828  c0,0.8637695,0.703125,1.5668945,1.5673828,1.5668945s1.5673828-0.703125,1.5673828-1.5668945  C53.6757813,58.0195313,52.9726563,57.3164063,52.1083984,57.3164063z M52.1083984,59.4506836  c-0.3125,0-0.5673828-0.2543945-0.5673828-0.5668945c0-0.3129883,0.2548828-0.5673828,0.5673828-0.5673828  s0.5673828,0.2543945,0.5673828,0.5673828C52.6757813,59.1962891,52.4208984,59.4506836,52.1083984,59.4506836z"/><path d="M52.0576172,61.2006836c-1.5488281-0.387207-2.0654297-1.4951172-2.0888672-1.546875  c-0.1103516-0.2514648-0.40625-0.3657227-0.65625-0.2578125c-0.2529297,0.109375-0.3701172,0.4033203-0.2607422,0.6567383  c0.0283203,0.0654297,0.7128906,1.605957,2.7636719,2.1176758c0.0410156,0.0102539,0.0810547,0.0151367,0.1210938,0.0151367  c0.2246094,0,0.4287109-0.1518555,0.4853516-0.3789063C52.4882813,61.5385742,52.3251953,61.2675781,52.0576172,61.2006836z"/><path d="M47.1845703,81.8549805c0.0400391,0.0102539,0.0810547,0.0151367,0.1210938,0.0151367  c0.2246094,0,0.4277344-0.1513672,0.4853516-0.378418c0.0664063-0.2680664-0.0957031-0.5395508-0.3642578-0.6064453  c-2.6972656-0.675293-9.7021484-2.9951172-10.8535156-5.894043c0.2080078-0.0302734,0.6523438-0.0415039,1.5351563,0.1069336  c0.2744141,0.0449219,0.5302734-0.1381836,0.5761719-0.4106445s-0.1386719-0.5297852-0.4101563-0.5756836  c-1.4960938-0.2495117-2.2792969-0.1689453-2.6181641,0.2714844c-0.1933594,0.2519531-0.1708984,0.5439453-0.1220703,0.6303711  C36.5556641,79.1499023,46.7509766,81.746582,47.1845703,81.8549805z"/><path d="M50.0097656,94.8369141c0.0185547,0.0019531,0.0371094,0.0029297,0.0556641,0.0029297  c0.2509766,0,0.4677734-0.1894531,0.4960938-0.4458008c0.4912109-4.4873047,1.6416016-11.5717773,1.6523438-11.6425781  c0.0449219-0.2729492-0.140625-0.5297852-0.4130859-0.5742188c-0.2666016-0.0429688-0.5283203,0.1396484-0.5732422,0.4135742  c-0.0062256,0.0378418-0.335022,2.0651855-0.7155762,4.6289673c-0.0767212,0.0310669-0.1491089,0.0743408-0.2053223,0.1434937  c-2.2421875,2.7998047-5.5859375,4.987793-9.9365234,6.5043945c-0.2617188,0.0908203-0.3994141,0.3759766-0.3076172,0.6367188  c0.0712891,0.206543,0.2646484,0.3354492,0.4716797,0.3354492c0.0546875,0,0.1103516-0.0087891,0.1640625-0.027832  c4.0338745-1.4054565,7.2406006-3.382019,9.5638428-5.8780518c-0.2609863,1.8244629-0.5194092,3.7504883-0.6947021,5.3516846  C49.5371094,94.5600586,49.7353516,94.8066406,50.0097656,94.8369141z"/><path d="M60.4365234,90.5288086c-0.1132813-0.2524414-0.4072266-0.3657227-0.6601563-0.253418  c-0.2519531,0.1123047-0.3652344,0.40625-0.2539063,0.6586914c0.0537109,0.1225586,1.3632813,3.0141602,4.5410156,3.8876953  c0.0449219,0.012207,0.0888672,0.0180664,0.1328125,0.0180664c0.2197266,0,0.4208984-0.1455078,0.4824219-0.3676758  c0.0732422-0.2661133-0.0839844-0.5410156-0.3496094-0.6142578C61.6191406,93.112793,60.4482422,90.5546875,60.4365234,90.5288086z"/><text x="0" y="115" fill="#000000" font-size="5px" font-weight="bold" font-family="'Helvetica Neue', Helvetica, Arial-Unicode, Arial, Sans-serif">Created by nakals</text><text x="0" y="120" fill="#000000" font-size="5px" font-weight="bold" font-family="'Helvetica Neue', Helvetica, Arial-Unicode, Arial, Sans-serif">from the Noun Project</text></svg>