<svg xmlns="http://www.w3.org/2000/svg" version="1.1" viewBox="-5.0 -10.0 110.0 135.0">
 <path d="m81.25 50c-0.85938 0-1.5625 0.70312-1.5625 1.5625s0.70312 1.5625 1.5625 1.5625 1.5625 0.70312 1.5625 1.5625-0.70312 1.5625-1.5625 1.5625h-4.6875v-3.125c0-1.7188-1.4062-3.125-3.125-3.125h-0.046875c-0.26562-4.6094-2.8906-8.6875-7.0625-10.766-0.48438-0.23438-1.0625-0.21875-1.5156 0.0625s-0.73438 0.78125-0.73438 1.3281v39.062c0 0.85938 0.70312 1.5625 1.5625 1.5625h9.375c0.85938 0 1.5625-0.70312 1.5625-1.5625v-20.312h4.6875c2.5781 0 4.6875-2.1094 4.6875-4.6875s-2.1094-4.6875-4.6875-4.6875zm-14.062 3.125h6.25v3.125h-6.25zm0-9.5469c1.7969 1.6562 2.9062 3.9219 3.0938 6.4219h-3.0938zm6.25 34.547h-6.25v-18.75h6.25z"/>
 <path d="m35.203 39.297c-0.45312-0.28125-1.0312-0.3125-1.5156-0.0625-4.1719 2.0781-6.7969 6.1719-7.0625 10.766h-0.046875c-1.7188 0-3.125 1.4062-3.125 3.125v3.125h-4.6875c-0.85938 0-1.5625-0.70312-1.5625-1.5625s0.70312-1.5625 1.5625-1.5625 1.5625-0.70312 1.5625-1.5625-0.70312-1.5625-1.5625-1.5625c-2.5781 0-4.6875 2.1094-4.6875 4.6875s2.1094 4.6875 4.6875 4.6875h4.6875v20.312c0 0.85938 0.70312 1.5625 1.5625 1.5625h9.375c0.85938 0 1.5625-0.70312 1.5625-1.5625v-7.8125c0-0.85938-0.70312-1.5625-1.5625-1.5625s-1.5625 0.70312-1.5625 1.5625v6.25h-6.25v-18.75h6.25v6.25c0 0.85938 0.70312 1.5625 1.5625 1.5625s1.5625-0.70312 1.5625-1.5625v-25c0-0.54688-0.28125-1.0469-0.73438-1.3281zm-2.3906 4.2812v6.4219h-3.0938c0.1875-2.4844 1.2969-4.7656 3.0938-6.4219zm-6.25 12.672v-3.125h6.25v3.125z"/>
 <path d="m87.5 78.125h-1.5625v-9.375h1.5625c2.5781 0 4.6875-2.1094 4.6875-4.6875s-2.1094-4.6875-4.6875-4.6875c-0.85938 0-1.5625 0.70312-1.5625 1.5625s0.70312 1.5625 1.5625 1.5625 1.5625 0.70312 1.5625 1.5625-0.70312 1.5625-1.5625 1.5625h-6.25c-0.85938 0-1.5625 0.70312-1.5625 1.5625s0.70312 1.5625 1.5625 1.5625h1.5625v9.375h-15.625v-40.625h10.938c2.5781 0 4.6875-2.1094 4.6875-4.6875s-2.1094-4.6875-4.6875-4.6875c-0.85938 0-1.5625 0.70312-1.5625 1.5625s0.70312 1.5625 1.5625 1.5625 1.5625 0.70312 1.5625 1.5625-0.70312 1.5625-1.5625 1.5625h-4.6875v-3.125c0-1.7188-1.4062-3.125-3.125-3.125h-14.062c-0.85938 0-1.5625 0.70312-1.5625 1.5625v14.062c0 0.85938 0.70312 1.5625 1.5625 1.5625s1.5625-0.70312 1.5625-1.5625v-6.25h6.25v40.625h-6.25v-28.125c0-0.85938-0.70312-1.5625-1.5625-1.5625s-1.5625 0.70312-1.5625 1.5625v32.812c0 0.85938 0.70312 1.5625 1.5625 1.5625s1.5625-0.70312 1.5625-1.5625v-1.5625h29.688c0.85938 0 1.5625 0.70312 1.5625 1.5625s0.70312 1.5625 1.5625 1.5625 1.5625-0.70312 1.5625-1.5625c0-2.5781-2.1094-4.6875-4.6875-4.6875zm-29.688-43.75v-3.125h12.5v3.125z"/>
 <path d="m43.75 28.125h-14.062c-1.7188 0-3.125 1.4062-3.125 3.125v3.125h-4.6875c-0.85938 0-1.5625-0.70312-1.5625-1.5625s0.70312-1.5625 1.5625-1.5625 1.5625-0.70312 1.5625-1.5625-0.70312-1.5625-1.5625-1.5625c-2.5781 0-4.6875 2.1094-4.6875 4.6875s2.1094 4.6875 4.6875 4.6875h10.938v28.125c0 0.85938 0.70312 1.5625 1.5625 1.5625s1.5625-0.70312 1.5625-1.5625v-28.125h6.25v40.625h-6.25v-6.25c0-0.85938-0.70312-1.5625-1.5625-1.5625s-1.5625 0.70312-1.5625 1.5625v6.25h-15.625v-9.375h1.5625c0.85938 0 1.5625-0.70312 1.5625-1.5625s-0.70312-1.5625-1.5625-1.5625h-6.25c-0.85938 0-1.5625-0.70312-1.5625-1.5625s0.70312-1.5625 1.5625-1.5625 1.5625-0.70312 1.5625-1.5625-0.70312-1.5625-1.5625-1.5625c-2.5781 0-4.6875 2.1094-4.6875 4.6875s2.1094 4.6875 4.6875 4.6875h1.5625v9.375h-1.5625c-2.5781 0-4.6875 2.1094-4.6875 4.6875 0 0.85938 0.70312 1.5625 1.5625 1.5625s1.5625-0.70312 1.5625-1.5625 0.70312-1.5625 1.5625-1.5625h29.688v1.5625c0 0.85938 0.70312 1.5625 1.5625 1.5625s1.5625-0.70312 1.5625-1.5625v-53.125c0-0.85938-0.70312-1.5625-1.5625-1.5625zm-9.375 6.25h-4.6875v-3.125h12.5v3.125z"/>
 <path d="m71.875 15.625c-0.85938 0-1.5625 0.70312-1.5625 1.5625s0.70312 1.5625 1.5625 1.5625 1.5625 0.70312 1.5625 1.5625-0.70312 1.5625-1.5625 1.5625h-4.6875v-3.125c0-1.7188-1.4062-3.125-3.125-3.125v-0.82812c0-4.9062-2.7188-9.3125-7.1094-11.516-0.48438-0.23438-1.0625-0.21875-1.5156 0.0625s-0.73438 0.78125-0.73438 1.3281v18.75c0 0.85938 0.70312 1.5625 1.5625 1.5625s1.5625-0.70312 1.5625-1.5625v-4.6875h6.25v4.6875c0 0.85938 0.70312 1.5625 1.5625 1.5625h6.25c2.5781 0 4.6875-2.1094 4.6875-4.6875s-2.1094-4.6875-4.6875-4.6875zm-14.062 0v-7.9844c1.9688 1.8125 3.125 4.375 3.125 7.1562v0.82812z"/>
 <path d="m44.578 3.3594c-0.45312-0.28125-1.0312-0.3125-1.5156-0.0625-4.3906 2.1875-7.1094 6.6094-7.1094 11.516v0.82812c-1.7188 0-3.125 1.4062-3.125 3.125v3.125h-4.6875c-0.85938 0-1.5625-0.70312-1.5625-1.5625s0.70312-1.5625 1.5625-1.5625 1.5625-0.70312 1.5625-1.5625-0.70312-1.5625-1.5625-1.5625c-2.5781 0-4.6875 2.1094-4.6875 4.6875s2.1094 4.6875 4.6875 4.6875h6.25c0.85938 0 1.5625-0.70312 1.5625-1.5625v-4.6875h6.25v4.6875c0 0.85938 0.70312 1.5625 1.5625 1.5625s1.5625-0.70312 1.5625-1.5625v-18.766c0-0.54688-0.28125-1.0469-0.73438-1.3281zm-5.5156 12.266v-0.82812c0-2.7812 1.1562-5.3438 3.125-7.1562v7.9844z"/>
 <path d="m73.438 96.875h-68.75c-0.85938 0-1.5625-0.70312-1.5625-1.5625v-3.125c0-2.5781 2.1094-4.6875 4.6875-4.6875h15.625c0.85938 0 1.5625 0.70312 1.5625 1.5625s-0.70312 1.5625-1.5625 1.5625h-15.625c-0.85938 0-1.5625 0.70312-1.5625 1.5625v1.5625h67.188c0.85938 0 1.5625 0.70312 1.5625 1.5625s-0.70312 1.5625-1.5625 1.5625z"/>
 <path d="m95.312 96.875h-15.625c-0.85938 0-1.5625-0.70312-1.5625-1.5625s0.70312-1.5625 1.5625-1.5625h14.062v-1.5625c0-0.85938-0.70312-1.5625-1.5625-1.5625h-62.5c-0.85938 0-1.5625-0.70312-1.5625-1.5625s0.70312-1.5625 1.5625-1.5625h62.5c2.5781 0 4.6875 2.1094 4.6875 4.6875v3.125c0 0.85938-0.70312 1.5625-1.5625 1.5625z"/>
<text x="0.0" y="117.5" font-size="5.0" font-weight="bold" font-family="Arbeit Regular, Helvetica, Arial-Unicode, Arial, Sans-serif" fill="#000000">Created by wyasa design</text><text x="0.0" y="122.5" font-size="5.0" font-weight="bold" font-family="Arbeit Regular, Helvetica, Arial-Unicode, Arial, Sans-serif" fill="#000000">from Noun Project</text></svg>