<svg xmlns="http://www.w3.org/2000/svg" xmlns:xlink="http://www.w3.org/1999/xlink" version="1.1" x="0px" y="0px" viewBox="0 0 64 80" style="enable-background:new 0 0 64 64;" xml:space="preserve"><path d="M12,60h14V47H12V60z M19,49c2.2,0,4,1.8,4,4s-1.8,4-4,4s-4-1.8-4-4C15,50.8,16.8,49,19,49z"/><circle cx="19" cy="53" r="2"/><rect x="28" y="57" width="3" height="3"/><polygon points="37,17 37,15 27,15 27,17 "/><path d="M41,35v-6H23v6L41,35z M37,31h2v2h-2V31z M33,31h2v2h-2V31z M29,31h2v2h-2V31z M25,31h2v2h-2V31z"/><polygon points="55,23 55,19 53,19 53,21.5 37.9,19 26.1,19 11,21.5 11,19 9,19 9,23 11,23 "/><rect x="28" y="52" width="3" height="3"/><polygon points="44,25.5 44,25 20,25 20,25.5 22.3,27 41.7,27 "/><rect x="12" y="43" width="40" height="2"/><polygon points="39,11.6 39,11 25,11 25,11.6 26.4,13 37.6,13 "/><polygon points="43,5 41,5 41,7.5 33,6.2 33,3 31,3 31,6.2 23,7.5 23,5 21,5 21,9 43,9 "/><path d="M38,60h14V47H38V60z M45,49c2.2,0,4,1.8,4,4s-1.8,4-4,4s-4-1.8-4-4C41,50.8,42.8,49,45,49z"/><rect x="33" y="57" width="3" height="3"/><rect x="28" y="47" width="3" height="3"/><rect x="33" y="52" width="3" height="3"/><rect x="33" y="47" width="3" height="3"/><circle cx="45" cy="53" r="2"/><polygon points="58,37 58,39.5 41.9,37 22.1,37 6,39.5 6,37 4,37 4,41 60,41 60,37 "/><text x="0" y="79" fill="#000000" font-size="5px" font-weight="bold" font-family="'Helvetica Neue', Helvetica, Arial-Unicode, Arial, Sans-serif">Created by WiStudio</text><text x="0" y="84" fill="#000000" font-size="5px" font-weight="bold" font-family="'Helvetica Neue', Helvetica, Arial-Unicode, Arial, Sans-serif">from the Noun Project</text></svg>