<svg xmlns="http://www.w3.org/2000/svg" viewBox="0 0 38 113.75" fill="none" x="0px" y="0px"><path fill-rule="evenodd" clip-rule="evenodd" d="M8.36869 15.4127C8.87458 16.1122 9.39091 16.8507 9.91443 17.6264C12.56 21.546 15.3933 26.4196 17.9912 32H22.0843C17.6884 24.74 12.6787 19.1472 8.36869 15.4127ZM22.6796 33H18.4507C19.0394 34.2979 19.6143 35.6322 20.1706 37H24.8663C24.6492 36.5737 24.4295 36.152 24.2074 35.735C23.7094 34.7999 23.1994 33.8881 22.6796 33ZM25.3667 38H20.5715C21.0872 39.305 21.5851 40.6391 22.061 42H27.1941C26.6128 40.6263 26.0019 39.2927 25.3667 38ZM27.6091 43H22.4051C22.7939 44.1489 23.1666 45.316 23.5207 46.5H28.9355C28.516 45.3069 28.0729 44.1401 27.6091 43ZM29.2794 47.5H23.8141C24.1922 48.8141 24.5469 50.1481 24.8747 51.5H30.5052C30.1274 50.1365 29.7176 48.803 29.2794 47.5ZM30.775 52.5H25.1116C25.4161 53.8175 25.6946 55.1514 25.9443 56.5H31.7126C31.4318 55.1402 31.1182 53.8067 30.775 52.5ZM31.9123 57.5H26.1235C26.3242 58.6567 26.5032 59.8237 26.6586 61H32.5045C32.3317 59.8151 32.1337 58.6484 31.9123 57.5ZM32.6437 62H26.7848C26.9438 63.3226 27.0726 64.6565 27.1686 66H33.07C32.9605 64.6451 32.8176 63.3117 32.6437 62ZM33.1444 67H27.2338C27.3023 68.1601 27.3459 69.3271 27.3631 70.5H33.3054C33.2769 69.3183 33.2227 68.1516 33.1444 67ZM33.3233 71.5H27.3712C27.3734 72.8267 27.3413 74.1605 27.2725 75.5H33.272C33.3223 74.1486 33.3387 72.8152 33.3233 71.5ZM33.2289 76.5H27.2142C27.1386 77.663 27.0349 78.8299 26.9015 80H32.9833C33.0906 78.8206 33.1721 77.6538 33.2289 76.5ZM32.8864 81H26.7804C26.6203 82.2472 26.4262 83.4976 26.196 84.75H32.4184C32.6037 83.4864 32.7593 82.2363 32.8864 81ZM32.2659 85.75H26.0047C25.7562 86.9986 25.4714 88.249 25.1486 89.5H31.5915C31.8458 88.2373 32.0702 86.9872 32.2659 85.75ZM32.6114 89.5H37.5V90.5H1V89.5H5V36.7071L1.29289 33H0V32H5V0H6V12.2442C11.0408 15.9074 17.672 22.6254 23.2506 32H30V33H27.7146L25.2589 35.5838C25.5521 36.1404 25.841 36.705 26.1252 37.2777C26.9264 38.8919 27.6904 40.5697 28.407 42.3096C29.0107 43.7754 29.5807 45.2853 30.1111 46.8384C30.6677 48.4686 31.1806 50.1463 31.6426 51.8706C32.081 53.5064 32.4736 55.1841 32.8144 56.9027C33.1078 58.3822 33.3629 59.892 33.5758 61.4315C33.8031 63.0751 33.9823 64.7525 34.1088 66.4631C34.2185 67.9476 34.2886 69.4571 34.3159 70.9911C34.3452 72.6398 34.3252 74.3168 34.252 76.0214C34.1881 77.5093 34.0837 79.0183 33.9363 80.548C33.785 82.1186 33.5884 83.7111 33.3437 85.3249C33.1351 86.7012 32.8915 88.0929 32.6114 89.5ZM24.7619 34.6552C24.4572 34.0949 24.1483 33.5432 23.8358 33H26.335L24.7619 34.6552ZM5 33H2.70711L5 35.2929V33ZM6 33H9V89.5H6V33ZM10 89.5H24.1153C24.4433 88.2492 24.7324 86.9988 24.9847 85.75H10V89.5ZM10 84.75H25.179C25.4126 83.4978 25.6096 82.2474 25.772 81H10V84.75ZM10 80H25.8949C26.0302 78.8301 26.1354 77.6632 26.2121 76.5H10V80ZM10 75.5H26.2711C26.3409 74.1607 26.3735 72.8269 26.3712 71.5H10V75.5ZM10 70.5H26.363C26.3456 69.3273 26.3014 68.1603 26.2321 67H10V70.5ZM10 66H26.166C26.0688 64.6567 25.9385 63.3228 25.7775 62H10V66ZM10 61H25.6498C25.4925 59.8238 25.3114 58.6568 25.1084 57.5H10V61ZM10 56.5H24.9271C24.6746 55.1515 24.3928 53.8175 24.0849 52.5H10V56.5ZM10 51.5H23.8454C23.5139 50.148 23.1553 48.814 22.773 47.5H10V51.5ZM10 46.5H22.4764C22.1185 45.3158 21.7418 44.1487 21.3488 43H10V46.5ZM10 42H21.001C20.5198 40.6386 20.0165 39.3045 19.4955 38H10V42ZM10 37H19.0902C18.5276 35.6313 17.9463 34.2969 17.3517 33H10V37ZM10 32H16.8871C14.6654 27.2801 12.2806 23.084 10 19.568V32ZM9 18.0593C7.95949 16.5235 6.95056 15.1399 6 13.9238V32H9V18.0593Z" fill="black"/><text x="0" y="106" fill="#000000" font-size="5px" font-weight="bold" font-family="'Helvetica Neue', Helvetica, Arial-Unicode, Arial, Sans-serif">Created by Sergey Primirenkov</text><text x="0" y="111" fill="#000000" font-size="5px" font-weight="bold" font-family="'Helvetica Neue', Helvetica, Arial-Unicode, Arial, Sans-serif">from the Noun Project</text></svg>