<svg xmlns="http://www.w3.org/2000/svg" xmlns:xlink="http://www.w3.org/1999/xlink" version="1.1" x="0px" y="0px" viewBox="0 0 100 125" style="enable-background:new 0 0 100 100;" xml:space="preserve"><path d="M90,73.983c-0.491-0.996-1.608-3.336-2.023-4.135c-1.497-1.687-3.531-3.971-5.068-5.69c-0.733-1.85-2.346-6.058-3.166-8.146  c-1.27,1.125-3.507,3.108-4.759,4.222l-0.634-5.045l-0.02-0.166c-0.058-0.073-0.124-0.146-0.117-0.14  c-0.115-0.14-4.538-5.414-4.362-5.216c-0.372-0.858-3.55-8.193-3.668-8.465c-0.31,0.301-5.392,5.236-5.864,5.695  c-0.203-0.301-3.08-4.573-3.19-4.737c-0.252-0.022-1.885-0.164-2.165-0.188c-0.001-0.001-1.046-5.202-1.476-7.338  c-0.138-0.626-0.172-1.1-0.328-1.227c-0.655-0.878-5.035-6.748-5.517-7.392c-1.928,3.221-5.247,8.772-7.162,11.988  c-0.474-0.398-1.913-1.605-2.357-1.979c-1.509,2.313-4.094,6.28-5.596,8.592l-2.132,0.997c-0.485-0.593-3.222-3.932-3.634-4.434  c-1.393,2.98-3.784,8.109-5.164,11.088c-0.307-0.05-2.044-0.333-2.289-0.373c-1.091,3.388-2.734,8.501-3.796,11.854  c-0.197-0.071-1.407-0.509-1.554-0.563c-2.446,9.323-1.236,6.058-3.958,10.78c0.548-0.831,1.874-2.781,2.288-3.448  c0.586-1.912,1.505-4.931,2.02-6.636l0.562,0.227l0.963,2.076L15.7,67.579l0.829,1.526v1.991l-1.526,2.886h1.493  C18.491,70.408,18.1,72,18.786,69.57l1.626,1.394l0.564,3.02h4.148c-0.002-0.001-3.157-4.926-3.089-4.813  c-4.598-3.365-3.099-2.224-5.868-5.474c1.063-2.956,2.745-7.694,3.804-10.684l0.665,0.126c0.748,1.18,0.401,1.642,0.472,2.899  c1.13,3.651,0.784,1.379,0,7.395l1.095-0.896L23,59.716l0.63,7.034l0.862,0.862l1.803-2.549l3.241-2.793l1.427,4.62l-0.332,1.386  l0.564,2.621l-2.455,3.085h1.957l1.845-1.974l0.61,1.974h0.829l-1.427-10.252l1.394-1.858l-1.228-3.185h1.559  c-0.465-7.702,0.236-4.221-2.057-10.119l1.725-3.252L33.878,45.2c1.143-1.707,3.445-5.149,4.578-6.848l0.038,0.033  c-0.016,4.716,0.266,2.628-1.394,6.336l1.957,4.446l-1.26,4.18c0,0,1.575,1.78,1.578,1.783L37.1,57.096l6.072,4.446l-0.896,0.996  c0,0-0.341,2.59-0.465,2.787c-0.166,0.266-3.351,5.142-3.351,5.142l1.195-0.365c0.43-0.656,1.496-2.202,2.091-2.687l1.161,2.522  c-1.389,2.011-1.332,2.649-1.858,4.048h5.308l-2.223-1.792c0.074-1.221,0.118-3.816-0.033-5.01l3.318,2.356l2.522,1.128l2.687,3.318  h1.526c0,0-3.051-4.344-3.052-4.347c0.001,0.001-0.263-0.212-0.625-0.503c-0.936-0.767-1.966-1.557-1.942-1.578  c-0.154-0.296-1.676-3.217-1.647-3.163c-0.02-0.068-1.253-4.34-1.292-4.475c-6.504-6.939-4.774-4.42-5.774-7.767l1.294-2.422  l-1.028-4.28l1.028-1.493l0.465,2.787l1.892,1.559l-0.996-2.289l0.996-2.953l-2.223-2.853c0.177-0.799,0.14-0.614,0.364-0.996  c2.485-4.105,4.396-7.27,6.18-10.231l0.405,0.544l1.745,8.957L46.89,42.63l2.323,8.56l-2.124,2.488l2.853,2.588l2.687,8.859  l1.526-0.996l5.142,4.479l2.555,5.375h1.26l-0.763-5.508l3.981,1.792l4.479,3.716h0.498l-3.882-5.176l-3.815-2.687l-4.313-1.725  l-2.256-2.356l-3.119-0.763l0.067-5.01l5.375,2.522l1.128,2.555l5.54,3.782c-3.699-5.422-2.404-3.1-4.18-7.963l-4.18-3.052  l0.166-0.896l-5.375-6.868l1.388-2.837c0.223,0.018,2.118,0.17,2.38,0.191l1.282,1.869l0.426,1.374l1.161,3.284l4.213,4.546  l-2.156-5.607l0.182-1.102l4.354-4.329l-0.256,6.526l2.024,4.479l-0.996,3.616l2.024,2.323l-0.067,3.052l1.46,3.418l5.773,6.835  h0.796c-3.785-5.101-3.986-5.756-5.806-8.859l0.498-5.906l1.892,2.986l1.957,4.944l1.892,2.555l0.332-0.763  c-1.893-4.737-1.807-4.42-2.332-7.225c1.14-1.07,3.41-3.202,4.537-4.263l0.082,0.19l-0.76,3.468l1.294,1.792l0.829,3.484  l-1.26,0.431l3.318,4.081L80.7,73.984H90V73.983z M27.81,52.483l-1.493,3.085l1.36,1.892l-0.132-1.792l1.659-1.659  c-0.671,5.552,0.204,2.699-3.252,7.932l-0.83-0.467l-1.526-4.745l0.697-1.195l-0.299-1.427l-1.324-1.632  c1.095-2.21,3.292-6.66,4.373-8.864l0.254,0.321c0.025,2.667,0.037,1.878,0.844,3.606l-1.991,2.721l0.697,0.266l1.792-1.427  l0.896,2.156L27.81,52.483z"/><text x="0" y="115" fill="#000000" font-size="5px" font-weight="bold" font-family="'Helvetica Neue', Helvetica, Arial-Unicode, Arial, Sans-serif">Created by 4urbrand</text><text x="0" y="120" fill="#000000" font-size="5px" font-weight="bold" font-family="'Helvetica Neue', Helvetica, Arial-Unicode, Arial, Sans-serif">from the Noun Project</text></svg>