<svg xmlns="http://www.w3.org/2000/svg" xmlns:xlink="http://www.w3.org/1999/xlink" version="1.1" x="0px" y="0px" viewBox="0 0 64 80" enable-background="new 0 0 64 64" xml:space="preserve"><path d="M62.342,25.526c-0.118-0.438-0.478-0.603-0.633-0.674l-0.096-0.082c-0.275-0.649-0.759-0.719-0.953-0.719  c-0.518,0-0.815,0.4-0.985,0.65c-0.359-0.889-0.935-1.413-1.879-1.727c-0.376-0.125-1.237-0.769-1.644-1.245  c-0.032-0.032-0.066-0.061-0.104-0.086c-0.292-0.202-0.584-0.469-0.885-0.745c-0.231-0.212-0.472-0.431-0.724-0.63  c-0.529-0.415-1.318-0.369-1.956-0.223c-0.151,0.035-0.306,0.074-0.451,0.082c-0.22,0.012-0.436,0.013-0.618,0.013l-0.403,0  c-1.064,0-2.1,0.071-3.058,0.924c-0.517,0.458-1.122,0.967-1.787,1.197c-0.475,0.165-0.853,0.457-1.189,0.717  c-0.255,0.197-0.513,0.41-0.735,0.417c-0.087-0.019-0.176-0.028-0.266-0.028c-0.696,0-0.987,0.533-1.118,0.93  c-0.338-0.169-0.834-0.264-1.219-0.058c-0.065,0.022-0.136,0.054-0.208,0.103c-0.454,0.095-1.169,0.194-1.528,0.194  c-0.087,0-0.164-0.046-0.347-0.17c-0.227-0.153-0.536-0.363-0.966-0.363c-0.721,0-1.972-0.339-2.264-0.688  c-0.27-0.32-0.679-0.447-1.158-0.596c-0.256-0.079-0.642-0.199-0.764-0.306l-0.278-0.233c-0.437-0.359-0.492-0.406-0.492-0.824  c0-0.198-0.129-0.438-0.268-0.579c-0.142-0.142-0.359-0.222-0.56-0.222c-0.453,0-0.848,0.135-1.201,0.255  c-0.268,0.092-0.545,0.188-0.838,0.188c-0.001,0-0.002,0-0.003,0c-0.049-0.002-0.092-0.004-0.129-0.007  c-0.015-0.318-0.101-0.801-0.61-1.196l-0.856-0.663c0.002-0.002,0.003-0.005,0.005-0.008c0.227-0.325,0.605-0.868,0.301-1.415  c-0.076-0.152-0.075-0.156-0.016-0.354c0.087-0.289,0.25-0.827-0.164-1.527c-0.17-0.288-0.297-0.575-0.421-0.853  c-0.163-0.365-0.348-0.778-0.623-1.196c-0.361-0.544-0.992-0.763-1.53-0.95c-0.097-0.034-0.189-0.065-0.268-0.099  c-0.401-0.167-0.935-0.082-1.419,0.073c-0.167-1.173-0.402-1.939-1.113-2.101c-0.274-0.061-0.518-0.075-0.76-0.086  c-0.275-0.012-0.426-0.022-0.593-0.106c-0.949-0.477-1.584-0.029-1.821,0.198c-0.022,0.021-0.04,0.038-0.056,0.052  c-0.015-0.066-0.025-0.154-0.025-0.266c0-0.24-0.156-0.452-0.35-0.593c-0.194-0.141-0.485-0.167-0.713-0.092  c-0.032,0.01-0.062,0.021-0.091,0.034c-0.042-0.074-0.095-0.146-0.163-0.215c-0.186-0.188-0.428-0.292-0.682-0.292  c-0.553,0-0.856,0.416-1.076,0.863c-0.042,0.004-0.084,0.012-0.125,0.022c-1.041,0.274-1.672,0.519-2.668,1.244  c-0.596,0.436-1.199,0.609-1.525,0.329c-0.491-0.42-0.958-0.469-1.266-0.469c-0.116,0-0.232,0.009-0.37,0.02  c-0.156,0.012-0.322,0.011-0.388-0.008l-0.257-0.07c-0.337-0.092-0.692,0.062-0.857,0.369c-0.165,0.308-0.096,0.688,0.166,0.918  l0.688,0.604c-0.15,0.008-0.285,0.012-0.379,0.012c-0.075-0.003-0.115-0.02-0.262-0.095c-0.251-0.13-0.666-0.336-1.296-0.229  c-2.775,0.48-3.025,0.61-3.185,1.126c-0.066,0.214-0.102,0.411-0.131,0.585c-0.057,0.333-0.06,0.353-0.249,0.486  c-0.562,0.397-0.876,0.907-1.132,1.322c-0.213,0.347-0.397,0.646-0.7,0.86c-0.196,0.139-0.419,0.229-0.639,0.316  c-0.847,0.342-1.713,0.856-1.28,2.574c0.021,0.135,0.009,0.276-0.005,0.443c-0.036,0.432-0.089,1.083,0.538,1.746  c0.344,0.364,0.732,0.549,1.152,0.549c0.276,0,0.506-0.079,0.701-0.146c0.123-0.042,0.212-0.072,0.297-0.083  c0.021,0.011,0.042,0.024,0.065,0.037c0.168,0.094,0.399,0.222,0.697,0.257c0.33,0.043,0.678-0.101,0.977-0.236  c0.992,2.176,2.821,2.595,4.784,2.943c-0.011,0.023-0.021,0.044-0.031,0.064c-0.126,0.258-0.284,0.579-0.351,0.917  c-0.312,1.563,1.187,1.87,1.751,1.985c0.246,0.05,0.583,0.12,0.685,0.21c0.04,0.035,0.083,0.065,0.129,0.091  c0.036,0.021,0.07,0.039,0.101,0.056c-0.02,0.086-0.041,0.186-0.062,0.3c-0.166,0.948-0.274,1.115-0.892,1.378  c-0.935,0.398-1.146,0.683-1.536,1.442l-0.099,0.191c-0.127,0.24-0.25,0.296-0.625,0.439c-0.401,0.153-1.008,0.384-1.4,1.109  c-0.703,1.299-0.226,2.585,0.159,3.619l0.101,0.335c0.132,0.703,0.267,1.367,0.455,1.758c0.215,0.449,0.297,0.749,0.302,0.872  c0.008,0.202-0.022,0.394-0.049,0.585c-0.058,0.409-0.129,0.919,0.052,1.536c0.073,0.245,0.16,0.433,0.247,0.612  c0.111,0.228,0.111,0.228,0.044,0.446c-0.026,0.086-0.057,0.166-0.089,0.251c-0.125,0.334-0.297,0.791-0.15,1.387  c0.051,0.204,0.131,0.392,0.214,0.574c0.04,0.086,0.095,0.159,0.088,0.16c-0.001,0.041-0.013,0.084-0.021,0.127  c-0.144,0.743,0.089,1.258,0.689,1.527c0.173,0.078,0.337,0.139,0.547,0.217c0.306,0.111,0.547,0.199,0.791,0.394  c0.034,0.028,0.092,0.064,0.131,0.085c0.049,0.027,0.101,0.048,0.154,0.063c0.023,0.006,0.106,0.075,0.192,0.146  c0.073,0.058,0.15,0.118,0.235,0.175c0.227,0.151,0.472,0.266,0.75,0.391c0.142,0.063,0.289,0.126,0.418,0.205l0.33,0.195  c0.294,0.172,0.573,0.334,0.834,0.531c0.067,0.053,0.123,0.119,0.185,0.188c0.229,0.252,0.612,0.673,1.32,0.673  c0.103,0,0.204-0.021,0.298-0.062l0.277-0.12c0.201-0.02,0.376-0.092,0.529-0.183c0.075,0.643,0.251,1.896,0.441,2.291  c0.187,0.379,0.56,0.597,1.026,0.597c0.282,0,0.559-0.075,0.806-0.143c0.007-0.002,0.015-0.004,0.022-0.006  c0.158,0.176,0.429,0.396,0.851,0.396c0.099,0,0.198-0.012,0.282-0.033c0.24-0.056,0.42-0.17,0.555-0.28  c0.435,0.32,1.144,0.9,1.283,1.056l0.023,0.027c0.144,0.168,0.353,0.262,0.569,0.262c0.046,0,0.092-0.004,0.138-0.013l1.235-0.231  c0.317-0.003,0.569-0.108,0.784-0.198c0.04-0.016,0.076-0.032,0.098-0.039l0.125-0.033c0.426-0.116,1.01-0.275,1.433-0.669  c0.165-0.152,0.321-0.321,0.496-0.511c0.091-0.099,0.181-0.195,0.271-0.286c0.056-0.056,0.104-0.12,0.139-0.19l0.414-0.812  l0.153-0.2c0.673-0.873,0.774-1.288,0.078-2.207c-0.082-0.108-0.181-0.238-0.298-0.406c0.042-0.011,0.085-0.021,0.127-0.03  c0.06,0,0.12,0.007,0.201,0.019c0.49,0.064,0.955-0.011,1.379-0.334l0.366-0.282c0.59-0.459,1.099-0.855,1.722-1.159  c0.07-0.034,0.099-0.034,0.12-0.034c0.054,0,0.136,0.016,0.196,0.028c0.103,0.023,0.214,0.046,0.347,0.066  c0.034,0.005,0.153,0.013,0.188,0.013c0.258,0,0.475-0.072,0.647-0.148c0.581,0.767,0.976,1.208,2.172,1.394  c0.013,0.025,0.024,0.052,0.037,0.077c0.34,0.722,0.654,0.909,1.498,1.082c0.097,0.146,0.271,0.388,0.603,0.535  c0.35,0.147,0.795,0.042,1.297-0.132c0.153-0.053,0.31-0.113,0.403-0.126c0.137,0,0.286-0.045,0.403-0.115  c0.174-0.105,0.354-0.225,0.544-0.352c0.303-0.2,0.613-0.406,0.889-0.527c0.079,0.032,0.169,0.068,0.246,0.1  c0.04,0.249,0.115,0.524,0.381,0.87c0.053,0.069,0.106,0.134,0.158,0.195c0.093,0.111,0.146,0.177,0.16,0.228  c0.365,1.259,1.081,1.446,1.476,1.446c0.261,0,0.521-0.08,0.777-0.237c-0.141,0.335-0.262,0.754-0.143,1.177  c0.098,0.35,0.42,0.724,1.03,0.724c0.378,0,0.797-0.144,1.213-0.297l0.125-0.043c0.263-0.067,0.463-0.297,0.535-0.561  c0.016-0.012,0.027-0.021,0.027-0.021c0.069-0.056,0.163-0.133,0.254-0.236c0.013-0.002,0.026-0.004,0.04-0.005  c0.175-0.022,0.384-0.05,0.602-0.111c0.099,0.605,0.195,0.888,0.429,1.144c0.569,0.622,1.019,1.113,1.892,1.113  c0.25,0,0.537-0.043,0.901-0.134c0.758-0.189,1.103-0.516,1.229-1.167c0.004-0.021,0.008-0.04,0.011-0.058l0.081-0.018  c1.478-0.296,2.829-0.643,3.146-1.621c0.087-0.273,0.151-0.818-0.392-1.405c-0.695-0.75-1.408-1.907-1.126-2.703  c0.229-0.653,0.198-1.189-0.09-1.591c-0.276-0.393-0.726-0.591-1.333-0.591c-0.188,0-0.402,0.019-0.728,0.064  c-0.213,0-0.402-0.333-0.667-0.841c-0.001-0.001-0.047-0.089-0.048-0.091c-0.06-0.111-0.117-0.219-0.176-0.32  c0-0.002,0-0.004,0-0.006c0.019-0.182,0.049-0.487-0.133-0.823c-0.01-0.017-0.019-0.032-0.028-0.049  c0.228-0.041,0.49-0.144,0.687-0.398c0.184-0.237,0.252-0.53,0.205-0.872c0.074-0.566-0.337-1.176-0.768-1.813  c-0.053-0.078-0.125-0.186-0.192-0.29c0.066,0.014,0.131,0.028,0.188,0.042c0.682,0.154,1.132-0.072,1.436-0.237  c0.142-0.079,0.172-0.092,0.219-0.095l0.101-0.002c0.137,0,0.246,0.014,0.335,0.023c0.125,0.017,0.233,0.028,0.333,0.028  c0.899,0,1.19-0.784,1.402-1.355c0.069-0.186,0.166-0.369,0.283-0.595c0.267-0.507,0.612-1.162,0.509-1.895  c0.051-0.006,0.099-0.011,0.146-0.016c0.936-0.106,1.106-0.545,1.245-1.252c0.155-0.164,0.463-0.458,0.525-0.51  c0.01-0.004,0.052-0.015,0.193-0.015l0.271,0.003c0.228,0,0.702,0,1.059-0.36c0.159-0.161,0.348-0.453,0.34-0.935  c0-0.063-0.01-0.129-0.028-0.193c0.071-0.192,0.297-0.562,0.419-0.763c0.161-0.267,0.301-0.497,0.371-0.711  c0.141-0.417,0.176-0.834,0.205-1.169c0.023-0.273,0.044-0.51,0.091-0.674c0.023-0.037,0.056-0.068,0.086-0.102  c0.147-0.163,0.395-0.435,0.481-0.861c0.047-0.219,0.062-0.419,0.072-0.616c0.015-0.267,0.024-0.338,0.087-0.425  C62.211,26.425,62.468,26.011,62.342,25.526z M60.64,26.049c-0.317,0.447-0.342,0.869-0.361,1.212  c-0.007,0.121-0.012,0.246-0.043,0.39c-0.006,0.029-0.074,0.104-0.131,0.167c-0.126,0.142-0.299,0.335-0.384,0.62  c-0.111,0.355-0.141,0.696-0.169,1.027c-0.024,0.282-0.05,0.574-0.134,0.824c-0.038,0.105-0.132,0.244-0.251,0.442  c-0.288,0.471-0.603,0.986-0.617,1.492l-0.141-0.001c-0.289,0-0.665,0.029-1.008,0.257c-0.009,0.006-0.983,0.784-1.146,1.294  l-0.027,0.136c-0.007,0.038-0.014,0.073-0.02,0.106c-0.103,0.011-0.224,0.027-0.37,0.052c-0.163,0.027-0.285,0.029-0.426,0.03  c-0.016-0.002-0.097-0.002-0.112-0.002c-0.05,0-0.146,0.007-0.194,0.017c-0.206,0.041-0.385,0.167-0.494,0.347  c-0.108,0.179-0.137,0.396-0.079,0.598c0.016,0.052,0.059,0.157,0.146,0.338l0.088,0.183c0.126,0.264-0.002,0.562-0.33,1.187  c-0.122,0.234-0.244,0.475-0.335,0.718c-0.065,0.175-0.113,0.288-0.147,0.361c-0.001-0.001-0.002-0.001-0.003-0.001  c-0.144-0.017-0.308-0.034-0.514-0.034l-0.175,0.004c-0.404,0.021-0.676,0.171-0.891,0.291c-0.187,0.103-0.119,0.133-0.349,0.078  c-0.223-0.053-0.516-0.114-0.809-0.114c-0.434,0-0.778,0.133-1.026,0.395c-0.173,0.183-0.372,0.517-0.34,1.067  c0.019,0.331,0.217,0.639,0.595,1.2c0.143,0.21,0.387,0.572,0.484,0.78c-0.983,0.076-1.095,0.793-1.095,1.11  c0,0.426,0.204,0.745,0.354,0.981l0.047,0.075c-0.002,0.023-0.004,0.044-0.004,0.044c-0.017,0.185-0.045,0.492,0.149,0.807  c0.069,0.11,0.131,0.228,0.238,0.43c0.342,0.656,0.857,1.647,1.997,1.647c0.104,0,0.213-0.007,0.32-0.025  c0.184-0.03,0.358-0.045,0.468-0.037c-0.01,0.045-0.026,0.105-0.053,0.182c-0.608,1.721,0.767,3.487,1.416,4.193  c-0.271,0.172-0.917,0.361-1.937,0.566l-0.189,0.04c-0.12,0.025-0.218,0.047-0.29,0.065c-0.177,0.045-0.331,0.153-0.435,0.305  c-0.215,0.315-0.288,0.582-0.336,0.81c-0.032,0.01-0.073,0.021-0.126,0.035c-0.236,0.059-0.417,0.089-0.538,0.089  c-0.172,0-0.247-0.042-0.768-0.606c-0.055-0.22-0.129-0.775-0.167-1.058c-0.035-0.262-0.067-0.497-0.093-0.64  c-0.057-0.312-0.303-0.555-0.616-0.606c-0.317-0.051-0.623,0.101-0.777,0.376c-0.026,0.048-0.059,0.112-0.096,0.214  c-0.082,0.109-0.245,0.142-0.595,0.187c-0.16,0.019-0.325,0.042-0.483,0.077c-0.252,0.055-0.454,0.234-0.542,0.469  c-0.005,0.003-0.013,0.009-0.024,0.02c-0.053,0.04-0.122,0.094-0.193,0.164c0.228-0.621,0.216-1.188-0.038-1.58  c-0.424-0.655-1.365-0.637-2.241,0.198c-0.028,0.027-0.054,0.05-0.075,0.067c-0.031-0.063-0.068-0.155-0.106-0.287  c-0.1-0.351-0.291-0.583-0.458-0.785l-0.111-0.136c-0.077-0.101-0.079-0.117-0.102-0.271c-0.018-0.111-0.043-0.28-0.124-0.481  c-0.051-0.126-0.135-0.235-0.242-0.317c-0.22-0.167-1.032-0.48-1.181-0.515c-0.121-0.027-0.25-0.025-0.371,0.009  c-0.545,0.153-1.06,0.494-1.517,0.797c-0.13,0.087-0.255,0.17-0.359,0.236c-0.186,0.031-0.39,0.099-0.648,0.187  c-0.047,0.017-0.145,0.051-0.235,0.079c-0.127-0.177-0.345-0.433-0.756-0.509c-0.354-0.068-0.471-0.104-0.466-0.088  c-0.035-0.048-0.06-0.11-0.109-0.214c-0.061-0.128-0.135-0.284-0.243-0.477c-0.12-0.214-0.338-0.355-0.583-0.379  c-0.951-0.09-1.03-0.193-1.545-0.875l-0.322-0.417c-0.143-0.179-0.394-0.284-0.622-0.284c-0.303,0-0.536,0.11-0.734,0.203  c-0.051,0.025-0.136,0.066-0.123,0.073c-0.085-0.012-0.16-0.028-0.243-0.047c-0.373-0.077-0.848-0.091-1.29,0.123  c-0.765,0.372-1.387,0.856-1.991,1.326l-0.352,0.272c-0.071,0.054-0.093,0.054-0.116,0.054c-0.055,0-0.107-0.009-0.161-0.016  c-0.299-0.044-0.641-0.042-0.91,0.041c-0.626,0.185-1.12,0.33-1.306,0.851c-0.17,0.493,0.103,0.946,0.42,1.401  c0.148,0.217,0.275,0.384,0.396,0.543c0.034,0.045,0.065,0.084,0.092,0.12c-0.062,0.085-0.144,0.192-0.219,0.289l-0.162,0.211  c-0.027,0.036-0.051,0.073-0.071,0.113l-0.393,0.771c-0.078,0.081-0.16,0.169-0.253,0.271c-0.125,0.135-0.254,0.275-0.391,0.402  c-0.152,0.142-0.562,0.254-0.804,0.32l-0.139,0.037c-0.084,0.024-0.169,0.058-0.303,0.112c-0.062,0.025-0.156,0.065-0.143,0.072  c-0.075-0.009-0.152-0.007-0.228,0.007l-0.941,0.177c-0.544-0.489-1.614-1.38-2.047-1.424c-0.025-0.003-0.078-0.005-0.103-0.005  c-0.344,0-0.58,0.168-0.731,0.308c-0.081-0.083-0.186-0.168-0.32-0.228c-0.099-0.046-0.271-0.08-0.379-0.08  c-0.18,0-0.378,0.046-0.637,0.117c-0.048,0.013-0.102,0.027-0.156,0.041c-0.105-0.521-0.241-1.468-0.261-1.795  c-0.003-0.049,0.002-0.101,0.006-0.162c0.018-0.28,0.045-0.703-0.261-1.025c-0.176-0.186-0.403-0.322-0.757-0.287  c-0.441,0.021-0.773,0.292-1.019,0.492c-0.043,0.035-0.107,0.087-0.154,0.121c-0.089,0.005-0.177,0.025-0.259,0.061l-0.191,0.083  c-0.029-0.025-0.072-0.07-0.141-0.146c-0.113-0.126-0.232-0.251-0.378-0.364c-0.333-0.254-0.669-0.45-1.029-0.66l-0.265-0.157  c-0.189-0.115-0.394-0.208-0.626-0.313c-0.165-0.074-0.336-0.147-0.494-0.253c-0.05-0.033-0.094-0.069-0.153-0.116  c-0.132-0.109-0.305-0.252-0.552-0.351c-0.4-0.296-0.782-0.436-1.162-0.574c-0.073-0.026-0.146-0.054-0.223-0.084  c0.033-0.182,0.071-0.438-0.014-0.716c-0.046-0.149-0.107-0.289-0.172-0.43c-0.044-0.099-0.095-0.2-0.123-0.311  c-0.032-0.132-0.002-0.229,0.097-0.494c0.043-0.11,0.085-0.226,0.122-0.347c0.222-0.723,0.072-1.126-0.134-1.545  c-0.05-0.104-0.108-0.222-0.154-0.375c-0.089-0.304-0.052-0.567-0.005-0.904c0.034-0.236,0.076-0.529,0.063-0.85  c-0.015-0.381-0.166-0.873-0.448-1.462c-0.118-0.246-0.263-1.017-0.333-1.389l-0.038-0.197c-0.009-0.044-0.021-0.088-0.038-0.131  l-0.093-0.251c-0.389-1.046-0.599-1.729-0.245-2.382c0.122-0.226,0.277-0.292,0.622-0.424c0.428-0.164,1.014-0.388,1.41-1.138  l0.13-0.251c0.247-0.481,0.247-0.481,0.766-0.702c1.348-0.574,1.588-1.398,1.781-2.497c0.024-0.136,0.051-0.246,0.073-0.336  c0.216-0.884-0.152-1.19-0.797-1.557c-0.391-0.308-0.875-0.407-1.307-0.496c-0.203-0.042-0.543-0.111-0.59-0.117  c0,0-0.005-0.031,0.01-0.105c0.029-0.147,0.139-0.371,0.228-0.553c0.229-0.473,0.489-1.009,0.219-1.535  c-0.114-0.222-0.365-0.506-0.973-0.61c-2.157-0.378-3.458-0.606-4.138-2.529c-0.136-0.388-0.479-0.629-0.897-0.629  c-0.321,0-0.62,0.133-0.918,0.267c-0.064,0.029-0.16,0.072-0.229,0.099c-0.035-0.017-0.077-0.041-0.11-0.059  c-0.174-0.097-0.413-0.23-0.722-0.23c-0.367,0-0.651,0.099-0.863,0.172c-0.073,0.025-0.174,0.06-0.169,0.069  c0,0-0.034-0.017-0.1-0.086c-0.162-0.171-0.161-0.243-0.132-0.594c0.018-0.215,0.04-0.482-0.021-0.861  c-0.167-0.669-0.167-0.669,0.373-0.887c0.27-0.108,0.604-0.242,0.944-0.483c0.552-0.391,0.862-0.894,1.113-1.302  c0.218-0.354,0.407-0.659,0.718-0.879c0.696-0.492,0.787-1.027,0.861-1.458c0.004-0.023,0.008-0.048,0.013-0.073  c0.292-0.074,0.906-0.206,2.175-0.422c0.068,0,0.112,0.019,0.263,0.097c0.2,0.102,0.475,0.242,0.954,0.259  c0.015,0,1.55-0.031,1.901-0.188c0.385-0.181,0.605-0.532,0.59-0.935c-0.002-0.065-0.01-0.13-0.024-0.194  c0.184,0.051,0.376,0.077,0.576,0.077c0.864,0,1.638-0.473,2.021-0.753c0.659-0.479,1.076-0.686,1.735-0.884  c0.148,0.142,0.35,0.209,0.558,0.207c0.248-0.013,0.474-0.148,0.602-0.361c0.033-0.054,0.072-0.133,0.113-0.221  c0.256,0.144,0.502,0.138,0.688,0.111c0.013,0.027,0.026,0.053,0.041,0.079c0.311,0.572,0.885,0.84,1.485,0.693  c0.458-0.113,0.715-0.354,0.87-0.499c0,0,0.002-0.001,0.005-0.004c0.03,0.012,0.069,0.029,0.119,0.054  c0.461,0.23,0.869,0.248,1.2,0.263c0.089,0.004,0.18,0.007,0.274,0.017c0.081,0.247,0.166,0.742,0.253,1.474l0.034,0.273  c0.053,0.369,0.394,0.644,0.767,0.644c0.213,0,0.428-0.071,0.771-0.191c0.229-0.08,0.575-0.2,0.678-0.217  c0.103,0.043,0.224,0.086,0.386,0.142c0.23,0.08,0.66,0.229,0.739,0.349c0.208,0.314,0.358,0.653,0.505,0.981  c0.146,0.327,0.299,0.665,0.5,1.004c0.079,0.133,0.079,0.133,0.018,0.333c-0.08,0.266-0.195,0.651,0.009,1.213  c-0.029,0.044-0.063,0.091-0.089,0.13c-0.204,0.291-0.825,1.175-0.057,1.766l1.244,0.963c0.008,0.025,0.008,0.109,0.008,0.165  c0,1.13,0.839,1.307,1.666,1.337c0.506,0,0.941-0.15,1.292-0.271c0.053-0.018,0.105-0.036,0.156-0.052  c0.183,0.553,0.557,0.861,0.923,1.163l0.251,0.209c0.357,0.311,0.857,0.466,1.306,0.605c0.173,0.053,0.431,0.134,0.448,0.126  c0.768,0.917,2.695,1.219,3.354,1.215c0.033,0.013,0.119,0.071,0.184,0.114c0.251,0.17,0.63,0.428,1.187,0.428  c0.554,0,1.528-0.146,2.057-0.276c0.089-0.022,0.173-0.06,0.247-0.111c0.048,0.025,0.104,0.056,0.153,0.084  c0.224,0.124,0.502,0.278,0.831,0.278c0.279,0,0.538-0.114,0.726-0.319c0.202-0.219,0.265-0.497,0.32-0.747  c0.003-0.014,0.007-0.03,0.011-0.046c0.01,0,0.02,0,0.03,0c0.667,0,1.172-0.39,1.62-0.737c0.266-0.206,0.517-0.4,0.76-0.484  c0.925-0.321,1.668-0.939,2.293-1.494c0.52-0.463,1.078-0.545,2.06-0.545l0.403,0c0.207,0,0.452-0.001,0.699-0.015  c0.225-0.012,0.468-0.063,0.724-0.122c0.327-0.075,0.646-0.079,0.675-0.057c0.221,0.175,0.434,0.371,0.658,0.576  c0.298,0.272,0.604,0.553,0.949,0.801c0.468,0.522,1.479,1.333,2.203,1.574c0.594,0.197,0.824,0.431,1.028,1.046  c0.091,0.271,0.367,1.095,1.134,1.095c0.45,0,0.807-0.301,1.14-0.617c0.021,0.02,0.043,0.038,0.064,0.055  C60.674,26,60.657,26.024,60.64,26.049z"/><text x="0" y="79" fill="#000000" font-size="5px" font-weight="bold" font-family="'Helvetica Neue', Helvetica, Arial-Unicode, Arial, Sans-serif">Created by Mohamed Mb</text><text x="0" y="84" fill="#000000" font-size="5px" font-weight="bold" font-family="'Helvetica Neue', Helvetica, Arial-Unicode, Arial, Sans-serif">from the Noun Project</text></svg>