<svg xmlns="http://www.w3.org/2000/svg" xmlns:xlink="http://www.w3.org/1999/xlink" version="1.1" x="0px" y="0px" viewBox="0 0 100 125" enable-background="new 0 0 100 100" xml:space="preserve"><g><path d="M88.6,50.5c-0.1-0.1-0.2-0.2-0.4-0.2h-5v-1.6h5c0.1,0,0.3-0.1,0.4-0.2c0.1-0.1,0.2-0.2,0.1-0.4c-0.3-5.9-1.8-11.6-4.7-16.8   c-0.1-0.1-0.2-0.2-0.3-0.3c-0.1,0-0.3,0-0.4,0.1l-4.1,2.4l-0.8-1.4l4.1-2.4c0.1-0.1,0.2-0.2,0.2-0.3c0-0.1,0-0.3-0.1-0.4   c-3.1-4.9-7.4-9.1-12.3-12.2C70.2,17,70,16.9,69.9,17c-0.1,0-0.3,0.1-0.3,0.2l-2.3,4l-1.4-0.8l2.3-4c0.1-0.1,0.1-0.3,0-0.4   c0-0.1-0.1-0.3-0.3-0.3c-5.2-2.7-10.8-4.2-16.7-4.4c-0.1,0-0.3,0-0.4,0.1c-0.1,0.1-0.2,0.2-0.2,0.4v4.5h-1.6v-4.5   c0-0.1-0.1-0.3-0.2-0.4c-0.1-0.1-0.2-0.2-0.4-0.1C42.8,11.5,37.2,13,32,15.7c-0.1,0.1-0.2,0.2-0.3,0.3c0,0.1,0,0.3,0,0.4l2.2,3.9   l-1.4,0.8l-2.3-3.9c-0.1-0.1-0.2-0.2-0.3-0.2c-0.1,0-0.3,0-0.4,0.1c-4.9,3-9.2,7.2-12.3,12.1c-0.1,0.1-0.1,0.3-0.1,0.4   c0,0.1,0.1,0.3,0.2,0.3l4,2.3l-0.8,1.4l-4-2.3c-0.1-0.1-0.3-0.1-0.4-0.1c-0.1,0-0.3,0.1-0.3,0.3c-2.8,5.2-4.4,10.8-4.7,16.7   c0,0.1,0,0.3,0.1,0.4c0.1,0.1,0.2,0.2,0.4,0.2h4.9v1.6h-4.9c-0.1,0-0.3,0.1-0.4,0.2c-0.1,0.1-0.2,0.2-0.1,0.4   c0.1,6,1.6,11.7,4.3,17c0.1,0.1,0.2,0.2,0.3,0.3c0.1,0,0.3,0,0.4,0l4.4-2.5l0.8,1.4l-4.4,2.6c-0.1,0.1-0.2,0.2-0.2,0.3   c0,0.1,0,0.3,0.1,0.4c3.1,5,7.3,9.4,12.3,12.6c0.1,0.1,0.3,0.1,0.4,0.1s0.3-0.1,0.3-0.2l2.6-4.6l1.4,0.8l-2.7,4.6   c-0.1,0.1-0.1,0.3-0.1,0.4c0,0.1,0.1,0.3,0.3,0.3c5.3,2.9,11,4.5,17.1,4.7c0.1,0,0.3,0,0.4-0.1c0.1-0.1,0.2-0.2,0.2-0.4v-5.4h1.6   v5.4c0,0.1,0.1,0.3,0.2,0.4c0.1,0.1,0.2,0.1,0.4,0.1c0,0,0,0,0,0c6.1-0.2,11.8-1.7,17.1-4.6c0.1-0.1,0.2-0.2,0.3-0.3   c0-0.1,0-0.3-0.1-0.4l-2.7-4.7l1.4-0.8l2.7,4.7c0.1,0.1,0.2,0.2,0.3,0.2c0.1,0,0.3,0,0.4-0.1c5-3.2,9.3-7.5,12.4-12.5   c0.1-0.1,0.1-0.3,0.1-0.4c0-0.1-0.1-0.3-0.2-0.3l-4.5-2.6l0.8-1.4l4.5,2.6c0.1,0.1,0.3,0.1,0.4,0c0.1,0,0.3-0.1,0.3-0.3   c2.8-5.3,4.2-11,4.4-17C88.7,50.8,88.6,50.6,88.6,50.5z M83.6,67l-4.5-2.6c-0.3-0.1-0.6-0.1-0.7,0.2l-1.3,2.3   c-0.1,0.1-0.1,0.3-0.1,0.4c0,0.1,0.1,0.2,0.2,0.3l4.5,2.6c-2.9,4.6-6.8,8.5-11.3,11.5L67.8,77c-0.1-0.3-0.5-0.3-0.7-0.2l-2.3,1.3   c-0.1,0.1-0.2,0.2-0.2,0.3c0,0.1,0,0.3,0.1,0.4l2.7,4.7c-4.9,2.5-10.1,3.9-15.6,4.2v-5.4c0-0.3-0.2-0.5-0.5-0.5h-2.6   c-0.3,0-0.5,0.2-0.5,0.5v5.4c-5.5-0.3-10.7-1.7-15.6-4.3l2.7-4.6c0.1-0.1,0.1-0.3,0.1-0.4c0-0.1-0.1-0.2-0.2-0.3l-2.3-1.3   c-0.3-0.1-0.6-0.1-0.7,0.2l-2.6,4.6c-4.5-3-8.4-6.9-11.2-11.5l4.4-2.6c0.1-0.1,0.2-0.2,0.2-0.3c0-0.1,0-0.3-0.1-0.4l-1.3-2.3   c-0.1-0.3-0.5-0.3-0.7-0.2l-4.4,2.5c-2.4-4.8-3.7-10-3.9-15.5h4.9c0.3,0,0.5-0.2,0.5-0.5v-2.6c0-0.3-0.2-0.5-0.5-0.5h-4.8   c0.3-5.4,1.8-10.5,4.3-15.2l4,2.3c0.3,0.1,0.6,0.1,0.7-0.2l1.3-2.3c0.1-0.1,0.1-0.3,0.1-0.4c0-0.1-0.1-0.2-0.2-0.3l-4-2.3   c2.9-4.4,6.8-8.2,11.2-11l2.2,3.9c0.1,0.2,0.5,0.3,0.7,0.2L35,21c0.1-0.1,0.2-0.2,0.2-0.3c0-0.1,0-0.3-0.1-0.4L33,16.4   c4.7-2.4,9.8-3.8,15.2-4v4.5c0,0.3,0.2,0.5,0.5,0.5h2.6c0.3,0,0.5-0.2,0.5-0.5v-4.5c5.3,0.3,10.4,1.6,15.2,4l-2.3,3.9   c-0.1,0.3-0.1,0.6,0.2,0.7l2.3,1.3c0.1,0.1,0.3,0.1,0.4,0.1c0.1,0,0.2-0.1,0.3-0.2l2.3-3.9c4.5,2.8,8.3,6.7,11.2,11.1l-4.1,2.4   c-0.3,0.1-0.3,0.5-0.2,0.7l1.3,2.3c0.1,0.1,0.2,0.2,0.3,0.2c0.1,0,0.3,0,0.4-0.1l4.1-2.4c2.5,4.8,4,9.9,4.3,15.3h-5   c-0.3,0-0.5,0.2-0.5,0.5v2.6c0,0.3,0.2,0.5,0.5,0.5h5C87.4,56.9,86.1,62.1,83.6,67z"/><path d="M50,5C25.2,5,5,25.2,5,50s20.2,45,45,45c24.8,0,45-20.2,45-45S74.8,5,50,5z M50,94C25.8,94,6,74.2,6,50S25.8,6,50,6   c24.2,0,44,19.7,44,44S74.2,94,50,94z"/><path d="M50,44.7c-2.9,0-5.3,2.4-5.3,5.3s2.4,5.3,5.3,5.3c2.9,0,5.3-2.4,5.3-5.3S52.9,44.7,50,44.7z M50,54.2   c-2.3,0-4.2-1.9-4.2-4.2s1.9-4.2,4.2-4.2c2.3,0,4.2,1.9,4.2,4.2S52.3,54.2,50,54.2z"/><path d="M47.2,41.3c0.1,0,0.1,0,0.2,0c1.7-0.5,3.6-0.5,5.3,0c0.2,0.1,0.4,0,0.5-0.1c0.1-0.1,0.2-0.3,0.1-0.5l-2.8-10.1   c-0.1-0.2-0.3-0.4-0.5-0.4s-0.4,0.2-0.5,0.4l-2.8,10.1c-0.1,0.2,0,0.4,0.1,0.5C46.9,41.2,47,41.3,47.2,41.3z M50,32.6l2.1,7.4   c-0.7-0.1-1.4-0.2-2.1-0.2s-1.4,0.1-2.1,0.2L50,32.6z"/><path d="M40.9,50c0-0.8,0.1-1.6,0.3-2.4c0-0.2,0-0.4-0.1-0.5c-0.1-0.1-0.3-0.2-0.5-0.1l-10,2.8c-0.2,0.1-0.4,0.3-0.4,0.5   c0,0.2,0.2,0.4,0.4,0.5l10.2,2.8c0,0,0.1,0,0.1,0c0.1,0,0.3-0.1,0.4-0.2c0.1-0.1,0.2-0.3,0.1-0.5C41,52,40.9,51,40.9,50z    M32.6,50.2l7.4-2.1c-0.1,0.6-0.2,1.2-0.2,1.8c0,0.8,0.1,1.6,0.3,2.3L32.6,50.2z"/><path d="M52.7,58.7c-1.7,0.5-3.6,0.5-5.3,0c-0.2-0.1-0.4,0-0.5,0.1c-0.1,0.1-0.2,0.3-0.1,0.5l2.8,10.1c0.1,0.2,0.3,0.4,0.5,0.4   s0.4-0.2,0.5-0.4l2.8-10.1c0.1-0.2,0-0.4-0.1-0.5C53,58.7,52.8,58.7,52.7,58.7z M50,67.4L47.9,60c1.4,0.3,2.8,0.3,4.1,0L50,67.4z"/><path d="M81.1,49.7L75.1,48c-0.4-5.3-2.4-10.2-5.9-14.3l1.1-1.2c0.3-0.3,0.4-0.7,0.4-1.1c0-0.9-0.7-1.6-1.6-1.6h0   c-0.2,0-0.5,0.1-0.7,0.2c-0.1,0-0.2,0.1-0.2,0.2c0,0-0.1,0.1-0.1,0.1l-1.2,1.1c-4.1-3.7-9.2-5.9-14.7-6.4l-1.7-6.1   c-0.1-0.2-0.3-0.4-0.5-0.4s-0.4,0.2-0.5,0.4L47.8,25c-5.4,0.5-10.5,2.7-14.6,6.3l-1.1-1c-0.6-0.5-1.6-0.5-2.2,0   c-0.6,0.6-0.6,1.5-0.1,2.2l1,1.1c-3.5,4-5.6,9.1-6,14.4l-6.1,1.7c-0.2,0.1-0.4,0.3-0.4,0.5c0,0.2,0.2,0.4,0.4,0.5l6.1,1.7   c0.5,5.1,2.5,9.9,5.9,13.8l-1,1.2c-0.6,0.6-0.5,1.6,0.1,2.2c0.6,0.6,1.6,0.6,2.2,0l1.1-1c4.1,3.7,9.2,5.9,14.6,6.4l1.7,6.1   c0.1,0.2,0.3,0.4,0.5,0.4s0.4-0.2,0.5-0.4l1.7-6.1c5.4-0.5,10.6-2.7,14.6-6.4l1.1,1c0.6,0.5,1.6,0.5,2.2,0c0.6-0.6,0.6-1.5,0.1-2.2   l-1-1.2c3.4-3.9,5.4-8.7,5.9-13.8l6.1-1.7c0.2-0.1,0.4-0.3,0.4-0.5C81.5,50,81.3,49.8,81.1,49.7z M74,47.7l-0.5-0.2l-1.1-0.3   l-12.1-3.4l7.2-8.2l0.7-0.8l0.3-0.4C71.6,38.3,73.5,42.9,74,47.7z M66.1,32.1l-0.4,0.4l-0.8,0.7l-8.3,7.6L53,27.7l-0.3-1.1L52.5,26   C57.5,26.6,62.3,28.7,66.1,32.1z M47.5,26l-0.1,0.5L47,27.7l-3.6,12.9l-8.2-7.5l-0.8-0.7L34,32C37.8,28.7,42.5,26.6,47.5,26z    M31.6,34.4l0.3,0.4l0.7,0.8l7.2,8.2l-12.3,3.4l-1.1,0.3L26,47.7C26.5,42.9,28.5,38.2,31.6,34.4z M26.1,52.8l0.5,0.2l1.1,0.3   l11.8,3.3l-6.9,7.8l-0.7,0.8l-0.3,0.4C28.5,61.9,26.6,57.5,26.1,52.8z M34,68l0.4-0.4l0.8-0.7l8.3-7.6l3.6,13l0.3,1.1l0.1,0.5   C42.5,73.4,37.7,71.3,34,68z M52.5,74l0.1-0.5l0.3-1.1l3.6-13l8.3,7.6l0.8,0.7L66,68C62.3,71.3,57.5,73.4,52.5,74z M68.4,65.5   l-0.3-0.4l-0.7-0.8l-6.9-7.8l11.8-3.3l1.1-0.3l0.5-0.2C73.4,57.5,71.5,61.9,68.4,65.5z M74.4,51.5L72.8,52l-13.3,3.7   c-0.2,0-0.3,0.2-0.4,0.4c-0.1,0.2,0,0.4,0.1,0.5l7.8,8.9l1,1.2l1.3,1.5c0.2,0.2,0.2,0.5,0,0.7c-0.2,0.2-0.5,0.2-0.7,0l-1.5-1.3   L66,66.5L56.7,58c-0.1-0.1-0.3-0.2-0.5-0.1c-0.2,0.1-0.3,0.2-0.4,0.4l-4.1,14.6l-0.4,1.6L50,79l-1.3-4.6c0,0,0,0,0,0l-0.4-1.6   c0,0,0,0,0,0l-4.1-14.6c0-0.2-0.2-0.3-0.4-0.4c-0.2-0.1-0.4,0-0.5,0.1L34,66.5l-1.2,1.1l-1.5,1.3c-0.2,0.2-0.5,0.2-0.7,0   c-0.2-0.2-0.2-0.5,0-0.7l1.3-1.5l1-1.2l7.8-8.9c0.1-0.1,0.2-0.3,0.1-0.5c-0.1-0.2-0.2-0.3-0.4-0.4L27.2,52l-1.6-0.5L21,50.2   l4.6-1.3l1.6-0.4L41,44.6c0.2,0,0.3-0.2,0.4-0.4c0.1-0.2,0-0.4-0.1-0.5l-8.2-9.3l-1-1.2l-1.3-1.5c-0.2-0.2-0.2-0.5,0-0.7   c0.2-0.2,0.5-0.2,0.7,0l1.4,1.3l1.2,1.1l9.3,8.5c0.1,0.1,0.2,0.1,0.4,0.1c0,0,0.1,0,0.1,0c0.2-0.1,0.3-0.2,0.4-0.4l4.1-14.5   l0.4-1.6L50,21l1.3,4.6l0.4,1.6l4.1,14.7c0,0.2,0.2,0.3,0.4,0.4c0,0,0.1,0,0.1,0c0.1,0,0.3,0,0.4-0.1l9.4-8.6l1.2-1.1l1.6-1.4   c0,0,0.1,0,0.1-0.1c0.1,0,0.1-0.1,0.2-0.1c0.3,0,0.5,0.2,0.5,0.5c0,0.1-0.1,0.3-0.2,0.4l-1.4,1.6l-1,1.2l-8.1,9.2   c-0.1,0.1-0.2,0.3-0.1,0.5c0.1,0.2,0.2,0.3,0.4,0.4l13.7,3.8l1.6,0.4l4.6,1.3L74.4,51.5z"/><path d="M50,43c-3.9,0-7,3.2-7,7s3.2,7,7,7c3.9,0,7-3.2,7-7S53.9,43,50,43z M50,56c-3.3,0-6-2.7-6-6s2.7-6,6-6s6,2.7,6,6   S53.3,56,50,56z"/><path d="M69.5,49.7l-10-2.8c-0.2-0.1-0.4,0-0.5,0.1c-0.1,0.1-0.2,0.3-0.1,0.5c0.2,0.8,0.3,1.6,0.3,2.4c0,1-0.2,2-0.5,2.9   c-0.1,0.2,0,0.4,0.1,0.5c0.1,0.1,0.2,0.2,0.4,0.2c0,0,0.1,0,0.1,0l10.2-2.8c0.2-0.1,0.4-0.3,0.4-0.5C69.8,50,69.7,49.8,69.5,49.7z    M59.9,52.3c0.2-0.8,0.3-1.6,0.3-2.3c0-0.6-0.1-1.2-0.2-1.8l7.4,2.1L59.9,52.3z"/></g><text x="0" y="115" fill="#000000" font-size="5px" font-weight="bold" font-family="'Helvetica Neue', Helvetica, Arial-Unicode, Arial, Sans-serif">Created by parkjisun</text><text x="0" y="120" fill="#000000" font-size="5px" font-weight="bold" font-family="'Helvetica Neue', Helvetica, Arial-Unicode, Arial, Sans-serif">from the Noun Project</text></svg>