<svg xmlns="http://www.w3.org/2000/svg" version="1.1" viewBox="-5.0 -10.0 110.0 135.0">
 <path d="m99.766 46.055c-0.28516-0.46094-0.78906-0.74219-1.3281-0.74219h-5.3516c-0.82813-1.3125-2.6953-3.7891-5.6484-5.2031l-4.332-27.438c-0.30078-1.9102-1.9219-3.2969-3.8594-3.2969h-5.4531c-1.8555 0-3.4688 1.3203-3.8281 3.1406l-2.6211 13.105-4.1484 2.7656c-0.17187 0.11719-0.32031 0.26172-0.43359 0.43359l-3.125 4.6875c-0.48047 0.71875-0.28516 1.6875 0.43359 2.1641 0.71875 0.48047 1.6875 0.28516 2.1641-0.43359l2.9531-4.4297 4.4297-2.9531c0.34375-0.23047 0.58594-0.58594 0.66406-0.99219l2.75-13.738c0.070312-0.36328 0.39453-0.62891 0.76562-0.62891h5.4531c0.38672 0 0.71094 0.27734 0.77344 0.66016l4.1016 25.984c-0.42188-0.050781-0.85547-0.078125-1.3086-0.078125-2.5938 0-4.6953 0.5-6.7305 0.98438-3.1016 0.74219-6.3125 1.5078-11.766 0.59766-0.84766-0.14062-1.6562 0.43359-1.8008 1.2852-0.14062 0.85156 0.43359 1.6562 1.2852 1.8008 6.0781 1.0156 9.7578 0.13281 13-0.64062 1.9414-0.46094 3.7812-0.90234 6.0039-0.90234 2.8828 0 5.0156 1.6484 6.3516 3.125h-28.227c-8.3047 0-15.434-1.8516-21.719-3.4922-5.4531-1.4219-10.602-2.7578-15.781-2.7578-3.1211 0-5.7656 0.48047-7.9727 1.1875l4.4805-29.875c0.085938-0.57031 0.58594-1 1.1562-1h9.6094c0.53125 0 0.99609 0.35938 1.1328 0.86719l5.7109 21.406c0.22266 0.83203 1.0781 1.3281 1.9102 1.1094 0.83203-0.22266 1.3281-1.0781 1.1094-1.9102l-5.7109-21.406c-0.5-1.8789-2.2109-3.1875-4.1523-3.1875h-9.6094c-2.1094 0-3.9375 1.5742-4.25 3.6602l-4.7695 31.727c-2.5859 1.3281-4.2109 2.8438-4.9844 3.6719h-5.5312c-0.53906 0-1.0469 0.28125-1.3281 0.74219-0.28516 0.46094-0.3125 1.0352-0.070313 1.5195l3.125 6.25c0.26563 0.53125 0.80469 0.86328 1.3984 0.86328h2.2891l2.6602 3.9922c0.14844 0.22656 0.35938 0.41016 0.60156 0.53125l6.1406 3.0703 10.523 7.5156 4.5156 9.0273c0.27344 0.54688 0.82812 0.86328 1.3984 0.86328 0.23438 0 0.47266-0.054688 0.69531-0.16406l3.125-1.5625c0.53125-0.26563 0.86328-0.80469 0.86328-1.3984v-4.6875c0-0.86328-0.69922-1.5625-1.5625-1.5625s-1.5625 0.69922-1.5625 1.5625v3.7227l-0.86328 0.42969-3.9883-7.9766c-0.11328-0.22656-0.28125-0.42188-0.48828-0.57031l-10.938-7.8125c-0.066406-0.046875-0.13672-0.089844-0.21094-0.125l-5.8789-2.9375-1.2734-1.9102h78.535l-1.2344 1.8555-7.3594 2.9453c-0.14062 0.054687-0.27344 0.13281-0.39453 0.23047l-7.8125 6.25c-0.125 0.10156-0.23438 0.21875-0.32422 0.35156l-3.0391 4.5586-1.9102 1.9102-2.0195-2.0195c-0.60938-0.60938-1.6016-0.60938-2.2109 0s-0.60938 1.6016 0 2.2109l3.125 3.125c0.30469 0.30469 0.70312 0.45703 1.1055 0.45703 0.40234 0 0.79688-0.15234 1.1055-0.45703l3.125-3.125c0.070313-0.070312 0.14062-0.15234 0.19531-0.23828l2.9922-4.4844 7.4414-5.9531 7.5977-3.0391c0.29297-0.11719 0.54688-0.32031 0.71875-0.58594l2.6602-3.9922h2.2891c0.59375 0 1.1328-0.33594 1.3984-0.86328l3.125-6.25c0.24219-0.48438 0.21875-1.0586-0.070312-1.5195zm-76.328-3.8672c4.7812 0 9.7422 1.2891 14.996 2.6562 0.59375 0.15625 1.1914 0.3125 1.7969 0.46875h-28.277c2.2969-1.5039 6.0391-3.125 11.484-3.125zm70.91 9.375h-88.695l-1.5625-3.125h91.82z"/>
 <path d="m45.199 82.172-3.0586-12.238c-0.070313-0.27344-0.21094-0.52344-0.41016-0.72656l-4.3828-4.3828-1.457-5.8281c-0.21094-0.83594-1.0547-1.3438-1.8945-1.1367-0.83594 0.21094-1.3438 1.0586-1.1367 1.8945l1.5625 6.25c0.070313 0.27344 0.21094 0.52344 0.41016 0.72656l4.3828 4.3828 3.0195 12.078c0.042969 0.17188 0.11719 0.33594 0.21484 0.48828l3.125 4.6875c0.30078 0.45312 0.79688 0.69531 1.3008 0.69531 0.29688 0 0.60156-0.085938 0.86719-0.26172 0.71875-0.48047 0.91406-1.4492 0.43359-2.1641l-2.9766-4.4609z"/>
 <path d="m65.578 66.004 1.5625-6.25c0.21094-0.83594-0.29688-1.6875-1.1367-1.8945-0.83594-0.21094-1.6875 0.29688-1.8945 1.1367l-1.457 5.8281-4.3828 4.3828c-0.22266 0.22266-0.375 0.50781-0.42969 0.81641l-4.1406 22.086-0.57031-0.57031v-14.977c0-0.28125-0.078125-0.5625-0.22266-0.80469l-4.4648-7.4414v-5.8164c0-0.86328-0.69922-1.5625-1.5625-1.5625-0.86328 0-1.5625 0.69922-1.5625 1.5625v6.25c0 0.28125 0.078125 0.5625 0.22266 0.80469l4.4648 7.4414v15.191c0 0.41406 0.16406 0.8125 0.45703 1.1055l3.125 3.125c0.29687 0.29688 0.69531 0.45703 1.1055 0.45703 0.15625 0 0.3125-0.023438 0.46094-0.070312 0.55469-0.17188 0.96875-0.63281 1.0742-1.2031l4.5977-24.523 4.3438-4.3438c0.19922-0.20312 0.34375-0.45312 0.41016-0.72656z"/>
 <path d="m39.062 14.062h4.2305c0.51562 0 0.96875 0.33203 1.1172 0.82812l5.6562 18.383c0.10547 0.34375 0.32812 0.64062 0.625 0.83984l4.4297 2.9531 2.9531 4.4297c0.30078 0.45312 0.79688 0.69531 1.3008 0.69531 0.29688 0 0.60156-0.085937 0.86719-0.26172 0.71875-0.48047 0.91406-1.4492 0.43359-2.1641l-3.125-4.6875c-0.11719-0.17188-0.26172-0.32031-0.43359-0.43359l-4.2266-2.8164-5.4922-17.852c-0.55859-1.8125-2.2109-3.0312-4.1094-3.0312h-4.2305c-0.86328 0-1.5625 0.69922-1.5625 1.5625 0 0.86328 0.69922 1.5625 1.5625 1.5625z"/>
 <path d="m60.938 17.188c2.5859 0 4.6875-2.1016 4.6875-4.6875s-2.1016-4.6875-4.6875-4.6875-4.6875 2.1016-4.6875 4.6875 2.1016 4.6875 4.6875 4.6875zm0-6.25c0.85938 0 1.5625 0.70312 1.5625 1.5625s-0.70312 1.5625-1.5625 1.5625c-0.86328 0-1.5625-0.70312-1.5625-1.5625s0.70312-1.5625 1.5625-1.5625z"/>
 <path d="m78.25 26.578c-0.85156 0.13281-1.4375 0.92969-1.3047 1.7812l1.2031 7.8125c0.11719 0.77344 0.78516 1.3242 1.543 1.3242 0.078125 0 0.15625-0.007813 0.24219-0.015625 0.85156-0.13281 1.4375-0.92969 1.3047-1.7812l-1.2031-7.8125c-0.13281-0.85156-0.92969-1.4375-1.7812-1.3047z"/>
 <path d="m78.109 15.387c-0.13281-0.85156-0.92969-1.4375-1.7812-1.3047-0.85156 0.13281-1.4375 0.92969-1.3047 1.7812l0.96094 6.25c0.11719 0.77344 0.78516 1.3242 1.543 1.3242 0.078125 0 0.15625-0.007812 0.24219-0.015625 0.85156-0.13281 1.4375-0.92969 1.3047-1.7812l-0.96094-6.25z"/>
 <path d="m21.883 12.371-1.5625 18.75c-0.070312 0.85938 0.57031 1.6172 1.4297 1.6875 0.046875 0.003906 0.085938 0.007812 0.13281 0.007812 0.80469 0 1.4883-0.61719 1.5547-1.4336l1.5625-18.75c0.070312-0.85937-0.57031-1.6172-1.4297-1.6875-0.85937-0.074218-1.6172 0.57031-1.6875 1.4297z"/>
 <path d="m41.758 17.25c-0.82812 0.23438-1.3125 1.1016-1.0703 1.9297l3.125 10.938c0.19531 0.6875 0.82031 1.1328 1.5 1.1328 0.14062 0 0.28906-0.019531 0.42969-0.0625 0.82812-0.23438 1.3125-1.1016 1.0703-1.9297l-3.125-10.938c-0.23438-0.82812-1.1016-1.3125-1.9297-1.0703z"/>
<text x="0.0" y="117.5" font-size="5.0" font-weight="bold" font-family="Arbeit Regular, Helvetica, Arial-Unicode, Arial, Sans-serif" fill="#000000">Created by Izwar Muis</text><text x="0.0" y="122.5" font-size="5.0" font-weight="bold" font-family="Arbeit Regular, Helvetica, Arial-Unicode, Arial, Sans-serif" fill="#000000">from Noun Project</text></svg>