<svg xmlns="http://www.w3.org/2000/svg" data-name="Layer 1" viewBox="0 0 128 160" x="0px" y="0px"><title>miscellaneous 450 final</title><path d="M2,61a1.99582,1.99582,0,0,0,1.39648-.56787L13.74365,50.34229,24.022,60.30078a2,2,0,1,0,2.7832-2.873l-2.264-2.19354L36.74854,43.39453l10.124,9.71289a2.00022,2.00022,0,0,0,2.76953-2.88672L46.37762,47.089,63.80811,29.81592,81.411,47.2608l-1.84753,1.76556a2,2,0,1,0,2.76367,2.8916L91.249,43.39209,103.45953,55.2348l-2.36578,2.29254a2,2,0,1,0,2.7832,2.873l10.37939-10.05811,10.34717,10.08984a2.00029,2.00029,0,0,0,2.793-2.86426L115.65723,46.12109a2.00027,2.00027,0,0,0-2.78809-.00439l-6.53564,6.33319L92.65186,39.18018a2.0007,2.0007,0,0,0-2.77441-.01025l-5.57379,5.32654L65.21582,25.57959a1.999,1.999,0,0,0-2.81543,0L43.49048,44.31921l-5.365-5.14685a2.00008,2.00008,0,0,0-2.77734.00781L21.667,52.44946,15.13086,46.1167a2.00027,2.00027,0,0,0-2.78809.00439L.60352,57.56787A2,2,0,0,0,2,61Z"/><path d="M124.52539,97.35059a1.99988,1.99988,0,0,0,2.95166-2.69922A36.28555,36.28555,0,0,0,116,87.0675V79.32813l.58594.58594a1.99979,1.99979,0,0,0,2.82813-2.82812L116,73.67188V71.32813l.58594.58594a1.99979,1.99979,0,0,0,2.82813-2.82812l-4-4a1.99927,1.99927,0,0,0-2.82812,0l-4,4a1.99979,1.99979,0,0,0,2.82813,2.82813L112,71.32813v2.34375l-3.41406,3.41406a1.99979,1.99979,0,0,0,2.82813,2.82813L112,79.32813v6.29071a37.0818,37.0818,0,0,0-13-1.49072v-7.8l.58594.58594a1.99979,1.99979,0,0,0,2.82813-2.82812L99,70.67188V68.32813l.58594.58594a1.99979,1.99979,0,0,0,2.82813-2.82812l-4-4a1.99927,1.99927,0,0,0-2.82812,0l-4,4a1.99979,1.99979,0,0,0,2.82813,2.82813L95,68.32813v2.34375l-3.41406,3.41406a1.99979,1.99979,0,0,0,2.82813,2.82813L95,76.32813V84.5c0,.02679.00684.0517.00787.07825a44.32161,44.32161,0,0,0-8.35706,2.26465c-20.97748-15.38312-41.42706-2.26147-44.85724.16779a44.52582,44.52582,0,0,0-8.80151-2.43176C32.9931,84.55212,33,84.527,33,84.5V76.32813l.58594.58594a1.99979,1.99979,0,0,0,2.82813-2.82812L33,70.67188V68.32813l.58594.58594a1.99979,1.99979,0,0,0,2.82813-2.82812l-4-4a1.99927,1.99927,0,0,0-2.82812,0l-4,4a1.99979,1.99979,0,0,0,2.82813,2.82813L29,68.32813v2.34375l-3.41406,3.41406a1.99979,1.99979,0,0,0,2.82813,2.82813L29,76.32813v7.80078a37.08326,37.08326,0,0,0-13,1.491V79.32813l.58594.58594a1.99979,1.99979,0,0,0,2.82813-2.82812L16,73.67188V71.32813l.58594.58594a1.99979,1.99979,0,0,0,2.82813-2.82812l-4-4a1.99927,1.99927,0,0,0-2.82812,0l-4,4a1.99979,1.99979,0,0,0,2.82813,2.82813L12,71.32813v2.34375L8.58594,77.08594a1.99979,1.99979,0,0,0,2.82813,2.82813L12,79.32813v7.74042A36.30169,36.30169,0,0,0,.52295,94.65137a2.00012,2.00012,0,0,0,2.9541,2.69727c.19336-.21289,19.69141-20.94531,49.35937.27832A2.00022,2.00022,0,0,0,55.16357,94.373a64.88655,64.88655,0,0,0-9.03076-5.45551c5.62286-3.446,20.399-10.36884,36.171-.2099A64.37423,64.37423,0,0,0,72.83643,94.373,2.00022,2.00022,0,0,0,75.16357,97.627C104.71533,76.48535,123.71582,96.47363,124.52539,97.35059Z"/><path d="M2,112H12a2,2,0,0,0,0-4H2a2,2,0,0,0,0,4Z"/><path d="M22,116H12a2,2,0,0,0,0,4H22a2,2,0,0,0,0-4Z"/><path d="M22,108a2,2,0,0,0,0,4H32a2,2,0,0,0,0-4Z"/><path d="M42,124H32a2,2,0,0,0,0,4H42a2,2,0,0,0,0-4Z"/><path d="M12,124H2a2,2,0,0,0,0,4H12a2,2,0,0,0,0-4Z"/><path d="M126,124H116a2,2,0,0,0,0,4h10a2,2,0,0,0,0-4Z"/><path d="M116,112h10a2,2,0,0,0,0-4H116a2,2,0,0,0,0,4Z"/><path d="M58,116H40a2,2,0,0,0,0,4H58a2,2,0,0,0,0-4Z"/><path d="M56,108a2,2,0,0,0,0,4H66a2,2,0,0,0,0-4Z"/><path d="M76,116H66a2,2,0,0,0,0,4H76a2,2,0,0,0,0-4Z"/><path d="M76,108a2,2,0,0,0,0,4H86a2,2,0,0,0,0-4Z"/><path d="M96,124H86a2,2,0,0,0,0,4H96a2,2,0,0,0,0-4Z"/><path d="M112,116H94a2,2,0,0,0,0,4h18a2,2,0,0,0,0-4Z"/><path d="M99,24a7,7,0,1,0-7-7A7.00786,7.00786,0,0,0,99,24Zm0-10a3,3,0,1,1-3,3A3.00328,3.00328,0,0,1,99,14Z"/><path d="M99,6a2.0001,2.0001,0,0,0,2-2V2a2,2,0,0,0-4,0V4A2.0001,2.0001,0,0,0,99,6Z"/><path d="M97,30v2a2,2,0,0,0,4,0V30a2,2,0,0,0-4,0Z"/><path d="M110,17a2.0001,2.0001,0,0,0,2,2h2a2,2,0,0,0,0-4h-2A2.0001,2.0001,0,0,0,110,17Z"/><path d="M84,19h2a2,2,0,0,0,0-4H84a2,2,0,0,0,0,4Z"/><path d="M108.19238,29.02051a1.99979,1.99979,0,0,0,2.82813-2.82812l-1.41406-1.41406a1.99979,1.99979,0,0,0-2.82812,2.82813Z"/><path d="M88.39355,9.22168a1.99979,1.99979,0,0,0,2.82813-2.82812L89.80762,4.97949a1.99979,1.99979,0,0,0-2.82812,2.82813Z"/><path d="M108.19238,9.80762a1.99269,1.99269,0,0,0,1.41406-.58594l1.41406-1.41406a1.99979,1.99979,0,0,0-2.82812-2.82812l-1.41406,1.41406a2,2,0,0,0,1.41406,3.41406Z"/><path d="M88.39355,24.77832l-1.41406,1.41406a1.99979,1.99979,0,1,0,2.82813,2.82813l1.41406-1.41406a1.99979,1.99979,0,0,0-2.82812-2.82812Z"/><path d="M20.94482,22.94775a1.9986,1.9986,0,0,0,2.75488-.64062,4.83175,4.83175,0,0,1,2.73486-1.44629,2.00043,2.00043,0,0,0,1.647-2.08789,1.603,1.603,0,0,1,.87109-1.76318,2.00014,2.00014,0,1,0-1.90137-3.51953,5.42337,5.42337,0,0,0-2.86572,3.85889,7.498,7.498,0,0,0-3.88135,2.84375A2,2,0,0,0,20.94482,22.94775Z"/><text x="0" y="143" fill="#000000" font-size="5px" font-weight="bold" font-family="'Helvetica Neue', Helvetica, Arial-Unicode, Arial, Sans-serif">Created by WEBTECHOPS LLP</text><text x="0" y="148" fill="#000000" font-size="5px" font-weight="bold" font-family="'Helvetica Neue', Helvetica, Arial-Unicode, Arial, Sans-serif">from the Noun Project</text></svg>