<svg xmlns="http://www.w3.org/2000/svg" data-name="Layer 1" viewBox="0 0 128 160" x="0px" y="0px"><title>singapore</title><path d="M71.62,47.37h-10a4.15,4.15,0,0,1-4.14-4.14V41.49a2.61,2.61,0,0,1,2.61-2.61h5.2a2.77,2.77,0,0,0,0-5.54h-6.7a3.83,3.83,0,0,1-3.83-3.83v-5.6a4.62,4.62,0,0,1,4.61-4.61h9.73l2-3.53a4.39,4.39,0,0,1,3.82-2.23h8.91a1,1,0,0,1,.71.29l6.28,6.28a1,1,0,0,1,.29.71v9.23a10.28,10.28,0,0,1-5.53,9.13L75.18,44.65a8.24,8.24,0,0,0-2.71,2.26l-.06.08A1,1,0,0,1,71.62,47.37Zm-11.5-6.49a.61.61,0,0,0-.61.61v1.75a2.14,2.14,0,0,0,2.14,2.14h9.48a10.23,10.23,0,0,1,3.11-2.5l10.43-5.46a8.28,8.28,0,0,0,4.46-7.36V21.24l-5.7-5.7h-8.5a2.39,2.39,0,0,0-2.08,1.21l-2.28,4a1,1,0,0,1-.87.51H59.41a2.62,2.62,0,0,0-2.61,2.61v5.6a1.83,1.83,0,0,0,1.83,1.83h6.7a4.77,4.77,0,0,1,0,9.54Z"/><path d="M59.91,26.36H55.79a1,1,0,0,1,0-2h4.12a1,1,0,0,1,0,2Z"/><path d="M83.3,25a1,1,0,0,1-.75-.34l-2.79-3.2a3.18,3.18,0,0,0-2.4-1.09H76.16a.42.42,0,0,0-.41.42l0,3.21a1,1,0,0,1-1,1h0a1,1,0,0,1-1-1l0-3.21a2.41,2.41,0,0,1,2.41-2.44h1.19a5.18,5.18,0,0,1,3.91,1.78l2.79,3.2A1,1,0,0,1,83.3,25Z"/><path d="M90.14,21.82a1,1,0,0,1-.71-.29l-6.28-6.28a1,1,0,0,1,.12-1.52l3.43-2.48a2.8,2.8,0,0,1,4.44,2.27v7.3a1,1,0,0,1-1,1ZM85.4,14.66l3.75,3.75V13.52a.8.8,0,0,0-1.27-.65Z"/><path d="M106.1,73.5H102a1,1,0,0,1,0-2h4.15a3.4,3.4,0,0,0,3.4-3.4V59.31a1,1,0,0,1,2,0V68.1A5.4,5.4,0,0,1,106.1,73.5Z"/><path d="M110.5,62.5a1,1,0,0,1-1-1V25.57A17.68,17.68,0,0,0,91.84,7.91H88.75a10.64,10.64,0,0,0-7.81,3.43l-2,2.2h4.95a1,1,0,0,1,.71.29l6.28,6.28a1,1,0,0,1,.29.71v9.23a10.28,10.28,0,0,1-5.53,9.13L75.18,44.65A8.28,8.28,0,0,0,70.72,52v5.36a1,1,0,0,1-2,0V52a10.28,10.28,0,0,1,5.53-9.13l10.43-5.46a8.28,8.28,0,0,0,4.46-7.36V21.24l-5.7-5.7H76.63a1,1,0,0,1-.74-1.68L79.47,10a12.65,12.65,0,0,1,9.28-4.07h3.09A19.68,19.68,0,0,1,111.5,25.57V61.5A1,1,0,0,1,110.5,62.5Z"/><path d="M74.89,58.41a1,1,0,0,1-1-1V54.81a10.28,10.28,0,0,1,5.53-9.13l10.43-5.46a8.28,8.28,0,0,0,4.46-7.36V17.29a1.76,1.76,0,0,0-1.76-1.76H90.18a1,1,0,0,1,0-2h2.37a3.76,3.76,0,0,1,3.76,3.76V32.86A10.28,10.28,0,0,1,90.78,42L80.35,47.45a8.28,8.28,0,0,0-4.46,7.36v2.59A1,1,0,0,1,74.89,58.41Z"/><path d="M80,60.31a1,1,0,0,1-1-1V57.52a10.28,10.28,0,0,1,5.53-9.13L95,42.93a8.28,8.28,0,0,0,4.46-7.36V25.36a1,1,0,1,1,2,0V35.57a10.28,10.28,0,0,1-5.53,9.13L85.46,50.16A8.28,8.28,0,0,0,81,57.52v1.79A1,1,0,0,1,80,60.31Z"/><path d="M94,67.78a1,1,0,0,1-1-1V58c0-3.33,1.28-6.38,3.35-8l6.19-4.74c1.56-1.2,2.57-3.7,2.57-6.38V26.49a1,1,0,0,1,2,0V39c0,3.33-1.29,6.38-3.35,8l-6.19,4.74C96,52.86,95,55.37,95,58v8.74A1,1,0,0,1,94,67.78Z"/><path d="M101.78,115.53H73.32a4.6,4.6,0,0,1-4.6-4.6V82.35a1,1,0,0,1,1-1h6.41a1,1,0,0,1,1,1V92.49a3.48,3.48,0,1,0,7,0V82.35a1,1,0,0,1,2,0V92.49a5.48,5.48,0,1,1-11,0V83.35H70.72v27.58a2.6,2.6,0,0,0,2.6,2.6h28.46a2.49,2.49,0,0,0,2.49-2.49V72.5a1,1,0,0,1,2,0V111A4.49,4.49,0,0,1,101.78,115.53Z"/><path d="M85.1,83.35a1,1,0,0,1-.84-1.54c3.62-5.7,2.7-14.8-2-19.46a14.29,14.29,0,0,0-19.5-.66,30.25,30.25,0,0,1,7.94,20.5v.17a1,1,0,0,1-2,0v-.17a28.27,28.27,0,0,0-8.07-19.84,1,1,0,0,1,0-1.41,16.29,16.29,0,0,1,23,0c5.36,5.36,6.39,15.42,2.25,21.95A1,1,0,0,1,85.1,83.35Z"/><path d="M76.14,83.35a1,1,0,0,1-1-1V81a4,4,0,0,1,4-4,1,1,0,0,1,0,2,2,2,0,0,0-2,2v1.36A1,1,0,0,1,76.14,83.35Z"/><path d="M98.4,85.14a3.54,3.54,0,0,1-2.55-1.08,3.55,3.55,0,0,1-6.1-2.47,1,1,0,0,1,2,0,1.55,1.55,0,1,0,3.1,0,1,1,0,0,1,2,0,1.55,1.55,0,0,0,3.1,0,1,1,0,1,1,2,0A3.55,3.55,0,0,1,98.4,85.14Z"/><path d="M98.4,92.62a3.54,3.54,0,0,1-2.55-1.08,3.55,3.55,0,0,1-6.1-2.47,1,1,0,0,1,2,0,1.55,1.55,0,1,0,3.1,0,1,1,0,0,1,2,0,1.55,1.55,0,0,0,3.1,0,1,1,0,1,1,2,0A3.55,3.55,0,0,1,98.4,92.62Z"/><path d="M98.4,100.1A3.54,3.54,0,0,1,95.85,99a3.55,3.55,0,0,1-6.1-2.47,1,1,0,0,1,2,0,1.55,1.55,0,0,0,3.1,0,1,1,0,0,1,2,0,1.55,1.55,0,0,0,3.1,0,1,1,0,1,1,2,0A3.55,3.55,0,0,1,98.4,100.1Z"/><path d="M98.4,107.59a3.54,3.54,0,0,1-2.55-1.08,3.54,3.54,0,0,1-5.1,0,3.55,3.55,0,0,1-5.1,0,3.54,3.54,0,0,1-5.1,0,3.55,3.55,0,0,1-6.1-2.47,1,1,0,1,1,2,0,1.55,1.55,0,0,0,3.1.1s0-.07,0-.1a1,1,0,0,1,2,0s0,.07,0,.1a1.55,1.55,0,0,0,3.1-.1,1,1,0,0,1,2,0,1.55,1.55,0,1,0,3.1,0,1,1,0,1,1,2,0,1.55,1.55,0,1,0,3.1,0,1,1,0,1,1,2,0,1.55,1.55,0,1,0,3.1,0,1,1,0,1,1,2,0A3.55,3.55,0,0,1,98.4,107.59Z"/><path d="M61,35.05a1,1,0,0,1-1-1V32.34a1,1,0,0,1,2,0v1.71A1,1,0,0,1,61,35.05Z"/><path d="M61,40.7a1,1,0,0,1-1-1V38a1,1,0,0,1,2,0V39.7A1,1,0,0,1,61,40.7Z"/><path d="M24.71,68.12a1,1,0,0,1-1-1,39.55,39.55,0,0,1,.24-4.34,1,1,0,1,1,2,.22,37.46,37.46,0,0,0-.23,4.12A1,1,0,0,1,24.71,68.12Z"/><path d="M25.69,59.5l-.23,0a1,1,0,0,1-.75-1.2C27.93,44.55,38.37,35,50.1,35h6.4a1,1,0,1,1,0,2H50.1C39.3,37,29.67,45.92,26.67,58.72A1,1,0,0,1,25.69,59.5Z"/><path d="M17.5,68.12a1,1,0,0,1-1-1q0-1,.06-2a1,1,0,0,1,2,.12q-.06.93-.06,1.87A1,1,0,0,1,17.5,68.12Z"/><path d="M32.16,61.8H32a1,1,0,0,1-.86-1.12C32.56,50,37.37,41.39,43.61,37.4A30.32,30.32,0,0,0,19.17,60.75a1,1,0,0,1-2-.42A32.3,32.3,0,0,1,48.65,35H56.5a1,1,0,1,1,0,2h-5C42.69,37,35,47,33.15,60.93A1,1,0,0,1,32.16,61.8Z"/><path d="M31.75,68.12a1,1,0,0,1-1-1q0-.69,0-1.38a1,1,0,0,1,1-1h0a1,1,0,0,1,1,1q0,.66,0,1.33A1,1,0,0,1,31.75,68.12Z"/><path d="M109.5,122.09h-45a1,1,0,0,1-1-1V115a1,1,0,0,1,1-1h45a1,1,0,0,1,1,1v6.09A1,1,0,0,1,109.5,122.09Zm-44-2h43V116h-43Z"/><text x="0" y="143" fill="#000000" font-size="5px" font-weight="bold" font-family="'Helvetica Neue', Helvetica, Arial-Unicode, Arial, Sans-serif">Created by Philipp Petzka</text><text x="0" y="148" fill="#000000" font-size="5px" font-weight="bold" font-family="'Helvetica Neue', Helvetica, Arial-Unicode, Arial, Sans-serif">from the Noun Project</text></svg>