<svg xmlns="http://www.w3.org/2000/svg" viewBox="0 0 64 80" x="0px" y="0px"><title>Vietnam</title><g><path d="M60,60V50H57V45H55V41H53V16.1626L55.38721,9H51V5H47V1H17V5H13V9H8.61279L11,16.1626V41H9v4H7v5H4V60H2v2H62V60ZM45,41V17h6V41ZM27,17V41H21V17Zm2,0h6V41H29Zm8,0h6V41H37ZM19,3H45V5H19ZM15,7H49V9H15Zm37.61279,4-1.33362,4H12.72083l-1.33362-4ZM13,17h6V41H13ZM11,43H53v2H11ZM9,47H55v3H9ZM6,52H58v8H39V53H25v7H6Zm31,8H27V55H37Z"/></g><text x="0" y="79" fill="#000000" font-size="5px" font-weight="bold" font-family="'Helvetica Neue', Helvetica, Arial-Unicode, Arial, Sans-serif">Created by WiStudio</text><text x="0" y="84" fill="#000000" font-size="5px" font-weight="bold" font-family="'Helvetica Neue', Helvetica, Arial-Unicode, Arial, Sans-serif">from the Noun Project</text></svg>